<?xml version="1.0" encoding="UTF-8" standalone="no"?>
<!-- Created with Inkscape (http://www.inkscape.org/) -->

<svg
   width="77.960106mm"
   height="68.427055mm"
   viewBox="0 0 77.960106 68.427055"
   version="1.1"
   id="svg1"
   xml:space="preserve"
   inkscape:version="1.3.2 (091e20e, 2023-11-25, custom)"
   sodipodi:docname="modobienstar.svg"
   inkscape:export-filename="modobienstar.svg"
   inkscape:export-xdpi="96"
   inkscape:export-ydpi="96"
   xmlns:inkscape="http://www.inkscape.org/namespaces/inkscape"
   xmlns:sodipodi="http://sodipodi.sourceforge.net/DTD/sodipodi-0.dtd"
   xmlns="http://www.w3.org/2000/svg"
   xmlns:svg="http://www.w3.org/2000/svg"><sodipodi:namedview
     id="namedview1"
     pagecolor="#ffbbbb"
     bordercolor="#000000"
     borderopacity="0.25"
     inkscape:showpageshadow="2"
     inkscape:pageopacity="0.0"
     inkscape:pagecheckerboard="0"
     inkscape:deskcolor="#d1d1d1"
     inkscape:document-units="mm"
     inkscape:zoom="2.5650676"
     inkscape:cx="248.33654"
     inkscape:cy="367.43671"
     inkscape:window-width="1366"
     inkscape:window-height="705"
     inkscape:window-x="-8"
     inkscape:window-y="-8"
     inkscape:window-maximized="1"
     inkscape:current-layer="layer7"
     showguides="false" /><defs
     id="defs1"><filter
       inkscape:collect="always"
       style="color-interpolation-filters:sRGB"
       id="filter14"
       x="-0.20118437"
       y="-0.25148044"
       width="1.4023687"
       height="1.5029609"><feGaussianBlur
         inkscape:collect="always"
         stdDeviation="0.48912698"
         id="feGaussianBlur14" /></filter><filter
       inkscape:collect="always"
       style="color-interpolation-filters:sRGB"
       id="filter15"
       x="-0.11168384"
       y="-0.12931812"
       width="1.2233677"
       height="1.2586362"><feGaussianBlur
         inkscape:collect="always"
         stdDeviation="0.29868293"
         id="feGaussianBlur15" /></filter><filter
       inkscape:collect="always"
       style="color-interpolation-filters:sRGB"
       id="filter1"
       x="-0.58576133"
       y="-0.16422479"
       width="2.1714771"
       height="1.3284496"><feGaussianBlur
         inkscape:collect="always"
         stdDeviation="0.034056353"
         id="feGaussianBlur1" /></filter></defs><g
     inkscape:label="Capa 1"
     inkscape:groupmode="layer"
     id="layer1"
     transform="translate(-13.141917,-0.70151893)"><g
       inkscape:groupmode="layer"
       id="layer7"
       inkscape:label="gato"
       transform="translate(8.1689591,9.3359528)"
       style="stroke-width:0.988066;stroke-dasharray:none"><path
         style="fill:#ffffff;fill-opacity:1;stroke:#000000;stroke-width:0.175161;stroke-linecap:round;stroke-dasharray:none;stroke-opacity:1;paint-order:markers stroke fill"
         d="M 25.316419,49.301733 C 24.538272,42.635517 23.222017,34.83972 22.266798,34.330994 21.272344,33.032911 7.3079393,21.443247 6.9315563,19.021291 6.5551723,16.599335 7.0295993,12.712479 10.242574,12.694033 13.455549,12.675589 27.715548,30.192893 39.867473,27.156336 53.166411,25.202747 60.033912,5.0836937 64.264449,2.5252278 67.041557,0.84573928 69.897352,5.4450997 68.969578,9.7563785 64.92059,20.847367 58.920348,23.766734 53.808601,32.579698 l 0.522793,16.270087 z"
         id="path1"
         inkscape:label="cuerpo"
         sodipodi:nodetypes="cczzcscccc" /><path
         style="fill:#e2ad6e;fill-opacity:1;stroke:#e2ad6e;stroke-width:0.46787;stroke-linecap:round;stroke-dasharray:none;stroke-opacity:1;paint-order:markers stroke fill"
         d="M 64.07755,4.196099 C 63.25014,4.510725 62.99526,5.85522 62.2277,6.270472 61.05187,6.906598 62.312,7.268663 67.31126,8.3595732 68.1059,8.5329762 67.02406,7.8876852 67.49378,7.363155 68.09803,6.688405 67.32765,4.521446 66.5113,4.14581 64.57552,3.25507 65.07691,3.816081 64.07755,4.196099 Z"
         id="path26"
         sodipodi:nodetypes="ssssss"
         inkscape:label="manchaMANOderecha" /><ellipse
         style="fill:#604949;fill-opacity:1;stroke-width:0.46787;stroke-linecap:round;stroke-dasharray:none;paint-order:markers stroke fill"
         id="path9-2-7"
         cx="63.865204"
         cy="6.1200929"
         rx="0.88552845"
         ry="0.73313981" /><ellipse
         style="fill:#604949;fill-opacity:1;stroke-width:0.475561;stroke-linecap:round;stroke-dasharray:none;paint-order:markers stroke fill"
         id="path9-2-4"
         cx="49.274963"
         cy="-33.580715"
         rx="0.80219549"
         ry="0.83612466"
         transform="matrix(0.82273751,0.56842149,-0.75691458,0.65351382,0,0)" /><ellipse
         style="fill:#604949;fill-opacity:1;stroke-width:0.46787;stroke-linecap:round;stroke-dasharray:none;paint-order:markers stroke fill"
         id="path9-2-9"
         cx="66.378998"
         cy="7.6982102"
         rx="0.88552845"
         ry="0.66484714" /><ellipse
         style="fill:#604949;fill-opacity:1;stroke-width:0.474001;stroke-linecap:round;stroke-dasharray:none;paint-order:markers stroke fill"
         id="path9-2-9-2"
         cx="56.812862"
         cy="-20.033504"
         rx="1.177622"
         ry="1.2864386"
         transform="matrix(0.90623234,0.42278001,-0.61605578,0.78770253,0,0)" /><ellipse
         style="fill:#604949;fill-opacity:1;stroke-width:0.424538;stroke-linecap:round;stroke-dasharray:none;paint-order:markers stroke fill"
         id="path9-2"
         cx="-3.5748205"
         cy="20.620008"
         rx="0.71164185"
         ry="0.75112504"
         transform="matrix(0.82053157,-0.57160121,0.6112599,0.79142993,0,0)" /><ellipse
         style="fill:#604949;fill-opacity:1;stroke-width:0.424325;stroke-linecap:round;stroke-dasharray:none;paint-order:markers stroke fill"
         id="path9-2-2"
         cx="8.048131"
         cy="18.043602"
         rx="0.72274524"
         ry="0.73884231"
         transform="matrix(0.98169056,-0.19048267,0.21031609,0.97763344,0,0)" /><ellipse
         style="fill:#604949;fill-opacity:1;stroke-width:0.424477;stroke-linecap:round;stroke-dasharray:none;paint-order:markers stroke fill"
         id="path9-2-0"
         cx="0.63704777"
         cy="19.269037"
         rx="0.7162537"
         ry="0.74607098"
         inkscape:transform-center-x="-0.088152766"
         inkscape:transform-center-y="0.027815419"
         transform="matrix(0.89193618,-0.45216131,0.48996343,0.87174299,0,0)" /><path
         style="fill:#e2ad6e;fill-opacity:1;stroke:#e2ad6e;stroke-width:0.988066;stroke-linecap:round;stroke-dasharray:none;stroke-opacity:1;paint-order:markers stroke fill"
         d="m 27.716108,23.339882 c -0.708599,-0.963694 6.75089,8.600677 8.314833,13.712179 0.58398,1.908645 -0.151874,4.034783 0.291748,5.980845 0.527895,2.315752 0.399839,6.691122 2.771611,6.564342 3.702012,-0.19788 3.055289,-6.944721 3.209234,-10.64882 0.09702,-2.334505 -1.649364,-4.527361 -1.458743,-6.856093 0.29393,-3.590819 5.711135,-10.699536 3.938606,-10.065324 -4.366238,1.562242 -16.439607,2.166519 -17.067289,1.312871 z"
         id="path24"
         sodipodi:nodetypes="saaaaass" /><g
         id="g2"
         inkscape:label="CARA"
         transform="matrix(0.51440654,0,0,0.49862191,6.291483,-6.3229368)"
         style="display:inline;stroke-width:0.3;stroke-dasharray:none"
         inkscape:transform-center-x="1.2789707"
         inkscape:transform-center-y="1.1780313"><path
           style="fill:#ffffff;fill-opacity:1;stroke:#000000;stroke-width:0.3;stroke-linecap:round;stroke-dasharray:none;stroke-opacity:1;paint-order:markers stroke fill"
           d="M 28.591356,41.428291 C 25.949583,38.938793 17.49995,28.132436 17.213163,25.090373 c -0.449812,-4.771335 15.50062,-2.19824 17.781997,-0.427256 4.864586,3.776274 -1.921988,20.988652 -6.403804,16.765174 z"
           id="path3"
           sodipodi:nodetypes="ssss"
           inkscape:label="oreja izquierda" /><path
           style="fill:#ffffff;fill-opacity:1;stroke:#000000;stroke-width:0.3;stroke-linecap:round;stroke-dasharray:none;stroke-opacity:1;paint-order:markers stroke fill"
           d="M 65.786482,20.142365 C 66.117199,17.671619 78.527253,8.5376752 83.696431,7.279052 88.950146,5.9998452 84.854469,34.27265 79.826839,32.15454 74.624196,29.962698 65.037495,25.73796 65.786482,20.142365 Z"
           id="path4"
           sodipodi:nodetypes="ssss"
           inkscape:label="orejaderecha" /><path
           style="fill:#ffffff;fill-opacity:1;stroke:#000000;stroke-width:0.3;stroke-linecap:round;stroke-dasharray:none;stroke-opacity:1;paint-order:markers stroke fill"
           d="M 44.916406,70.024694 C 34.938467,63.137586 26.646772,48.390987 29.613309,36.389806 31.863483,27.286685 39.940786,21.833653 51.64613,19.727423 c 11.475399,-2.064855 16.971328,-0.04845 25.550008,8.48916 7.187836,7.153428 8.819669,21.424357 6.097281,30.521293 -2.756847,9.212085 -10.10358,10.346173 -16.660484,12.348736 -6.948864,2.122272 -15.69333,3.095496 -21.716529,-1.061918 z"
           id="path2"
           inkscape:label="CARA"
           sodipodi:nodetypes="aasssaa" /><path
           style="display:inline;fill:#e2ad6e;fill-opacity:1;stroke:#e2ad6e;stroke-width:0.988066;stroke-linecap:round;stroke-dasharray:none;stroke-opacity:1;paint-order:markers stroke fill"
           d="m 34.391349,54.368826 c 0,0 0.811385,-1.935305 2.636631,-1.129035 1.845992,0.815434 -2.02845,2.274187 6.427601,4.805901 1.823545,0.545963 3.145536,3.334047 2.449781,5.105859 -0.254208,0.647367 0.830884,4.617649 -0.02411,5.0064 -1.375638,0.625478 -4.308136,-2.995 -4.308136,-2.995 -3.999825,-2.477537 -5.746939,-4.210149 -7.600585,-9.023706 z"
           id="path23"
           sodipodi:nodetypes="cssssccc" /><path
           style="display:inline;fill:#e2ad6e;fill-opacity:1;stroke:#e2ad6e;stroke-width:0.3;stroke-linecap:round;stroke-dasharray:none;stroke-opacity:1;paint-order:markers stroke fill"
           d="m 34.761103,25.116703 c -4.686343,-0.884989 -17.319298,-2.657664 -17.401914,0.03021 -0.09702,3.156417 7.703865,11.678895 11.294781,16.349066 0.896063,1.165376 0.952289,3.47615 2.393781,3.631568 1.982276,0.213724 3.368146,-2.404844 4.280672,-4.177524 0.539125,-1.047309 0.179194,-2.370845 0.539251,-3.492393 0.425631,-1.325807 1.372043,-2.433384 1.884741,-3.728015 0.560826,-1.41616 1.549114,-2.882964 1.289361,-4.383819 -0.19938,-1.152019 -1.208596,-2.038506 -2.062975,-2.836588 -0.637876,-0.595846 0.425378,-0.893376 -2.217698,-1.392505 z"
           id="path21"
           sodipodi:nodetypes="sssaaaaaas"
           inkscape:label="color oreja"
           transform="translate(0.58349705,-0.1709023)" /><path
           style="fill:none;stroke:#000000;stroke-width:0.3;stroke-linecap:round;stroke-dasharray:none;stroke-opacity:1;paint-order:markers stroke fill"
           d="m 41.574164,41.42829 c 2.677503,-4.183231 5.691221,-3.323255 8.752457,-1.750491"
           id="path5"
           sodipodi:nodetypes="cc" /><path
           style="fill:none;stroke:#000000;stroke-width:0.3;stroke-linecap:round;stroke-dasharray:none;stroke-opacity:1;paint-order:markers stroke fill"
           d="m 65.059921,38.073182 c 2.874849,-5.60387 7.001602,-3.953688 8.752456,-2.917484"
           id="path6"
           sodipodi:nodetypes="cc" /><path
           style="fill:none;stroke:#000000;stroke-width:0.3;stroke-linecap:round;stroke-dasharray:none;stroke-opacity:1;paint-order:markers stroke fill"
           d="m 50.476789,57.972504 c 6.182252,3.985165 9.0683,-1.497648 10.850825,-3.554073 5.534801,6.428448 9.993431,1.085972 10.815428,-0.769061"
           id="path7"
           sodipodi:nodetypes="ccc" /><path
           style="fill:#0a0707;fill-opacity:1;stroke-width:0.3;stroke-linecap:round;stroke-dasharray:none;paint-order:markers stroke fill"
           d="m 57.407753,49.708665 c -0.344083,-2.1919 5.525872,-2.981035 6.576547,-1.026834 0.778557,1.448073 -1.233143,5.14089 -2.547185,5.504343 -1.44033,0.398384 -3.737416,-2.61774 -4.029362,-4.477509 z"
           id="path8"
           sodipodi:nodetypes="ssss" /><ellipse
           style="fill:#604949;fill-opacity:1;stroke-width:0.7582;stroke-linecap:round;stroke-dasharray:none;paint-order:markers stroke fill"
           id="path9"
           cx="11.322939"
           cy="50.336025"
           rx="3.0659966"
           ry="2.988461" /><path
           style="fill:none;fill-opacity:1;stroke:#000000;stroke-width:0.3;stroke-linecap:round;stroke-dasharray:none;stroke-opacity:1;paint-order:markers stroke fill"
           d="m 21.558074,26.715508 c 4.370576,-0.939197 4.465815,-0.745535 7.73615,1.340931 -1.495907,1.557881 -2.196201,4.342455 -1.54723,6.704666"
           id="path12"
           sodipodi:nodetypes="ccc"
           transform="translate(0.58349704,-0.17090227)" /><ellipse
           style="fill:#ffe4e4;fill-opacity:1;stroke:none;stroke-width:0.988066;stroke-linecap:round;stroke-dasharray:none;stroke-opacity:1;paint-order:markers stroke fill;filter:url(#filter15)"
           id="path13"
           cx="42.887035"
           cy="47.700882"
           rx="3.2092335"
           ry="2.771611"
           transform="translate(0.58349704,-0.17090227)" /><ellipse
           style="fill:#ffe5e5;fill-opacity:1;stroke:none;stroke-width:0.988066;stroke-linecap:round;stroke-dasharray:none;stroke-opacity:1;paint-order:markers stroke fill;filter:url(#filter14)"
           id="path14"
           cx="75.854614"
           cy="43.17878"
           rx="2.917485"
           ry="2.3339882"
           transform="translate(0.58349704,-0.17090227)" /><path
           style="fill:none;fill-opacity:1;stroke:#000000;stroke-width:0.3;stroke-linecap:round;stroke-dasharray:none;stroke-opacity:1;paint-order:markers stroke fill"
           d="m 92.776027,31.946461 c -4.414425,1.266 -13.466906,5.378412 -16.337917,10.502949 5.894883,-4.593301 14.208704,-5.272023 17.796662,-5.251473"
           id="path15"
           sodipodi:nodetypes="ccc"
           transform="translate(0.58349704,-0.17090227)" /><path
           style="fill:none;fill-opacity:1;stroke:none;stroke-width:0.3;stroke-linecap:round;stroke-dasharray:none;stroke-opacity:1;paint-order:markers stroke fill"
           d="M 77.313358,44.345775 91.900784,38.802553"
           id="path16"
           transform="translate(0.58349704,-0.17090227)" /><path
           style="fill:none;fill-opacity:1;stroke:#000000;stroke-width:0.3;stroke-linecap:round;stroke-dasharray:none;stroke-opacity:1;paint-order:markers stroke fill"
           d="M 75.562867,42.011787 C 79.098305,33.666687 85.875374,30.135265 90.150291,28.44548"
           id="path17"
           sodipodi:nodetypes="cc"
           transform="translate(0.58349704,-0.17090227)" /><path
           style="fill:none;fill-opacity:1;stroke:#000000;stroke-width:0.3;stroke-linecap:round;stroke-dasharray:none;stroke-opacity:1;paint-order:markers stroke fill"
           d="M 42.011787,47.263258 C 36.61258,46.687913 29.544985,45.54448 24.944497,48.430253"
           id="path18"
           sodipodi:nodetypes="cc"
           transform="translate(0.58349704,-0.17090227)" /><path
           style="fill:none;fill-opacity:1;stroke:#000000;stroke-width:0.3;stroke-linecap:round;stroke-dasharray:none;stroke-opacity:1;paint-order:markers stroke fill"
           d="m 42.439041,48.480311 c -5.699269,0.319975 -10.47324,2.103832 -15.598179,5.784912"
           id="path19"
           sodipodi:nodetypes="cc"
           transform="translate(0.58349704,-0.17090227)" /><path
           style="fill:none;fill-opacity:1;stroke:#000000;stroke-width:0.3;stroke-linecap:round;stroke-dasharray:none;stroke-opacity:1;paint-order:markers stroke fill"
           d="m 41.13654,47.846757 c -5.698751,0.257869 -11.148207,1.076649 -15.754419,3.792731"
           id="path20"
           sodipodi:nodetypes="cc"
           transform="translate(0.58349704,-0.17090227)" /><path
           style="fill:#e2ad6e;fill-opacity:1;stroke:#e2ad6e;stroke-width:0.3;stroke-linecap:round;stroke-dasharray:none;stroke-opacity:1;paint-order:markers stroke fill"
           d="M 69.109613,20.217141 C 71.275916,13.991779 82.675446,9.0190756 83.769239,9.9419621 c 0.931039,0.7855629 0.73577,15.1956539 -1.760857,17.4809269 -5.028214,1.279916 -5.453752,3.137261 -4.43993,4.175149 0.78702,0.805703 0.977389,-0.103977 1.9377,-0.614057 2.630545,-1.397243 -6.058936,-4.013214 -6.23171,-6.030114 -0.22049,-2.573927 -4.164829,-4.736726 -4.164829,-4.736726 z"
           id="path22"
           inkscape:label="colororejaDErecha"
           sodipodi:nodetypes="cscsssc"
           transform="translate(0.58349704,-0.17090227)" /><path
           style="fill:none;fill-opacity:1;stroke:#000000;stroke-width:0.3;stroke-linecap:round;stroke-dasharray:none;stroke-opacity:1;paint-order:markers stroke fill"
           d="m 82.273083,12.545187 c -2.853259,1.663735 -4.987536,0.811457 -6.383073,5.572543 1.584548,0.815912 5.264928,1.954736 5.357656,3.33008"
           id="path11"
           sodipodi:nodetypes="ccc"
           transform="translate(0.58349704,-0.17090227)" /></g></g><path
       style="display:inline;fill:#e1aae8;fill-opacity:1;stroke:#010101;stroke-width:0.183956;stroke-linecap:round;stroke-dasharray:none;stroke-opacity:1;paint-order:markers stroke fill"
       d="m 13.826536,9.0001851 c -3.09911,-8.46479303 6.799363,-9.95730076 10.10449,-6.404443 1.562573,1.6796934 1.937888,4.3749606 0.642424,6.3254744 -0.128214,0.1930452 0.83038,1.5184385 0.668965,1.6951865 -0.169416,0.185511 -1.460552,-0.7785384 -1.6676,-0.614833 -1.446895,1.144 -3.825905,1.70738 -7.321989,1.016766 -0.986045,-0.281873 -1.87843,-0.963101 -2.42629,-2.0181509 z"
       id="path27"
       sodipodi:nodetypes="csssscc"
       inkscape:label="globo" /><g
       id="g30"
       inkscape:label="compu"
       transform="matrix(0.92048844,0,0,0.92610404,-51.772622,-45.13865)"
       style="stroke-width:0.24167;stroke-dasharray:none"><path
         style="fill:#535353;fill-opacity:1;stroke:#000000;stroke-width:0.24167;stroke-linecap:round;stroke-dasharray:none;stroke-opacity:1;paint-order:markers stroke fill"
         d="m 76.583986,116.84528 0.875244,-2.47986 10.794695,8.60658 7.87721,-29.904222 h 44.637525 l -6.71022,29.174852 v 3.64686 l -46.825634,0.29174 z"
         id="path30"
         transform="translate(14.295678,-2.917485)"
         sodipodi:nodetypes="ccccccccc" /><path
         style="fill:none;fill-opacity:1;stroke:#030303;stroke-width:0.24167;stroke-linecap:round;stroke-dasharray:none;stroke-opacity:1;paint-order:markers stroke fill"
         d="m 101.65666,123.12824 0.90179,-2.94554 45.79567,-0.41993"
         id="path31"
         sodipodi:nodetypes="ccc" /><path
         style="fill:#868686;fill-opacity:1;stroke:none;stroke-width:0.24167;stroke-linecap:round;stroke-dasharray:none;stroke-opacity:1;paint-order:markers stroke fill"
         d="m 102.73195,117.93933 -6.819626,-5.65262 8.351306,-0.51056 z"
         id="path32"
         sodipodi:nodetypes="cccc" /><path
         style="fill:#535353;fill-opacity:1;stroke:#030303;stroke-width:0.24167;stroke-linecap:round;stroke-dasharray:none;stroke-opacity:1;paint-order:markers stroke fill"
         d="m 91.78943,110.78168 13.11278,-0.61889"
         id="path33"
         sodipodi:nodetypes="cc" /></g><path
       style="display:inline;fill:#e84cb3;fill-opacity:1;stroke:none;stroke-width:0.424109;stroke-linecap:round;stroke-dasharray:none;stroke-opacity:1;paint-order:markers stroke fill"
       d="m 20.000885,9.2239466 c -3.639483,-0.6660942 -5.141823,-4.5805838 -1.258826,-3.51725 2.241007,-4.76859643 3.415361,1.2642694 1.258826,3.51725 z"
       id="path28"
       sodipodi:nodetypes="ccc" /><path
       style="fill:none;fill-opacity:1;stroke:#fdfdfd;stroke-width:0.060587;stroke-linecap:round;stroke-dasharray:none;stroke-opacity:1;paint-order:markers stroke fill;filter:url(#filter1)"
       d="m 19.968653,5.9986007 c 0.08322,-0.099023 0.248052,-0.2764338 -0.07455,-0.6821671"
       id="path29"
       sodipodi:nodetypes="cc" /></g></svg>
