<?xml version="1.0" encoding="UTF-8" standalone="no"?>
<!-- Created with Inkscape (http://www.inkscape.org/) -->

<svg
   width="60.464832mm"
   height="72.234833mm"
   viewBox="0 0 60.464832 72.234833"
   version="1.1"
   id="svg1"
   xml:space="preserve"
   inkscape:export-filename="gatoDonador.svg"
   inkscape:export-xdpi="96"
   inkscape:export-ydpi="96"
   sodipodi:docname="gatoDonador.svg"
   xmlns:inkscape="http://www.inkscape.org/namespaces/inkscape"
   xmlns:sodipodi="http://sodipodi.sourceforge.net/DTD/sodipodi-0.dtd"
   xmlns="http://www.w3.org/2000/svg"
   xmlns:svg="http://www.w3.org/2000/svg"><sodipodi:namedview
     id="namedview1"
     pagecolor="#ffffff"
     bordercolor="#000000"
     borderopacity="0.25"
     inkscape:showpageshadow="2"
     inkscape:pageopacity="0.0"
     inkscape:pagecheckerboard="0"
     inkscape:deskcolor="#d1d1d1"
     inkscape:document-units="mm" /><defs
     id="defs1"><rect
       x="171.46648"
       y="159.21887"
       width="20.235174"
       height="28.222744"
       id="rect6" /></defs><g
     inkscape:label="Capa 1"
     inkscape:groupmode="layer"
     id="layer1"
     transform="translate(-30.877638,-14.672761)"><g
       id="g4"
       inkscape:label="caja"
       transform="translate(16.371433,-0.86165438)"><path
         style="display:inline;fill:#d0c2e3;fill-opacity:1;stroke:#000000;stroke-width:1.16847;stroke-linecap:round;stroke-opacity:1;paint-order:markers stroke fill"
         d="M 15.111401,87.177766 16.008925,61.415888 22.889955,48.6765 h 31.413409 l 8.676083,12.739388 -0.299175,25.195684 z"
         id="path1" /><path
         style="display:inline;fill:#fff400;stroke:#000000;stroke-width:0.5;stroke-linecap:round;stroke-dasharray:none;paint-order:markers stroke fill"
         d="M 16.158514,61.769762 63.054242,61.415888"
         id="path2"
         sodipodi:nodetypes="cc" /><path
         style="fill:#fff400;stroke:#000000;stroke-width:0.5;stroke-linecap:round;stroke-dasharray:none;paint-order:markers stroke fill"
         d="m 28.661631,54.736379 21.801831,-0.0019"
         id="path3"
         sodipodi:nodetypes="cc" /><path
         style="fill:#ff4b00;fill-opacity:1;stroke:#000000;stroke-width:1.16847;stroke-linecap:round;paint-order:markers stroke fill"
         d="m 40.460903,69.206123 c 1.255969,-2.6927 4.989838,-3.387596 6.070756,-3.014843 7.568044,1.641878 -0.842006,11.921079 -6.434092,16.768648 -5.057602,-4.771097 -12.007198,-13.673086 -6.981112,-16.214598 3.54833,-1.968428 6.225092,0.812964 7.344448,2.460793 z"
         id="path4"
         sodipodi:nodetypes="ccccc" /><ellipse
         style="fill:#e7d800;fill-opacity:1;stroke:#000000;stroke-width:1.19021;stroke-linecap:round;paint-order:markers stroke fill"
         id="path6"
         cx="42.953476"
         cy="34.716507"
         rx="8.9796562"
         ry="9.1977177" /><path
         style="fill:#ffffff;fill-opacity:1;stroke:#000000;stroke-width:1.16847;stroke-linecap:round;stroke-dasharray:none;paint-order:markers stroke fill"
         d="m 73.52229,38.720105 c -3.279354,2.20133 -7.867216,1.926278 -13.116031,0.400359 1.526063,-4.313053 -5.016841,-5.593809 -5.976256,-5.25473 -0.504491,0.110069 -1.309964,0.04451 -1.42795,1.95176 l 1.269291,2.101889 c -2.456078,0.289606 -5.745677,-0.998248 -6.663791,2.201985 -0.583878,5.523232 4.04,3.48481 7.086889,4.604142 -5.566791,-0.871116 -6.617197,1.153943 -6.029145,4.754279 3.233465,2.768467 4.900902,0.397417 7.086888,0.05005 -3.224829,1.850302 -4.071168,3.83706 -2.538588,5.605046 2.251659,0.883986 5.693414,-1.16557 7.615761,-3.202883 11.62203,1.262772 12.680502,-1.18717 13.557443,-1.932146"
         id="path5"
         sodipodi:nodetypes="cccccccccccc" /><text
         xml:space="preserve"
         transform="matrix(0.58531494,0,0,0.50911532,-61.057693,-47.023374)"
         id="text6"
         style="font-style:normal;font-variant:normal;font-weight:normal;font-stretch:normal;font-size:24px;line-height:0px;font-family:'Berlin Sans FB Demi';-inkscape-font-specification:'Berlin Sans FB Demi';font-variant-ligatures:none;text-decoration-color:#000000;white-space:pre;shape-inside:url(#rect6);fill:#010101;fill-opacity:1;stroke:none;stroke-width:2.8989;stroke-opacity:0.582979;-inkscape-stroke:none;paint-order:markers fill stroke;stop-color:#000000"><tspan
           x="171.4668"
           y="168.09382"
           id="tspan4"><tspan
             style="font-family:'Bernard MT Condensed';-inkscape-font-specification:'Bernard MT Condensed, '"
             id="tspan3">$</tspan></tspan></text><path
         style="fill:none;fill-opacity:1;stroke:#030103;stroke-width:0.292119;stroke-linecap:round;stroke-dasharray:none;stroke-opacity:1;paint-order:markers stroke fill"
         d="m 61.564463,52.097834 c -0.650825,-1.685135 -2.03574,-3.238852 -0.982951,-5.22897"
         id="path17"
         sodipodi:nodetypes="cc" /><path
         style="fill:none;fill-opacity:1;stroke:#030103;stroke-width:0.292119;stroke-linecap:round;stroke-dasharray:none;stroke-opacity:1;paint-order:markers stroke fill"
         d="M 64.002592,52.332356 C 63.18353,50.596557 62.51865,48.877923 63.367943,47.327854"
         id="path18"
         sodipodi:nodetypes="cc" /><path
         style="fill:none;fill-opacity:1;stroke:#030103;stroke-width:0.292119;stroke-linecap:round;stroke-dasharray:none;stroke-opacity:1;paint-order:markers stroke fill"
         d="M 66.223856,52.682674 C 65.606212,50.831006 64.559307,48.979339 65.642097,47.127671"
         id="path19"
         sodipodi:nodetypes="cc" /><path
         style="fill:none;fill-opacity:1;stroke:#030103;stroke-width:0.292119;stroke-linecap:round;stroke-dasharray:none;stroke-opacity:1;paint-order:markers stroke fill"
         d="m 71.766401,39.524469 c 0.536383,0.938425 1.437122,2.391759 0.222161,4.10005"
         id="path20"
         sodipodi:nodetypes="cc" /><path
         style="fill:none;fill-opacity:1;stroke:#030103;stroke-width:0.292119;stroke-linecap:round;stroke-dasharray:none;stroke-opacity:1;paint-order:markers stroke fill"
         d="m 68.787629,40.165069 c 0.970982,1.476264 1.012975,2.875524 -0.105761,4.904418"
         id="path21"
         sodipodi:nodetypes="cc" /><path
         style="fill:none;fill-opacity:1;stroke:#030103;stroke-width:0.292119;stroke-linecap:round;stroke-dasharray:none;stroke-opacity:1;paint-order:markers stroke fill"
         d="m 70.162698,40.081735 c 0.85268,1.280258 0.599375,2.741393 0,3.803424"
         id="path22"
         sodipodi:nodetypes="cc" /><path
         style="fill:none;fill-opacity:1;stroke:#030103;stroke-width:0.292119;stroke-linecap:round;stroke-dasharray:none;stroke-opacity:1;paint-order:markers stroke fill"
         d="m 72.845196,38.938711 c 0.848483,0.831983 1.43725,2.168687 0.581761,4.504056"
         id="path23"
         sodipodi:nodetypes="cc" /></g><path
       style="fill:none;fill-opacity:1;stroke:#000000;stroke-width:0.730297;stroke-linecap:round;stroke-dasharray:none;stroke-opacity:1;paint-order:markers stroke fill"
       d="M 67.046445,22.444576 71.70052,15.037909"
       id="path11" /><path
       style="fill:none;fill-opacity:1;stroke:#000000;stroke-width:0.730297;stroke-linecap:round;stroke-dasharray:none;stroke-opacity:1;paint-order:markers stroke fill"
       d="m 71.70052,27.248901 4.230978,-1.601443"
       id="path12" /><path
       style="fill:none;fill-opacity:1;stroke:#000000;stroke-width:0.730297;stroke-linecap:round;stroke-dasharray:none;stroke-opacity:1;paint-order:markers stroke fill"
       d="m 58.161389,20.242594 -0.634645,-4.804323 0.211552,-0.400362"
       id="path13" /><path
       style="fill:none;fill-opacity:1;stroke:#000000;stroke-width:0.730297;stroke-linecap:round;stroke-dasharray:none;stroke-opacity:1;paint-order:markers stroke fill"
       d="m 50.757179,24.446376 -7.19266,-6.605945"
       id="path14" /><path
       style="fill:none;fill-opacity:1;stroke:#000000;stroke-width:0.730297;stroke-linecap:round;stroke-dasharray:none;stroke-opacity:1;paint-order:markers stroke fill"
       d="m 46.103103,32.053225 -9.096598,-1.40126"
       id="path15" /><path
       style="fill:none;fill-opacity:1;stroke:#000000;stroke-width:0.730297;stroke-linecap:round;stroke-dasharray:none;stroke-opacity:1;paint-order:markers stroke fill"
       d="m 47.160851,40.060433 -5.711824,2.201981"
       id="path16" /></g></svg>
