<?xml version="1.0" encoding="UTF-8" standalone="no"?>
<!-- Created with Inkscape (http://www.inkscape.org/) -->

<svg
   width="91.856239mm"
   height="73.876862mm"
   viewBox="0 0 91.856239 73.876862"
   version="1.1"
   id="svg1"
   xml:space="preserve"
   inkscape:export-filename="GatosRecompenas.svg"
   inkscape:export-xdpi="96"
   inkscape:export-ydpi="96"
   sodipodi:docname="GatosRecompenas.svg"
   xmlns:inkscape="http://www.inkscape.org/namespaces/inkscape"
   xmlns:sodipodi="http://sodipodi.sourceforge.net/DTD/sodipodi-0.dtd"
   xmlns="http://www.w3.org/2000/svg"
   xmlns:svg="http://www.w3.org/2000/svg"><sodipodi:namedview
     id="namedview1"
     pagecolor="#ffffff"
     bordercolor="#000000"
     borderopacity="0.25"
     inkscape:showpageshadow="2"
     inkscape:pageopacity="0.0"
     inkscape:pagecheckerboard="0"
     inkscape:deskcolor="#d1d1d1"
     inkscape:document-units="mm"
     inkscape:zoom="0.90688833"
     inkscape:cx="221.63699"
     inkscape:cy="255.26847"
     inkscape:window-width="1366"
     inkscape:window-height="705"
     inkscape:window-x="-8"
     inkscape:window-y="-8"
     inkscape:window-maximized="1"
     inkscape:current-layer="layer1" /><defs
     id="defs1"><filter
       inkscape:collect="always"
       style="color-interpolation-filters:sRGB"
       id="filter39"
       x="-0.068209851"
       y="-0.049207233"
       width="1.1364197"
       height="1.0984145"><feGaussianBlur
         inkscape:collect="always"
         stdDeviation="0.049644802"
         id="feGaussianBlur39" /></filter><filter
       inkscape:collect="always"
       style="color-interpolation-filters:sRGB"
       id="filter40"
       x="-0.098227078"
       y="-0.060373829"
       width="1.1964542"
       height="1.1207477"><feGaussianBlur
         inkscape:collect="always"
         stdDeviation="0.049644802"
         id="feGaussianBlur40" /></filter><filter
       inkscape:collect="always"
       style="color-interpolation-filters:sRGB"
       id="filter43"
       x="-0.092401223"
       y="-0.079932971"
       width="1.1848024"
       height="1.1598659"><feGaussianBlur
         inkscape:collect="always"
         stdDeviation="0.049644802"
         id="feGaussianBlur43" /></filter><filter
       inkscape:collect="always"
       style="color-interpolation-filters:sRGB"
       id="filter44"
       x="-0.083497607"
       y="-0.093159808"
       width="1.1669952"
       height="1.1863196"><feGaussianBlur
         inkscape:collect="always"
         stdDeviation="0.049644802"
         id="feGaussianBlur44" /></filter><filter
       inkscape:collect="always"
       style="color-interpolation-filters:sRGB"
       id="filter45"
       x="-0.042489214"
       y="-0.059528001"
       width="1.0849784"
       height="1.119056"><feGaussianBlur
         inkscape:collect="always"
         stdDeviation="0.049644802"
         id="feGaussianBlur45" /></filter><filter
       inkscape:collect="always"
       style="color-interpolation-filters:sRGB"
       id="filter46"
       x="-0.052511884"
       y="-0.070161949"
       width="1.1050238"
       height="1.1403239"><feGaussianBlur
         inkscape:collect="always"
         stdDeviation="0.049644802"
         id="feGaussianBlur46" /></filter><filter
       inkscape:collect="always"
       style="color-interpolation-filters:sRGB"
       id="filter47"
       x="-0.1136637"
       y="-0.10460939"
       width="1.2273274"
       height="1.2092188"><feGaussianBlur
         inkscape:collect="always"
         stdDeviation="0.049644802"
         id="feGaussianBlur47" /></filter><filter
       inkscape:collect="always"
       style="color-interpolation-filters:sRGB"
       id="filter48"
       x="-0.090452201"
       y="-0.13006051"
       width="1.1809044"
       height="1.260121"><feGaussianBlur
         inkscape:collect="always"
         stdDeviation="0.049644802"
         id="feGaussianBlur48" /></filter><filter
       inkscape:collect="always"
       style="color-interpolation-filters:sRGB"
       id="filter49"
       x="-0.046514622"
       y="-0.083950842"
       width="1.0930292"
       height="1.1679017"><feGaussianBlur
         inkscape:collect="always"
         stdDeviation="0.049644802"
         id="feGaussianBlur49" /></filter></defs><g
     inkscape:label="Capa 1"
     inkscape:groupmode="layer"
     id="layer1"
     transform="translate(-5.0952042,-14.819483)"><g
       id="layer4"
       inkscape:label="gatito 2"
       transform="matrix(3.3838894,0.60175259,-0.2777795,3.2574449,-219.41365,-124.75708)"
       style="display:inline"><g
         inkscape:groupmode="layer"
         id="layer2-0"
         inkscape:label="manchitas"
         transform="translate(29.658273,-0.78156701)"
         style="display:inline"><path
           style="fill:#fbe09c;fill-opacity:1;stroke:#060300;stroke-width:0.25565;stroke-linecap:round;stroke-dasharray:none;paint-order:markers stroke fill"
           d="m 43.247343,37.722866 c -0.621365,-2.081717 -1.700626,-5.124653 -1.165737,-7.1225 0.167906,-0.627128 4.062378,1.052943 4.402316,2.87175 0.286419,1.532454 -1.142532,3.331255 -2.473306,4.193015 -0.224175,0.145161 -0.68891,0.30687 -0.763275,0.0578 z"
           id="path9-9"
           sodipodi:nodetypes="sssss"
           inkscape:label="orejaIZq" /><path
           style="display:inline;fill:#fbe09c;fill-opacity:1;stroke:#060300;stroke-width:0.25565;stroke-linecap:round;stroke-dasharray:none;paint-order:markers stroke fill"
           d="m 51.986885,32.09444 c 0.474759,-0.378802 3.029885,-3.147066 3.721314,-3.602701 1.140505,-0.751555 0.449156,6.983093 -0.0047,6.366074 -0.855881,-1.163518 -4.756481,-1.93368 -4.004234,-2.533886 z"
           id="path10-2"
           sodipodi:nodetypes="sssss"
           inkscape:label="orejaDere" /><path
           style="fill:#fbe09c;fill-opacity:1;stroke:#060300;stroke-width:0.25565;stroke-linecap:round;stroke-dasharray:none;paint-order:markers stroke fill"
           d="m 44.283718,51.745346 c 0.133773,-2.448057 0.218162,-2.232818 2.071985,-4.759704 l 9.333939,-2.601051 c 1.897341,1.939186 3.284669,2.355823 3.795535,4.608519 z"
           id="path11-4"
           sodipodi:nodetypes="ccccc"
           inkscape:label="cuerpo" /><g
           id="g25"
           inkscape:label="cara"
           style="display:inline"
           transform="matrix(1.4799465,-0.11194567,-0.01195678,1.5543632,8.4766623,-53.385787)"><circle
             style="display:inline;fill:#fbe09c;fill-opacity:1;stroke:#060300;stroke-width:0.168606;stroke-linecap:round;stroke-dasharray:none;paint-order:markers stroke fill"
             id="path8-4"
             cx="28.623758"
             cy="62.353374"
             r="4.9813347"
             inkscape:label="cara" /><path
             style="display:inline;fill:#f998c6;fill-opacity:1;stroke:none;stroke-width:0.0958688;stroke-linecap:round;stroke-opacity:1;paint-order:markers stroke fill"
             d="m 51.136501,42.407056 c 2.001532,2.717766 2.672053,0.361372 3.414893,-0.826796 l -1.83163,-1.193686 z"
             id="path6"
             sodipodi:nodetypes="cccc"
             transform="matrix(0.6760935,0.04869244,0.00520078,0.64372484,-7.0256601,34.11655)" /><path
             style="fill:none;stroke:#060300;stroke-width:0.168606;stroke-linecap:round;stroke-dasharray:none;paint-order:markers stroke fill"
             d="m 25.01851,61.337535 c 1.09198,-0.707913 1.760584,0.02946 2.041165,0.330812"
             id="path12-6"
             sodipodi:nodetypes="cc" /><path
             style="fill:none;stroke:#060300;stroke-width:0.168606;stroke-linecap:round;stroke-dasharray:none;paint-order:markers stroke fill"
             d="m 30.013629,61.048378 c 0.415034,-0.682332 0.961198,-0.814709 1.804657,-0.345916"
             id="path13-6"
             sodipodi:nodetypes="cc" /><path
             style="display:inline;fill:none;stroke:#060300;stroke-width:0.168606;stroke-linecap:round;stroke-dasharray:none;paint-order:markers stroke fill"
             d="m 26.476179,64.111737 c 1.833514,-0.178308 1.860597,-0.874964 2.315752,-1.604616 0.574438,0.88828 1.343845,1.26693 2.498098,0.802309"
             id="path14-1"
             sodipodi:nodetypes="ccc" /><path
             style="fill:none;fill-opacity:1;stroke:#060605;stroke-width:0.168606;stroke-linecap:round;stroke-dasharray:none;stroke-opacity:1;paint-order:markers stroke fill"
             d="m 31.55572,61.949632 c 1.053528,-0.452942 2.192392,-1.012265 3.260626,-1.331013"
             id="path16-4"
             sodipodi:nodetypes="cc" /><path
             style="fill:none;fill-opacity:1;stroke:#060605;stroke-width:0.168606;stroke-linecap:round;stroke-dasharray:none;stroke-opacity:1;paint-order:markers stroke fill"
             d="m 31.590041,62.495587 c 1.073011,-0.36823 2.156916,-0.671101 3.325788,-0.464169"
             id="path17-1"
             sodipodi:nodetypes="cc" /><path
             style="fill:none;fill-opacity:1;stroke:#060605;stroke-width:0.168606;stroke-linecap:round;stroke-dasharray:none;stroke-opacity:1;paint-order:markers stroke fill"
             d="m 25.613676,63.275457 c -1.222879,0.0016 -1.670549,-0.613822 -3.591433,0.522003"
             id="path18-00"
             sodipodi:nodetypes="cc" /><path
             style="fill:none;fill-opacity:1;stroke:#060605;stroke-width:0.168606;stroke-linecap:round;stroke-dasharray:none;stroke-opacity:1;paint-order:markers stroke fill"
             d="m 25.735596,62.714398 c -1.109148,-0.506249 -2.25666,-0.897406 -3.55863,-0.82519"
             id="path19-6"
             sodipodi:nodetypes="cc" /><path
             style="fill:#090909;fill-opacity:1;stroke:#060605;stroke-width:0.499999;stroke-linecap:round;stroke-dasharray:none;stroke-opacity:1;paint-order:markers stroke fill"
             d="m 28.726908,62.198654 c -0.152626,0.01709 -0.811346,-0.71197 -0.515745,-0.72204 0.128703,-0.0044 0.785912,-0.06135 0.928338,0 0.254592,0.109657 -0.26435,0.705442 -0.412593,0.72204 z"
             id="path20-3"
             sodipodi:nodetypes="ssss" /></g><path
           style="mix-blend-mode:normal;fill:#ab6e42;fill-opacity:1;stroke:none;stroke-width:0.3;stroke-linecap:round;paint-order:markers stroke fill;filter:url(#filter46)"
           d="m 48.87618,66.546175 c -1.008253,-0.07298 -0.06334,-0.538814 0.897591,-0.17242 1.733592,0.661004 0.591493,0.541611 0.30006,0.973118 -0.100455,0.148739 -0.200873,0.671505 -0.351635,0.574112 -0.311568,-0.201273 -0.430794,-1.344753 -0.846016,-1.37481 z"
           id="path29"
           sodipodi:nodetypes="sssss"
           transform="matrix(1.4799465,-0.11194567,-0.01195678,1.5543632,-26.932001,-53.09486)" /><path
           style="mix-blend-mode:normal;fill:#ab6e42;fill-opacity:1;stroke:none;stroke-width:0.3;stroke-linecap:round;paint-order:markers stroke fill;filter:url(#filter45)"
           d="m 53.538696,68.746173 c 0.01364,0.376791 0.233164,-0.733503 0.464169,-1.031486 0.06744,-0.087 -0.928338,0.25787 0.257871,-0.206299 1.186212,-0.464169 0.571051,-0.720596 1.124715,-0.68298 0.168927,0.01148 0.566771,0.06946 0.445934,0.188064 -0.125709,0.123384 1.296075,-0.666047 -0.123975,0.570447 -1.664638,1.449468 -2.173538,1.029007 -2.168714,1.162254 z"
           id="path30"
           sodipodi:nodetypes="sssssss"
           transform="matrix(1.4799465,-0.11194567,-0.01195678,1.5543632,-26.932001,-53.09486)" /><path
           style="mix-blend-mode:normal;fill:#ab6e42;fill-opacity:1;stroke:none;stroke-width:0.3;stroke-linecap:round;paint-order:markers stroke fill;filter:url(#filter44)"
           d="m 49.230943,59.580511 c -0.529007,0.254653 -0.47474,0.613727 -0.643384,-0.581887 -0.06892,-0.488611 0.224497,-0.363114 0.412597,-0.412594 0.310596,-0.0817 0.716359,0.0166 0.928338,0.257871 0.08023,0.09132 0.09553,0.247685 0.05157,0.361021 -0.136906,0.352981 -0.407987,0.211374 -0.749121,0.375589 z"
           id="path31"
           sodipodi:nodetypes="ssssss"
           transform="matrix(1.4799465,-0.11194567,-0.01195678,1.5543632,-26.932001,-53.09486)" /><path
           style="mix-blend-mode:normal;fill:#ab6e42;fill-opacity:1;stroke:none;stroke-width:0.3;stroke-linecap:round;paint-order:markers stroke fill;filter:url(#filter43)"
           d="m 55.189074,58.947049 c 0.07965,0.04344 0.249099,0.594295 0.515745,0.722042 0.279502,0.133906 0.159826,0.536482 0.428915,0.382718 0.161453,-0.09226 0.316812,-0.681766 0.341502,-0.866075 0.02165,-0.161649 -0.06448,-0.557827 -0.225007,-0.586709 -0.336538,-0.06055 -0.364635,0.727933 -0.919322,0.425386 z"
           id="path32"
           sodipodi:nodetypes="sssssss"
           transform="matrix(1.4799465,-0.11194567,-0.01195678,1.5543632,-26.932001,-53.09486)" /><path
           style="mix-blend-mode:normal;fill:#ab6e42;fill-opacity:1;stroke:none;stroke-width:0.3;stroke-linecap:round;paint-order:markers stroke fill;filter:url(#filter40)"
           d="m 56.581582,64.620226 c -0.100127,-0.274568 0.866832,-0.712358 1.083062,-0.515743 0.268316,0.243976 0.03258,1.262508 -0.103149,1.598804 -0.05932,0.146978 -0.207674,0.26937 -0.361021,0.309446 -0.08481,0.02216 -0.277249,0.03389 -0.257871,-0.05157 0.07175,-0.316404 -0.227037,-0.973529 -0.361021,-1.340937 z"
           id="path35"
           sodipodi:nodetypes="ssssss"
           transform="matrix(1.4799465,-0.11194567,-0.01195678,1.5543632,-27.608663,-53.041117)" /><path
           style="mix-blend-mode:normal;fill:#ab6e42;fill-opacity:1;stroke:none;stroke-width:0.3;stroke-linecap:round;paint-order:markers stroke fill;filter:url(#filter39)"
           d="m 50.908405,61.371042 c -0.178738,0.223428 0.179198,0.696385 0.464169,0.722043 0.351318,0.03163 0.592691,-0.445449 0.722042,-0.773616 0.163909,-0.41584 0.742653,-1.245815 0.412595,-1.547229 -0.280432,-0.256095 -1.285582,0.03419 -1.547231,0.309445 -0.296343,0.311756 0.423412,0.695609 0.154717,1.031485 z"
           id="path36"
           sodipodi:nodetypes="sssssss"
           transform="matrix(1.4799465,-0.11194567,-0.01195678,1.5543632,-26.932001,-53.09486)" /><path
           style="mix-blend-mode:normal;fill:#ab6e42;fill-opacity:1;stroke:none;stroke-width:0.3;stroke-linecap:round;paint-order:markers stroke fill;filter:url(#filter47)"
           d="m 48.94858,69.674511 c 0.151657,-0.140905 0.459037,-0.183102 0.618892,-0.05157 0.240424,0.197827 0.226775,0.642585 0.103148,0.928339 -0.06826,0.157781 -0.278238,-0.27514 -0.449063,-0.255817 -0.168243,0.01903 -0.346825,0.507713 -0.4277,0.358964 -0.157954,-0.290523 -0.08754,-0.754831 0.154723,-0.979916 z"
           id="path37"
           sodipodi:nodetypes="ssssss"
           transform="matrix(1.4799465,-0.11194567,-0.01195678,1.5543632,-26.932001,-53.09486)" /><path
           style="mix-blend-mode:normal;fill:#ab6e42;fill-opacity:1;stroke:none;stroke-width:0.3;stroke-linecap:round;paint-order:markers stroke fill;filter:url(#filter48)"
           d="m 52.765081,69.261917 c -0.161699,0.225811 0.0674,0.637408 0.309446,0.773615 0.273398,0.153852 0.780831,0.12215 0.928338,-0.154723 0.09767,-0.18333 -0.10865,-0.711823 -0.25787,-0.567317 -0.596996,0.578139 -0.979914,-0.317513 -0.979914,-0.05157 z"
           id="path38"
           sodipodi:nodetypes="ssssss"
           transform="matrix(1.4799465,-0.11194567,-0.01195678,1.5543632,-26.932001,-53.09486)" /><path
           style="mix-blend-mode:normal;fill:#ab6e42;fill-opacity:1;stroke:none;stroke-width:0.3;stroke-linecap:round;paint-order:markers stroke fill;filter:url(#filter49)"
           d="m 56.26275,69.989678 c -0.31048,0.101458 -0.415815,-0.750937 -0.145337,-0.934059 0.153323,-0.103805 0.642518,0.391262 0.82519,0.361021 0.156369,-0.02589 0.286363,-0.169633 0.361021,-0.309446 0.531259,-0.994885 0.515889,-0.325179 0.518336,-0.0068 0.002,0.262409 -0.404085,0.593243 -0.141674,0.594939 0.332,0.0021 0.850991,-0.247048 0.843426,0.06981 -0.01211,0.507179 -1.602627,0.0094 -2.260962,0.224535 z"
           id="path39"
           sodipodi:nodetypes="ssssssss"
           transform="matrix(1.4799465,-0.11194567,-0.01195678,1.5543632,-26.932001,-53.09486)" /></g></g><path
       style="fill:#fbe09c;fill-opacity:1;stroke:#000000;stroke-width:0.855184;stroke-linecap:round;stroke-dasharray:none;stroke-opacity:1;paint-order:markers stroke fill"
       d="m 60.397687,71.397064 c 3.080651,1.2404 6.161302,-1.948169 9.241953,-3.468907 l 3.740477,2.99436 c -1.718032,3.31565 -4.496978,7.705376 -7.448224,9.57887 z"
       id="path8"
       sodipodi:nodetypes="ccccc" /><g
       inkscape:groupmode="layer"
       id="layer2"
       inkscape:label="copa"
       style="display:inline"
       transform="matrix(3.3319016,0.53481256,-0.27351188,2.8950809,-215.98838,-109.20514)"><path
         style="fill:#da9d25;fill-opacity:1;stroke:#060605;stroke-width:0.273285;stroke-linecap:round;stroke-dasharray:none;stroke-opacity:1;paint-order:markers stroke fill"
         d="m 87.519597,35.134213 c -0.203679,3.540328 -0.842071,7.417959 1.906281,8.667751 3.780706,-0.16893 4.527189,-3.92217 5.540185,-7.197068 z"
         id="path1"
         sodipodi:nodetypes="cccc" /><path
         style="fill:#da9d25;fill-opacity:1;stroke:#060605;stroke-width:0.273285;stroke-linecap:round;stroke-dasharray:none;stroke-opacity:1;paint-order:markers stroke fill"
         d="m 87.415864,33.870544 c 0.344197,-0.08162 7.992841,1.418203 8.067337,1.756875 0.08346,0.379427 -0.352557,1.067339 -0.352557,1.067339 l -7.933726,-1.66129 c 0,0 -0.08646,-1.090506 0.218946,-1.162924 z"
         id="path2"
         sodipodi:nodetypes="ssccs" /><path
         style="fill:#da9d25;fill-opacity:1;stroke:#060605;stroke-width:0.273285;stroke-linecap:round;stroke-dasharray:none;stroke-opacity:1;paint-order:markers stroke fill"
         d="m 95.037731,36.711923 c 0.6703,-0.188227 1.725644,-0.273391 1.802466,0.508886 0.226134,2.302695 -2.053201,6.32233 -4.711538,5.801249 l 1.190578,-1.582944 c 2.091095,-0.916831 2.162457,-2.755766 2.324249,-3.476086 l -0.944447,-0.206371 z"
         id="path3"
         sodipodi:nodetypes="csccccc" /><path
         style="fill:#da9d25;fill-opacity:1;stroke:#060605;stroke-width:0.273285;stroke-linecap:round;stroke-dasharray:none;stroke-opacity:1;paint-order:markers stroke fill"
         d="m 87.588023,35.201749 c -0.05557,0.344337 0.05843,-0.302557 -0.166729,1.033011 l -1.08544,-0.20037 c -0.560009,0.157261 -0.45608,3.946664 1.008423,4.624328 l 0.530498,1.866335 c -0.97944,-0.250612 -3.030382,-2.237507 -3.047491,-4.568355 -0.0069,-0.94237 0.13834,-1.995835 0.591304,-2.755071 0.481608,-0.472386 1.292542,-0.300636 2.169435,1.24e-4 z"
         id="path4"
         sodipodi:nodetypes="cccccsccc" /><path
         style="fill:#da9d25;fill-opacity:1;stroke:#060605;stroke-width:0.273285;stroke-linecap:round;stroke-dasharray:none;stroke-opacity:1;paint-order:markers stroke fill"
         d="m 88.699127,43.37498 -0.748308,3.906551 -1.261543,-0.04757 -0.760572,2.225102 -0.598531,0.751983 5.347253,1.17697 -0.263627,-0.913422 0.332012,-2.46664 -1.406585,-0.473739 0.03286,-0.174482 0.930718,-3.599494 z"
         id="path5"
         sodipodi:nodetypes="cccccccccccc" /><path
         sodipodi:type="star"
         style="fill:#fff400;fill-opacity:1;stroke:#000000;stroke-width:0.25565;stroke-linecap:round;stroke-dasharray:none;stroke-opacity:1;paint-order:markers stroke fill"
         id="path12"
         inkscape:flatsided="false"
         sodipodi:sides="5"
         sodipodi:cx="272.11758"
         sodipodi:cy="54.57946"
         sodipodi:r1="19.147139"
         sodipodi:r2="10.893351"
         sodipodi:arg1="1.072013"
         sodipodi:arg2="1.7953699"
         inkscape:rounded="0.43"
         inkscape:randomized="0"
         d="m 281.27676,71.393811 c -5.19482,2.219193 -5.98336,-5.464902 -11.58502,-6.194541 -4.78724,-0.623558 -7.55959,6.923203 -10.73521,3.287005 -3.71587,-4.254801 3.34847,-7.379263 2.31139,-12.932231 -0.8863,-4.745625 -8.9204,-5.050212 -6.44349,-9.194051 2.89829,-4.848804 8.05283,0.904267 13.01354,-1.798016 4.23947,-2.309401 2.04648,-10.044406 6.75291,-8.969241 5.50711,1.258075 1.62845,7.93813 5.73142,11.820995 3.50644,3.318338 10.1852,-1.157572 10.61702,3.650755 0.50529,5.626337 -7.04639,4.001768 -9.47132,9.103794 -2.07238,4.360245 4.24831,9.328986 -0.19124,11.225531 z"
         transform="matrix(0.07851219,0.01484513,-0.0147049,0.10126885,69.657991,29.436225)"
         inkscape:transform-center-x="-0.28587798"
         inkscape:transform-center-y="-0.044200457" /></g><ellipse
       style="fill:#fbe09c;fill-opacity:1;stroke:#000000;stroke-width:0.855185;stroke-linecap:round;stroke-dasharray:none;stroke-opacity:1;paint-order:markers stroke fill"
       id="path9"
       ry="4.1583719"
       rx="4.8645802"
       cy="67.585922"
       cx="70.427345" /><path
       style="fill:none;fill-opacity:1;stroke:#000000;stroke-width:0.427593;stroke-linecap:round;stroke-dasharray:none;stroke-opacity:1;paint-order:markers stroke fill"
       d="m 65.46883,66.781894 c 1.068442,-1.385673 2.445908,-1.585301 3.709924,-1.454262"
       id="path10"
       sodipodi:nodetypes="cc" /><path
       style="fill:none;fill-opacity:1;stroke:#000000;stroke-width:0.427593;stroke-linecap:round;stroke-dasharray:none;stroke-opacity:1;paint-order:markers stroke fill"
       d="m 65.601957,68.187582 c 0.733692,-0.98187 1.812342,-1.275831 3.037987,-1.276654"
       id="path11"
       sodipodi:nodetypes="cc" /></g></svg>
