<?xml version="1.0" encoding="UTF-8" standalone="no"?>
<!-- Created with Inkscape (http://www.inkscape.org/) -->

<svg
   width="100mm"
   height="100mm"
   viewBox="0 0 150 150"
   version="1.1"
   id="svg1"
   xml:space="preserve"
   inkscape:version="1.3.2 (091e20e, 2023-11-25, custom)"
   sodipodi:docname="modobienstar.svg"
   inkscape:export-filename="modobienstar.svg"
   inkscape:export-xdpi="96"
   inkscape:export-ydpi="96"
   xmlns:inkscape="http://www.inkscape.org/namespaces/inkscape"
   xmlns:sodipodi="http://sodipodi.sourceforge.net/DTD/sodipodi-0.dtd"
   xmlns="http://www.w3.org/2000/svg"
   xmlns:svg="http://www.w3.org/2000/svg"><sodipodi:namedview
     id="namedview1"
     pagecolor="#ffbbbb"
     bordercolor="#000000"
     borderopacity="0.25"
     inkscape:showpageshadow="2"
     inkscape:pageopacity="0.0"
     inkscape:pagecheckerboard="0"
     inkscape:deskcolor="#d1d1d1"
     inkscape:document-units="mm"
     inkscape:zoom="2.5650676"
     inkscape:cx="248.33654"
     inkscape:cy="367.43671"
     inkscape:window-width="1366"
     inkscape:window-height="705"
     inkscape:window-x="-8"
     inkscape:window-y="-8"
     inkscape:window-maximized="1"
     inkscape:current-layer="layer7"
     showguides="false" /><defs
     id="defs1"><filter
       inkscape:collect="always"
       style="color-interpolation-filters:sRGB"
       id="filter14"
       x="-0.20118437"
       y="-0.25148044"
       width="1.4023687"
       height="1.5029609"><feGaussianBlur
         inkscape:collect="always"
         stdDeviation="0.48912698"
         id="feGaussianBlur14" /></filter><filter
       inkscape:collect="always"
       style="color-interpolation-filters:sRGB"
       id="filter15"
       x="-0.11168384"
       y="-0.12931812"
       width="1.2233677"
       height="1.2586362"><feGaussianBlur
         inkscape:collect="always"
         stdDeviation="0.29868293"
         id="feGaussianBlur15" /></filter></defs><g
     inkscape:label="Capa 1"
     inkscape:groupmode="layer"
     id="layer1"><g
       inkscape:groupmode="layer"
       id="layer7"
       inkscape:label="gato"
       transform="translate(8.1689591,9.3359528)"
       style="stroke-width:0.988066;stroke-dasharray:none"><path
         style="fill:#ffffff;fill-opacity:1;stroke:#000000;stroke-width:0.3;stroke-linecap:round;stroke-dasharray:none;stroke-opacity:1;paint-order:markers stroke fill"
         d="M 37.045719,112.25625 C 35.61713,101.60503 33.200637,89.148973 31.446964,88.336135 29.621263,86.26207 3.984221,67.744205 3.2932247,63.874424 2.6022284,60.004644 3.4732215,53.794261 9.3718729,53.764788 15.270525,53.735318 41.450243,81.724314 63.759779,76.872529 88.175098,73.751102 100.78304,41.605053 108.54982,37.517159 c 5.09845,-2.683472 10.34136,4.665346 8.63808,11.553869 -7.43348,17.721085 -18.449235,22.385624 -27.833815,36.466902 l 0.959788,25.9962 z"
         id="path1"
         inkscape:label="cuerpo"
         sodipodi:nodetypes="cczzcscccc"
         sodipodi:insensitive="true" /><path
         style="fill:#e2ad6e;fill-opacity:1;stroke:#e2ad6e;stroke-width:0.988066;stroke-linecap:round;stroke-dasharray:none;stroke-opacity:1;paint-order:markers stroke fill"
         d="m 108.71045,38.825801 c -1.53562,0.756053 -2.00866,3.986897 -3.43322,4.984754 -2.18228,1.528623 0.1564,2.398671 9.43481,5.020146 1.47482,0.41669 -0.53302,-1.133956 0.33876,-2.39441 1.12145,-1.621436 -0.30833,-6.828675 -1.82343,-7.731335 -3.59271,-2.140462 -2.66215,-0.792343 -4.51692,0.120845 z"
         id="path26"
         sodipodi:nodetypes="ssssss"
         inkscape:label="manchaMANOderecha" /><ellipse
         style="fill:#604949;fill-opacity:1;stroke-width:0.988066;stroke-linecap:round;stroke-dasharray:none;paint-order:markers stroke fill"
         id="path9-2-7"
         cx="108.31635"
         cy="43.449196"
         rx="1.6434932"
         ry="1.7617475" /><ellipse
         style="fill:#604949;fill-opacity:1;stroke-width:0.988066;stroke-linecap:round;stroke-dasharray:none;paint-order:markers stroke fill"
         id="path9-2-4"
         cx="112.50216"
         cy="-42.523857"
         rx="1.6434932"
         ry="1.7617475"
         transform="rotate(41.813963)" /><ellipse
         style="fill:#604949;fill-opacity:1;stroke-width:0.988066;stroke-linecap:round;stroke-dasharray:none;paint-order:markers stroke fill"
         id="path9-2-9"
         cx="112.98183"
         cy="47.241432"
         rx="1.6434932"
         ry="1.597639" /><ellipse
         style="fill:#604949;fill-opacity:1;stroke-width:0.988066;stroke-linecap:round;stroke-dasharray:none;paint-order:markers stroke fill"
         id="path9-2-9-2"
         cx="117.7521"
         cy="-14.418198"
         rx="2.3139596"
         ry="2.8448086"
         transform="rotate(31.133693)" /><ellipse
         style="fill:#604949;fill-opacity:1;stroke-width:0.988066;stroke-linecap:round;stroke-dasharray:none;paint-order:markers stroke fill"
         id="path9-2"
         cx="-31.692133"
         cy="54.698872"
         rx="1.6434932"
         ry="1.7617475"
         transform="rotate(-36.260394)" /><ellipse
         style="fill:#604949;fill-opacity:1;stroke-width:0.988066;stroke-linecap:round;stroke-dasharray:none;paint-order:markers stroke fill"
         id="path9-2-2"
         cx="-0.34013438"
         cy="58.57748"
         rx="1.6434932"
         ry="1.7617475"
         transform="rotate(-11.547156)" /><ellipse
         style="fill:#604949;fill-opacity:1;stroke-width:0.988066;stroke-linecap:round;stroke-dasharray:none;paint-order:markers stroke fill"
         id="path9-2-0"
         cx="-20.836794"
         cy="55.101719"
         rx="1.6434932"
         ry="1.7617475"
         inkscape:transform-center-x="-0.20006175"
         inkscape:transform-center-y="0.066466448"
         transform="rotate(-28.092688)" /><path
         style="fill:#e2ad6e;fill-opacity:1;stroke:#e2ad6e;stroke-width:0.988066;stroke-linecap:round;stroke-dasharray:none;stroke-opacity:1;paint-order:markers stroke fill"
         d="m 49.888996,78.188604 c -0.708599,-0.963694 6.75089,8.600677 8.314833,13.712179 0.58398,1.908645 -0.151874,4.034783 0.291748,5.980845 0.527895,2.315752 0.399839,6.691122 2.771611,6.564342 3.702012,-0.19788 3.055289,-6.944721 3.209234,-10.64882 0.09702,-2.334505 -1.649364,-4.527361 -1.458743,-6.856093 0.29393,-3.590819 5.711135,-10.699536 3.938606,-10.065324 -4.366238,1.562242 -16.439607,2.166519 -17.067289,1.312871 z"
         id="path24"
         sodipodi:nodetypes="saaaaass" /><path
         style="fill:#e2ad6e;fill-opacity:1;stroke:#e2ad6e;stroke-width:0.988066;stroke-linecap:round;stroke-dasharray:none;stroke-opacity:1;paint-order:markers stroke fill"
         d="m 39.364363,109.99744 c 0.186369,1.60779 -2.193536,-3.61818 -1.031488,-4.74484 0.203561,-0.19736 0.696369,-0.0463 0.82519,0.2063 0.585149,1.14728 0.171714,4.24019 0.206298,4.53854 z"
         id="path25"
         sodipodi:nodetypes="sass" /><g
         id="g2"
         inkscape:label="CARA"
         transform="translate(-1.166994,1.046148)"
         style="stroke-width:0.3;stroke-dasharray:none;display:inline"
         inkscape:transform-center-x="2.4863037"
         inkscape:transform-center-y="2.3625736"><path
           style="fill:#ffffff;fill-opacity:1;stroke:#000000;stroke-width:0.3;stroke-linecap:round;stroke-dasharray:none;stroke-opacity:1;paint-order:markers stroke fill"
           d="M 28.591356,41.428291 C 25.949583,38.938793 17.49995,28.132436 17.213163,25.090373 c -0.449812,-4.771335 15.50062,-2.19824 17.781997,-0.427256 4.864586,3.776274 -1.921988,20.988652 -6.403804,16.765174 z"
           id="path3"
           sodipodi:nodetypes="ssss"
           inkscape:label="oreja izquierda" /><path
           style="fill:#ffffff;fill-opacity:1;stroke:#000000;stroke-width:0.3;stroke-linecap:round;stroke-dasharray:none;stroke-opacity:1;paint-order:markers stroke fill"
           d="M 70.788707,16.856697 C 71.119424,14.385951 78.527253,8.5376752 83.696431,7.279052 88.950146,5.9998452 87.536335,30.146703 82.508705,28.028593 77.306062,25.836751 70.03972,22.452292 70.788707,16.856697 Z"
           id="path4"
           sodipodi:nodetypes="ssss"
           inkscape:label="orejaderecha" /><path
           style="fill:#ffffff;fill-opacity:1;stroke:#000000;stroke-width:0.3;stroke-linecap:round;stroke-dasharray:none;stroke-opacity:1;paint-order:markers stroke fill"
           d="M 42.911208,73.334574 C 32.473415,65.49024 26.754096,49.166205 29.613309,36.389806 c 2.042263,-9.12585 8.67925,-15.52322 19.827104,-19.765396 13.090969,-4.981604 25.628428,0.565291 33.857981,9.733216 6.785928,7.55969 10.063232,20.610571 7.340844,29.707507 -2.756847,9.212085 -12.673528,15.778632 -21.745481,18.856411 -8.220724,2.788989 -19.034699,3.634561 -25.982549,-1.58697 z"
           id="path2"
           inkscape:label="CARA"
           sodipodi:nodetypes="aasssaa" /><path
           style="display:inline;fill:#e2ad6e;fill-opacity:1;stroke:#e2ad6e;stroke-width:0.988066;stroke-linecap:round;stroke-dasharray:none;stroke-opacity:1;paint-order:markers stroke fill"
           d="m 31.460346,56.422327 c 0,0 1.307646,-0.984502 3.132892,-0.178232 1.845992,0.815434 -2.382922,3.371268 6.073129,5.902982 1.823545,0.545963 3.145536,3.334047 2.449781,5.105859 -0.254208,0.647367 0.830884,4.617649 -0.02411,5.0064 -1.375638,0.625478 -4.308136,-2.995 -4.308136,-2.995 -2.681106,-3.838002 -4.463056,-7.070589 -6.962535,-10.779035 z"
           id="path23"
           sodipodi:nodetypes="cssssccc"
           transform="translate(0.58349699,-0.17090234)" /><path
           style="display:inline;fill:#e2ad6e;fill-opacity:1;stroke:#e2ad6e;stroke-width:0.3;stroke-linecap:round;stroke-dasharray:none;stroke-opacity:1;paint-order:markers stroke fill"
           d="m 34.761103,25.116703 c -4.686343,-0.884989 -17.319298,-2.657664 -17.401914,0.03021 -0.09702,3.156417 7.703865,11.678895 11.294781,16.349066 0.896063,1.165376 0.952289,3.47615 2.393781,3.631568 1.982276,0.213724 3.368146,-2.404844 4.280672,-4.177524 0.539125,-1.047309 0.179194,-2.370845 0.539251,-3.492393 0.425631,-1.325807 1.372043,-2.433384 1.884741,-3.728015 0.560826,-1.41616 1.549114,-2.882964 1.289361,-4.383819 -0.19938,-1.152019 -1.208596,-2.038506 -2.062975,-2.836588 -0.637876,-0.595846 0.425378,-0.893376 -2.217698,-1.392506 z"
           id="path21"
           sodipodi:nodetypes="sssaaaaaas"
           inkscape:label="color oreja"
           transform="translate(0.58349705,-0.1709023)" /><path
           style="fill:none;stroke:#000000;stroke-width:0.3;stroke-linecap:round;stroke-dasharray:none;stroke-opacity:1;paint-order:markers stroke fill"
           d="m 41.574164,41.42829 c 2.677503,-4.183231 5.691221,-3.323255 8.752457,-1.750491"
           id="path5"
           sodipodi:nodetypes="cc" /><path
           style="fill:none;stroke:#000000;stroke-width:0.3;stroke-linecap:round;stroke-dasharray:none;stroke-opacity:1;paint-order:markers stroke fill"
           d="m 65.059921,38.073182 c 2.874849,-5.60387 7.001602,-3.953688 8.752456,-2.917484"
           id="path6"
           sodipodi:nodetypes="cc" /><path
           style="fill:none;stroke:#000000;stroke-width:0.3;stroke-linecap:round;stroke-dasharray:none;stroke-opacity:1;paint-order:markers stroke fill"
           d="m 50.476789,57.972504 c 6.182252,3.985165 9.0683,-1.497648 10.850825,-3.554073 5.534801,6.428448 9.993431,1.085972 10.815428,-0.769061"
           id="path7"
           sodipodi:nodetypes="ccc" /><path
           style="fill:#0a0707;fill-opacity:1;stroke-width:0.3;stroke-linecap:round;stroke-dasharray:none;paint-order:markers stroke fill"
           d="m 57.407753,49.708665 c -0.344083,-2.1919 5.525872,-2.981035 6.576547,-1.026834 0.778557,1.448073 -1.233143,5.14089 -2.547185,5.504343 -1.44033,0.398384 -3.737416,-2.61774 -4.029362,-4.477509 z"
           id="path8"
           sodipodi:nodetypes="ssss" /><ellipse
           style="fill:#604949;fill-opacity:1;stroke-width:0.988066;stroke-linecap:round;stroke-dasharray:none;paint-order:markers stroke fill"
           id="path9"
           cx="12.94516"
           cy="63.539581"
           rx="3.8680756"
           ry="4.0227985"
           transform="translate(0.58349704,-0.17090227)" /><path
           style="fill:none;fill-opacity:1;stroke:#000000;stroke-width:0.3;stroke-linecap:round;stroke-dasharray:none;stroke-opacity:1;paint-order:markers stroke fill"
           d="m 21.558074,26.715508 c 4.370576,-0.939197 4.465815,-0.745535 7.73615,1.340931 -1.495907,1.557881 -2.196201,4.342455 -1.54723,6.704666"
           id="path12"
           sodipodi:nodetypes="ccc"
           transform="translate(0.58349704,-0.17090227)" /><ellipse
           style="fill:#ffe4e4;fill-opacity:1;stroke:none;stroke-width:0.988066;stroke-linecap:round;stroke-dasharray:none;stroke-opacity:1;paint-order:markers stroke fill;filter:url(#filter15)"
           id="path13"
           cx="42.887035"
           cy="47.700882"
           rx="3.2092335"
           ry="2.771611"
           transform="translate(0.58349704,-0.17090227)" /><ellipse
           style="fill:#ffe5e5;fill-opacity:1;stroke:none;stroke-width:0.988066;stroke-linecap:round;stroke-dasharray:none;stroke-opacity:1;paint-order:markers stroke fill;filter:url(#filter14)"
           id="path14"
           cx="75.854614"
           cy="43.17878"
           rx="2.917485"
           ry="2.3339882"
           transform="translate(0.58349704,-0.17090227)" /><path
           style="fill:none;fill-opacity:1;stroke:#000000;stroke-width:0.3;stroke-linecap:round;stroke-dasharray:none;stroke-opacity:1;paint-order:markers stroke fill"
           d="m 92.776027,31.946461 c -4.414425,1.266 -13.466906,5.378412 -16.337917,10.502949 5.894883,-4.593301 14.208704,-5.272023 17.796662,-5.251473"
           id="path15"
           sodipodi:nodetypes="ccc"
           transform="translate(0.58349704,-0.17090227)" /><path
           style="fill:none;fill-opacity:1;stroke:none;stroke-width:0.3;stroke-linecap:round;stroke-dasharray:none;stroke-opacity:1;paint-order:markers stroke fill"
           d="M 77.313358,44.345775 91.900784,38.802553"
           id="path16"
           transform="translate(0.58349704,-0.17090227)" /><path
           style="fill:none;fill-opacity:1;stroke:#000000;stroke-width:0.3;stroke-linecap:round;stroke-dasharray:none;stroke-opacity:1;paint-order:markers stroke fill"
           d="M 75.562867,42.011787 C 79.098305,33.666687 85.875374,30.135265 90.150291,28.44548"
           id="path17"
           sodipodi:nodetypes="cc"
           transform="translate(0.58349704,-0.17090227)" /><path
           style="fill:none;fill-opacity:1;stroke:#000000;stroke-width:0.3;stroke-linecap:round;stroke-dasharray:none;stroke-opacity:1;paint-order:markers stroke fill"
           d="M 42.011787,47.263258 C 36.61258,46.687913 29.544985,45.54448 24.944497,48.430253"
           id="path18"
           sodipodi:nodetypes="cc"
           transform="translate(0.58349704,-0.17090227)" /><path
           style="fill:none;fill-opacity:1;stroke:#000000;stroke-width:0.3;stroke-linecap:round;stroke-dasharray:none;stroke-opacity:1;paint-order:markers stroke fill"
           d="m 42.439041,48.480311 c -5.699269,0.319975 -10.47324,2.103832 -15.598179,5.784912"
           id="path19"
           sodipodi:nodetypes="cc"
           transform="translate(0.58349704,-0.17090227)" /><path
           style="fill:none;fill-opacity:1;stroke:#000000;stroke-width:0.3;stroke-linecap:round;stroke-dasharray:none;stroke-opacity:1;paint-order:markers stroke fill"
           d="m 41.13654,47.846757 c -5.698751,0.257869 -11.148207,1.076649 -15.754419,3.792731"
           id="path20"
           sodipodi:nodetypes="cc"
           transform="translate(0.58349704,-0.17090227)" /><path
           style="fill:#e2ad6e;fill-opacity:1;stroke:#e2ad6e;stroke-width:0.3;stroke-linecap:round;stroke-dasharray:none;stroke-opacity:1;paint-order:markers stroke fill"
           d="M 69.109613,20.217141 C 71.275916,13.991779 84.134189,8.5814528 85.227982,9.5043393 c 0.931039,0.7855627 0.371084,15.6332767 -2.125543,17.9185497 0.06987,0.249503 1.404117,2.834072 0.448636,3.762554 -0.807747,0.784923 -3.011487,0.136752 -4.044923,-0.201462 -1.857344,-0.607857 -6.071589,-4.009934 -6.23171,-6.030114 -0.204119,-2.575277 -4.164829,-4.736726 -4.164829,-4.736726 z"
           id="path22"
           inkscape:label="colororejaDErecha"
           sodipodi:nodetypes="cscsssc"
           transform="translate(0.58349704,-0.17090227)" /><path
           style="fill:none;fill-opacity:1;stroke:#000000;stroke-width:0.3;stroke-linecap:round;stroke-dasharray:none;stroke-opacity:1;paint-order:markers stroke fill"
           d="m 82.273083,12.545187 c -2.853259,1.663735 -4.987536,0.811457 -6.383073,5.572543 1.584548,0.815912 5.264928,1.954736 5.357656,3.33008"
           id="path11"
           sodipodi:nodetypes="ccc"
           transform="translate(0.58349704,-0.17090227)" /></g></g><path
       style="display:inline;fill:#e1aae8;fill-opacity:1;stroke:#010101;stroke-width:0.3;stroke-linecap:round;stroke-dasharray:none;stroke-opacity:1;paint-order:markers stroke fill"
       d="m 106.98895,34.734819 2.88816,-3.919649 c -4.74309,-14.70975 10.40619,-17.303376 15.46457,-11.129363 4.61257,5.629876 2.46543,17.825136 -11.75122,14.636418 z"
       id="path27"
       sodipodi:nodetypes="ccscc"
       inkscape:label="globo" /><g
       id="g30"
       inkscape:label="compu"
       transform="matrix(1.2417622,0,0,1.2409591,-51.750079,-15.42651)"
       style="stroke-width:0.24167;stroke-dasharray:none"><path
         style="fill:#535353;fill-opacity:1;stroke:#000000;stroke-width:0.24167;stroke-linecap:round;stroke-dasharray:none;stroke-opacity:1;paint-order:markers stroke fill"
         d="m 76.583986,116.84528 0.875244,-2.47986 10.794695,8.60658 7.87721,-29.904222 h 44.637525 l -6.71022,29.174852 v 3.64686 l -46.825634,0.29174 z"
         id="path30"
         transform="translate(14.295678,-2.917485)"
         sodipodi:nodetypes="ccccccccc" /><path
         style="fill:none;fill-opacity:1;stroke:#030303;stroke-width:0.24167;stroke-linecap:round;stroke-dasharray:none;stroke-opacity:1;paint-order:markers stroke fill"
         d="m 101.65666,123.12824 0.90179,-2.94554 45.79567,-0.41993"
         id="path31"
         sodipodi:nodetypes="ccc" /><path
         style="fill:#868686;fill-opacity:1;stroke:none;stroke-width:0.24167;stroke-linecap:round;stroke-dasharray:none;stroke-opacity:1;paint-order:markers stroke fill"
         d="m 102.73195,117.93933 -6.819626,-5.65262 8.351306,-0.51056 z"
         id="path32"
         sodipodi:nodetypes="cccc" /><path
         style="fill:#535353;fill-opacity:1;stroke:#030303;stroke-width:0.24167;stroke-linecap:round;stroke-dasharray:none;stroke-opacity:1;paint-order:markers stroke fill"
         d="m 91.78943,110.78168 13.11278,-0.61889"
         id="path33"
         sodipodi:nodetypes="cc" /></g><path
       style="display:inline;fill:#e84cb3;fill-opacity:1;stroke:none;stroke-width:0.69164607;stroke-linecap:round;stroke-dasharray:none;stroke-opacity:1;paint-order:markers stroke fill"
       d="m 116.06604,30.505724 c -3.23587,-5.276376 -0.64823,-11.943925 2.42399,-5.879477 7.57512,-3.139274 2.34756,5.739927 -2.42399,5.879477 z"
       id="path28"
       sodipodi:nodetypes="ccc" /><path
       style="fill:none;fill-opacity:1;stroke:#fdfdfd;stroke-width:0.09880658;stroke-linecap:round;stroke-dasharray:none;stroke-opacity:1;paint-order:markers stroke fill"
       d="m 116.26321,23.873995 c -0.1939,0.04525 -0.56021,0.109362 -0.55819,1.010126"
       id="path29"
       sodipodi:nodetypes="cc" /></g></svg>
