<svg width="471" height="495" viewBox="0 0 471 495" fill="none" xmlns="http://www.w3.org/2000/svg">
<g clip-path="url(#clip0_717_322)">
<path d="M2.38867 366.887L468.61 369.227L2.38867 366.887Z" fill="#1A1A1A"/>
<path d="M2.38867 366.887L468.61 369.227" stroke="black" stroke-width="11.2992" stroke-linecap="round" stroke-linejoin="round"/>
<path d="M339.239 279.817C347.892 308.176 345.047 337.821 331.327 362.255C317.608 386.69 294.134 403.92 266.05 410.169C237.965 416.419 207.563 411.177 181.505 395.594C155.447 380.011 135.861 355.358 127.038 327.037C118.215 298.717 120.876 269.04 134.438 244.511C148 219.982 171.356 202.603 199.386 196.182C227.417 189.762 257.836 194.823 283.976 210.258C310.116 225.692 329.844 250.241 338.836 278.522" fill="#784421"/>
<path d="M339.239 279.817C347.892 308.176 345.047 337.821 331.327 362.255C317.608 386.69 294.134 403.92 266.05 410.169C237.965 416.419 207.563 411.177 181.505 395.594C155.447 380.011 135.861 355.358 127.038 327.037C118.215 298.717 120.876 269.04 134.438 244.511C148 219.982 171.356 202.603 199.386 196.182C227.417 189.762 257.836 194.823 283.976 210.258C310.116 225.692 329.844 250.241 338.836 278.522" stroke="black" stroke-width="7.35974" stroke-linecap="round" stroke-linejoin="round"/>
<path d="M117.74 219.301C79.8941 275.441 81.8527 311.591 77.7363 348.579C78.4807 401.545 81.8119 414.223 108.701 426.359C166.284 451.531 212.133 453.727 265.211 463.186C307.972 461.301 292.808 413.197 280.765 412.893C223.714 392.773 159.844 373.276 154.384 363.607C167.179 338.907 174.491 288.061 186.89 253.678C171.172 236.934 166.3 212.371 117.74 219.301Z" fill="#784421" stroke="black" stroke-width="11.1369" stroke-linecap="round" stroke-linejoin="round"/>
<path d="M210.898 269.164L231.81 257.46L253.952 270.919L241.036 291.4H221.354L207.822 270.919L210.898 269.164Z" fill="#1A1A1A" stroke="black" stroke-width="9.65452" stroke-linecap="round" stroke-linejoin="round"/>
<path d="M221.756 285.52L206.166 403.891C206.166 403.891 229.552 423.232 231.779 421.685C234.006 420.138 256.835 408.533 256.835 408.533L240.688 283.972L221.756 285.52Z" fill="#1A1A1A" stroke="black" stroke-width="10.5622" stroke-linecap="round" stroke-linejoin="round"/>
<path d="M78.0679 405.053C75.3962 433.07 78.7101 459.941 84.2767 486.382C106.025 491.548 126.97 498.713 156.712 484.007C161.395 458.888 168.242 434.7 162.404 405.053H78.0679Z" fill="black" stroke="black" stroke-width="10.4381" stroke-linecap="round" stroke-linejoin="round"/>
<path d="M166.62 412.937C209.17 422.648 179.493 463.194 159.961 470.187C171.462 452.427 196.062 435.923 166.62 412.937Z" fill="black" stroke="black" stroke-width="11.195" stroke-linecap="round" stroke-linejoin="round"/>
<path d="M163.439 403.273C163.439 404.687 158.987 406.043 151.058 407.045C143.129 408.046 132.371 408.611 121.141 408.615C109.911 408.62 99.1256 408.063 91.1489 407.068C83.1721 406.072 78.6547 404.719 78.5867 403.305C78.5188 401.891 82.9058 400.531 90.7864 399.523C98.6669 398.516 109.398 397.943 120.627 397.93C131.857 397.917 142.669 398.466 150.693 399.455C158.718 400.444 163.3 401.794 163.436 403.208" fill="white"/>
<path d="M163.439 403.273C163.439 404.687 158.987 406.043 151.058 407.045C143.129 408.046 132.371 408.611 121.141 408.615C109.911 408.62 99.1256 408.063 91.1489 407.068C83.1721 406.072 78.6547 404.719 78.5867 403.305C78.5188 401.891 82.9058 400.531 90.7864 399.523C98.6669 398.516 109.398 397.943 120.627 397.93C131.857 397.917 142.669 398.466 150.693 399.455C158.718 400.444 163.3 401.794 163.436 403.208" stroke="black" stroke-width="3.03873" stroke-linecap="round" stroke-linejoin="round"/>
<path d="M353.227 217.573C391.073 273.713 389.115 309.863 393.231 346.851C392.487 399.816 389.156 412.495 362.267 424.631C304.684 449.803 258.834 451.999 205.756 461.458C162.996 459.572 178.16 411.468 190.202 411.165C247.254 391.045 311.124 371.547 316.584 361.879C303.788 337.179 296.477 286.333 284.077 251.95C285.043 212.75 326.326 194.661 353.227 217.573Z" fill="#784421" stroke="black" stroke-width="11.1369" stroke-linecap="round" stroke-linejoin="round"/>
<path d="M382.578 138.903C382.578 170.204 366.632 200.228 338.235 222.394C309.839 244.561 271.308 257.061 231.088 257.156C190.869 257.25 152.242 244.932 123.673 222.899C95.1048 200.867 78.9258 170.919 78.6825 139.619C78.4391 108.319 94.1512 78.2206 122.375 55.921C150.599 33.6213 189.031 20.9397 229.249 20.6556C269.468 20.3715 308.19 32.5081 336.929 54.4054C365.668 76.3026 382.08 106.174 382.566 137.472" fill="#784421"/>
<path d="M382.578 138.903C382.578 170.204 366.632 200.228 338.235 222.394C309.839 244.56 271.308 257.061 231.088 257.156C190.869 257.25 152.242 244.932 123.673 222.899C95.1048 200.867 78.9258 170.919 78.6825 139.619C78.4391 108.319 94.1512 78.2206 122.375 55.921C150.599 33.6213 189.031 20.9397 229.249 20.6556C269.468 20.3715 308.19 32.5081 336.929 54.4054C365.668 76.3026 382.08 106.174 382.566 137.472" stroke="black" stroke-width="8.30101" stroke-linecap="round" stroke-linejoin="round"/>
<path d="M103.684 75.52C86.9642 64.8616 79.3684 29.4591 86.3731 7.40639C109.913 4.80264 134.246 8.04801 161.386 32.003C209.58 11.0834 259.756 14.1985 297.948 26.3268C320.005 11.9509 341.956 -2.01561 376.244 2.51397C382.608 35.3727 368.089 54.6575 353.96 69.5192" fill="#784421"/>
<path d="M103.684 75.52C86.9642 64.8616 79.3684 29.4591 86.3731 7.40639C109.913 4.80264 134.246 8.04801 161.386 32.003C209.58 11.0834 259.756 14.1985 297.948 26.3268C320.005 11.9509 341.956 -2.01561 376.244 2.51397C382.608 35.3727 368.089 54.6575 353.96 69.5192" stroke="black" stroke-width="8.3009" stroke-linecap="round" stroke-linejoin="round"/>
<path d="M142.289 128.501C167.918 105.431 186.706 114.453 192.611 138.535" stroke="black" stroke-width="8.3009" stroke-linecap="round" stroke-linejoin="round"/>
<path d="M314.107 126.593C288.478 103.523 269.691 112.544 263.785 136.627" stroke="black" stroke-width="8.3009" stroke-linecap="round" stroke-linejoin="round"/>
<path d="M209.35 125.074C220.683 119.157 235.33 117.747 249.961 125.074" stroke="#EFEFEF" stroke-width="5.53042" stroke-linecap="round" stroke-linejoin="round"/>
<path d="M217.771 147.231C227.81 141.912 237.197 143.004 246.333 146.562C244.003 151.711 242.026 155.983 232.732 163.286C219.91 155.632 219.894 151.697 217.771 147.231Z" fill="black" stroke="black" stroke-width="4.98058" stroke-linecap="round" stroke-linejoin="round"/>
<path d="M231.373 157.266C238.823 206.499 260.375 196.514 266.734 181.347" stroke="black" stroke-width="4.98058" stroke-linecap="round" stroke-linejoin="round"/>
<path d="M233.268 158.104C225.818 207.338 204.266 197.353 197.906 182.186" stroke="black" stroke-width="4.98058" stroke-linecap="round" stroke-linejoin="round"/>
<path d="M136.169 36.1876C127.403 31.6622 123.097 21.9756 96.0472 20.1331C94.9312 31.9786 96.5971 39.2508 99.4473 48.8975" stroke="black" stroke-width="4.98058" stroke-linecap="round" stroke-linejoin="round"/>
<path d="M325.047 30.135C333.813 25.6095 338.119 15.923 365.168 14.0805C366.284 25.9259 364.618 33.1981 361.768 42.8448" stroke="black" stroke-width="4.98058" stroke-linecap="round" stroke-linejoin="round"/>
<path d="M85.8086 108.016L116.933 117.078L85.8086 108.016Z" fill="#F9F9F9"/>
<path d="M85.8086 108.016L116.933 117.078" stroke="#EFEFEF" stroke-width="4.64315" stroke-linecap="round" stroke-linejoin="round"/>
<path d="M343.777 116.648L373.217 103.522L343.777 116.648Z" fill="#F9F9F9"/>
<path d="M343.777 116.648L373.217 103.522" stroke="#EFEFEF" stroke-width="5.43461" stroke-linecap="round" stroke-linejoin="round"/>
<path d="M194.113 102.8C100.366 88.7049 97.9096 142.671 149.176 156.223C197.223 168.924 232.589 111.681 194.113 102.8Z" stroke="#EFEFEF" stroke-width="5.45941" stroke-linecap="round" stroke-linejoin="round"/>
<path d="M266.232 101.321C359.98 87.226 362.436 141.192 311.169 154.744C263.122 167.445 227.757 110.202 266.232 101.321Z" stroke="#EFEFEF" stroke-width="5.45941" stroke-linecap="round" stroke-linejoin="round"/>
<path d="M143.854 235.224L189.369 291.985C202.144 269.387 216.863 265.272 231.193 257.46C252.716 266.288 260.502 278.382 269.327 290.23L320.993 234.054C261.019 266.217 202.194 259.018 143.854 235.224Z" fill="white" stroke="black" stroke-width="9.65452" stroke-linecap="round" stroke-linejoin="round"/>
</g>
<defs>
<clipPath id="clip0_717_322">
<rect width="471" height="495" fill="white"/>
</clipPath>
</defs>
</svg>
