<svg width="36" height="36" viewBox="0 0 36 36" fill="none" xmlns="http://www.w3.org/2000/svg">
<path d="M33.8969 17.9097C33.8969 21.5359 32.2374 25.0141 29.2822 27.582C26.3269 30.1499 22.3171 31.5981 18.1314 31.6091C13.9458 31.62 9.92585 30.1929 6.95274 27.6405C3.97962 25.0881 2.29588 21.6187 2.27055 17.9926C2.24523 14.3666 3.88038 10.8797 6.81762 8.29635C9.75486 5.71297 13.7546 4.24382 17.94 4.21091C22.1255 4.178 26.1554 5.58401 29.1462 8.12077C32.1371 10.6575 33.8451 14.1181 33.8957 17.7439" fill="#B3B3B3"/>
<path d="M33.8969 17.9097C33.8969 21.5359 32.2374 25.0141 29.2822 27.582C26.3269 30.1499 22.3171 31.5981 18.1314 31.6091C13.9458 31.62 9.92585 30.1929 6.95274 27.6405C3.97962 25.0881 2.29588 21.6187 2.27055 17.9926C2.24523 14.3666 3.88038 10.8797 6.81762 8.29635C9.75486 5.71297 13.7546 4.24382 17.94 4.21091C22.1255 4.178 26.1554 5.58401 29.1462 8.12077C32.1371 10.6575 33.8451 14.1181 33.8957 17.7439" stroke="black" stroke-width="1.05214" stroke-linecap="round" stroke-linejoin="round"/>
<path d="M4.87256 10.5669C3.13256 9.3321 2.34207 5.23078 3.07104 2.67601C5.52085 2.37437 8.05317 2.75034 10.8776 5.52548C15.8932 3.10198 21.115 3.46286 25.0896 4.86791C27.3851 3.20248 29.6695 1.58448 33.2379 2.10923C33.9002 5.91586 32.3892 8.14997 30.9187 9.87168" fill="#B3B3B3"/>
<path d="M4.87256 10.5669C3.13256 9.3321 2.34207 5.23078 3.07104 2.67601C5.52085 2.37437 8.05317 2.75034 10.8776 5.52548C15.8932 3.10198 21.115 3.46286 25.0896 4.86791C27.3851 3.20248 29.6695 1.58448 33.2379 2.10923C33.9002 5.91586 32.3892 8.14997 30.9187 9.87168" stroke="black" stroke-width="1.05214" stroke-linecap="round" stroke-linejoin="round"/>
<path d="M16.7456 18.8745C17.7903 18.2583 18.7672 18.3847 19.718 18.797C19.4756 19.3935 19.2698 19.8884 18.3025 20.7344C16.9682 19.8477 16.9665 19.3918 16.7456 18.8745Z" fill="black" stroke="black" stroke-width="1.05214" stroke-linecap="round" stroke-linejoin="round"/>
<path d="M18.1611 20.0369C18.9365 25.7406 21.1793 24.5838 21.8412 22.8268" stroke="black" stroke-width="1.05214" stroke-linecap="round" stroke-linejoin="round"/>
<path d="M18.3583 20.1341C17.5829 25.8378 15.3401 24.681 14.6782 22.924" stroke="black" stroke-width="1.05214" stroke-linecap="round" stroke-linejoin="round"/>
<path d="M8.25313 6.01027C7.34084 5.486 6.89274 4.36383 4.07768 4.15038C3.96153 5.52266 4.13491 6.36512 4.43153 7.48268" stroke="black" stroke-width="1.05214" stroke-linecap="round" stroke-linejoin="round"/>
<path d="M27.9097 5.30908C28.822 4.78481 29.27 3.66264 32.0851 3.44919C32.2013 4.82147 32.0279 5.66394 31.7313 6.78149" stroke="black" stroke-width="1.05214" stroke-linecap="round" stroke-linejoin="round"/>
<path d="M29.5268 15.2255C29.5268 16.3577 29.1036 17.4437 28.3498 18.2455C27.5961 19.0473 26.5734 19.4995 25.5058 19.5029C24.4383 19.5063 23.413 19.0607 22.6547 18.2638C21.8964 17.4669 21.467 16.3836 21.4605 15.2514C21.4541 14.1193 21.8711 13.0306 22.6203 12.2239C23.3694 11.4173 24.3895 10.9586 25.457 10.9483C26.5245 10.9381 27.5523 11.3771 28.3152 12.1691C29.078 12.9612 29.5136 14.0417 29.5265 15.1738" fill="white"/>
<path d="M29.5268 15.2255C29.5268 16.3577 29.1036 17.4437 28.3498 18.2455C27.5961 19.0473 26.5734 19.4995 25.5058 19.5029C24.4383 19.5063 23.413 19.0607 22.6547 18.2638C21.8964 17.4669 21.467 16.3836 21.4605 15.2514C21.4541 14.1193 21.8711 13.0306 22.6203 12.2239C23.3694 11.4173 24.3895 10.9586 25.457 10.9483C26.5245 10.9381 27.5523 11.3771 28.3152 12.1691C29.078 12.9612 29.5136 14.0417 29.5265 15.1738" stroke="black" stroke-width="0.658912" stroke-linecap="round" stroke-linejoin="round"/>
<path d="M26.5476 15.3306C26.5476 16.0565 26.2888 16.7527 25.8281 17.2668C25.3673 17.7808 24.7421 18.0707 24.0895 18.0729C23.4369 18.0751 22.8101 17.7894 22.3465 17.2785C21.883 16.7676 21.6204 16.073 21.6165 15.3472C21.6126 14.6213 21.8675 13.9233 22.3255 13.4062C22.7834 12.889 23.4071 12.5949 24.0596 12.5883C24.7122 12.5818 25.3405 12.8632 25.8069 13.371C26.2732 13.8788 26.5395 14.5716 26.5474 15.2974" fill="black"/>
<path d="M26.5476 15.3306C26.5476 16.0565 26.2888 16.7527 25.8281 17.2668C25.3673 17.7808 24.7421 18.0707 24.0895 18.0729C23.4369 18.0751 22.8101 17.7894 22.3465 17.2785C21.883 16.7676 21.6204 16.073 21.6165 15.3472C21.6126 14.6213 21.8675 13.9233 22.3255 13.4062C22.7834 12.889 23.4071 12.5949 24.0596 12.5883C24.7122 12.5818 25.3405 12.8632 25.8069 13.371C26.2732 13.8788 26.5395 14.5716 26.5474 15.2974" stroke="black" stroke-width="0.533446" stroke-linecap="round" stroke-linejoin="round"/>
<path d="M15.4587 15.1017C15.4587 16.2339 15.0355 17.3199 14.2817 18.1217C13.528 18.9235 12.5053 19.3756 11.4377 19.379C10.3702 19.3825 9.34489 18.9369 8.5866 18.1399C7.82831 17.343 7.39887 16.2597 7.39241 15.1276C7.38595 13.9954 7.80299 12.9067 8.55214 12.1001C9.30128 11.2935 10.3214 10.8347 11.3889 10.8245C12.4564 10.8142 13.4842 11.2532 14.247 12.0453C15.0099 12.8373 15.4455 13.9178 15.4584 15.0499" fill="white"/>
<path d="M15.4587 15.1017C15.4587 16.2339 15.0355 17.3199 14.2817 18.1217C13.528 18.9235 12.5053 19.3756 11.4377 19.379C10.3702 19.3825 9.34489 18.9369 8.5866 18.1399C7.82831 17.343 7.39887 16.2597 7.39241 15.1276C7.38595 13.9954 7.80299 12.9067 8.55214 12.1001C9.30128 11.2935 10.3214 10.8347 11.3889 10.8245C12.4564 10.8142 13.4842 11.2532 14.247 12.0453C15.0099 12.8373 15.4455 13.9178 15.4584 15.0499" stroke="black" stroke-width="0.658912" stroke-linecap="round" stroke-linejoin="round"/>
<path d="M12.4795 15.2067C12.4795 15.9326 12.2207 16.6289 11.76 17.1429C11.2992 17.657 10.674 17.9468 10.0214 17.949C9.36875 17.9512 8.74197 17.6656 8.27842 17.1546C7.81486 16.6437 7.55233 15.9492 7.54839 15.2233C7.54444 14.4974 7.79938 13.7994 8.25735 13.2823C8.71531 12.7652 9.33893 12.4711 9.99152 12.4645C10.6441 12.4579 11.2724 12.7393 11.7388 13.2471C12.2051 13.755 12.4714 14.4477 12.4793 15.1735" fill="black"/>
<path d="M12.4795 15.2067C12.4795 15.9326 12.2207 16.6289 11.76 17.1429C11.2992 17.657 10.674 17.9468 10.0214 17.949C9.36875 17.9512 8.74197 17.6656 8.27842 17.1546C7.81486 16.6437 7.55233 15.9492 7.54839 15.2233C7.54444 14.4974 7.79938 13.7994 8.25735 13.2823C8.71531 12.7652 9.33893 12.4711 9.99152 12.4645C10.6441 12.4579 11.2724 12.7393 11.7388 13.2471C12.2051 13.755 12.4714 14.4477 12.4793 15.1735" stroke="black" stroke-width="0.533446" stroke-linecap="round" stroke-linejoin="round"/>
</svg>
