<svg width="36" height="36" viewBox="0 0 36 36" fill="none" xmlns="http://www.w3.org/2000/svg">
<g clip-path="url(#clip0_325_98)">
<path d="M33.8966 17.9097C33.8966 21.5359 32.2372 25.0141 29.2819 27.582C26.3267 30.1499 22.3168 31.5981 18.1312 31.6091C13.9455 31.62 9.9256 30.1929 6.95249 27.6405C3.97938 25.0881 2.29564 21.6187 2.27031 17.9926C2.24498 14.3666 3.88014 10.8797 6.81738 8.29635C9.75461 5.71297 13.7543 4.24382 17.9398 4.21091C22.1253 4.178 26.1551 5.58401 29.146 8.12077C32.1369 10.6575 33.8448 14.1181 33.8955 17.7439" fill="#B3B3B3"/>
<path d="M33.8966 17.9097C33.8966 21.5359 32.2372 25.0141 29.2819 27.582C26.3267 30.1499 22.3168 31.5981 18.1312 31.6091C13.9455 31.62 9.9256 30.1929 6.95249 27.6405C3.97938 25.0881 2.29564 21.6187 2.27031 17.9926C2.24498 14.3666 3.88014 10.8797 6.81738 8.29635C9.75461 5.71297 13.7543 4.24382 17.9398 4.21091C22.1253 4.178 26.1551 5.58401 29.146 8.12077C32.1369 10.6575 33.8448 14.1181 33.8955 17.7439" stroke="black" stroke-width="1.05214" stroke-linecap="round" stroke-linejoin="round"/>
<path d="M4.87231 10.5669C3.13232 9.3321 2.34183 5.23078 3.0708 2.67601C5.52061 2.37437 8.05292 2.75034 10.8774 5.52548C15.893 3.10198 21.1148 3.46286 25.0893 4.86791C27.3848 3.20248 29.6693 1.58448 33.2376 2.10923C33.8999 5.91586 32.389 8.14997 30.9185 9.87168" fill="#B3B3B3"/>
<path d="M4.87231 10.5669C3.13232 9.3321 2.34183 5.23078 3.0708 2.67601C5.52061 2.37437 8.05292 2.75034 10.8774 5.52548C15.893 3.10198 21.1148 3.46286 25.0893 4.86791C27.3848 3.20248 29.6693 1.58448 33.2376 2.10923C33.8999 5.91586 32.389 8.14997 30.9185 9.87168" stroke="black" stroke-width="1.05214" stroke-linecap="round" stroke-linejoin="round"/>
<path d="M8.88989 16.7046C11.5571 14.032 13.5123 15.0771 14.1269 17.8671L8.88989 16.7046Z" fill="#FF7F2A"/>
<path d="M8.88989 16.7046C11.5571 14.032 13.5123 15.0771 14.1269 17.8671" stroke="black" stroke-width="1.05214" stroke-linecap="round" stroke-linejoin="round"/>
<path d="M26.7712 16.4836C24.1039 13.811 22.1488 14.8561 21.5342 17.646L26.7712 16.4836Z" fill="#FF7F2A"/>
<path d="M26.7712 16.4836C24.1039 13.811 22.1488 14.8561 21.5342 17.646" stroke="black" stroke-width="1.05214" stroke-linecap="round" stroke-linejoin="round"/>
<path d="M16.7454 18.8745C17.7901 18.2583 18.7669 18.3847 19.7177 18.797C19.4753 19.3935 19.2695 19.8884 18.3023 20.7344C16.9679 19.8477 16.9662 19.3918 16.7454 18.8745Z" fill="black" stroke="black" stroke-width="1.05214" stroke-linecap="round" stroke-linejoin="round"/>
<path d="M18.1609 20.0369C18.9362 25.7406 21.1791 24.5838 21.8409 22.8268" stroke="black" stroke-width="1.05214" stroke-linecap="round" stroke-linejoin="round"/>
<path d="M18.358 20.1341C17.5827 25.8378 15.3398 24.681 14.678 22.924" stroke="black" stroke-width="1.05214" stroke-linecap="round" stroke-linejoin="round"/>
<path d="M8.25288 6.01027C7.34059 5.486 6.8925 4.36383 4.07744 4.15038C3.96129 5.52266 4.13466 6.36512 4.43129 7.48268" stroke="black" stroke-width="1.05214" stroke-linecap="round" stroke-linejoin="round"/>
<path d="M27.9094 5.30908C28.8217 4.78481 29.2698 3.66264 32.0849 3.44919C32.201 4.82147 32.0276 5.66394 31.731 6.78149" stroke="black" stroke-width="1.05214" stroke-linecap="round" stroke-linejoin="round"/>
<path d="M34.4372 25.7569C31.0142 20.9137 27.4815 13.1883 23.9396 13.06C22.2681 12.613 17.8252 13.5766 19.6268 17.8985C23.7893 25.1107 24.3271 27.9105 26.1403 32.1408C29.1042 36.181 38.2618 33.0226 34.4372 25.7569Z" fill="#B3B3B3" stroke="black" stroke-width="1.05257" stroke-linecap="round" stroke-linejoin="round"/>
<path d="M19.3245 15.2771C20.0206 14.3036 20.8254 14.3775 21.7701 15.7992L19.3245 15.2771Z" fill="#B3B3B3"/>
<path d="M19.3245 15.2771C20.0206 14.3036 20.8254 14.3775 21.7701 15.7992" stroke="black" stroke-width="1.05257" stroke-linecap="round" stroke-linejoin="round"/>
<path d="M21.1752 13.3392C22.3607 12.8703 22.9839 13.5438 23.404 14.3372L21.1752 13.3392Z" fill="#B3B3B3"/>
<path d="M21.1752 13.3392C22.3607 12.8703 22.9839 13.5438 23.404 14.3372" stroke="black" stroke-width="1.05257" stroke-linecap="round" stroke-linejoin="round"/>
<path d="M1.74058 26.0469C5.16352 21.2038 8.69623 13.4783 12.2382 13.35C13.9096 12.903 18.3525 13.8666 16.5509 18.1885C12.3885 25.4007 11.8507 28.2005 10.0374 32.4308C7.07355 36.471 -2.0841 33.3126 1.74058 26.0469Z" fill="#B3B3B3" stroke="black" stroke-width="1.05257" stroke-linecap="round" stroke-linejoin="round"/>
<path d="M16.8532 15.5671C16.1571 14.5936 15.3523 14.6675 14.4076 16.0892L16.8532 15.5671Z" fill="#B3B3B3"/>
<path d="M16.8532 15.5671C16.1571 14.5936 15.3523 14.6675 14.4076 16.0892" stroke="black" stroke-width="1.05257" stroke-linecap="round" stroke-linejoin="round"/>
<path d="M15.0025 13.6293C13.8171 13.1604 13.1938 13.8338 12.7738 14.6272L15.0025 13.6293Z" fill="#B3B3B3"/>
<path d="M15.0025 13.6293C13.8171 13.1604 13.1938 13.8338 12.7738 14.6272" stroke="black" stroke-width="1.05257" stroke-linecap="round" stroke-linejoin="round"/>
</g>
<defs>
<clipPath id="clip0_325_98">
<rect width="36" height="36" fill="white"/>
</clipPath>
</defs>
</svg>
