<svg width="1125" height="669" viewBox="0 0 1125 669" fill="none" xmlns="http://www.w3.org/2000/svg">
<path d="M883.343 606.997C883.343 622.014 837.025 636.417 754.556 647.044C672.087 657.672 560.207 663.656 443.478 663.682C326.748 663.708 214.708 657.774 131.953 647.183C49.1979 636.592 2.49139 622.21 2.08664 607.193C1.68185 592.177 47.6119 577.753 129.794 567.089C211.976 556.424 323.693 550.391 440.422 550.313C557.15 550.235 669.35 556.118 752.39 566.672C835.429 577.226 882.523 591.587 883.333 606.604" fill="white"/>
<path d="M883.343 606.997C883.343 622.014 837.025 636.417 754.556 647.044C672.087 657.672 560.207 663.656 443.478 663.682C326.748 663.708 214.708 657.774 131.953 647.183C49.1979 636.592 2.49139 622.21 2.08664 607.193C1.68185 592.177 47.6119 577.753 129.794 567.089C211.976 556.424 323.693 550.391 440.422 550.313C557.15 550.235 669.35 556.118 752.39 566.672C835.429 577.226 882.523 591.587 883.333 606.604" stroke="black" stroke-width="4.22753" stroke-linecap="round" stroke-linejoin="round"/>
<path d="M177.196 655.31C143.964 594.436 112.713 521.178 197.939 405.185C295.255 275.136 512.689 273.526 614.528 406.934C698.977 514.61 670.64 595.429 637 655.31C559.519 662.746 353.499 675.526 177.196 655.31Z" fill="#FF9955" stroke="black" stroke-width="3.90611" stroke-linecap="round" stroke-linejoin="round"/>
<path d="M166.996 453.724C151.119 419.666 131.965 371.074 138.42 297.473C171.474 294.599 237.018 304.351 286.176 334.054" fill="#FF9955"/>
<path d="M166.996 453.724C151.119 419.666 131.965 371.074 138.42 297.473C171.474 294.599 237.018 304.351 286.176 334.054" stroke="black" stroke-width="4.17141" stroke-linecap="round" stroke-linejoin="round"/>
<path d="M645.811 455.957C661.688 421.899 680.842 373.307 674.387 299.706C641.333 296.832 575.789 306.584 526.631 336.287" fill="#FF9955"/>
<path d="M645.811 455.957C661.688 421.899 680.842 373.307 674.387 299.706C641.333 296.832 575.789 306.584 526.631 336.287" stroke="black" stroke-width="4.17141" stroke-linecap="round" stroke-linejoin="round"/>
<path d="M365.616 533.339C365.616 551.851 359.256 569.607 347.932 582.709C336.608 595.811 321.245 603.187 305.217 603.219C289.189 603.251 273.804 595.936 262.441 582.88C251.078 569.824 244.664 552.094 244.609 533.581C244.553 515.069 250.86 497.288 262.144 484.141C273.429 470.994 288.769 463.556 304.797 463.46C320.825 463.363 336.232 470.617 347.634 483.627C359.036 496.638 365.503 514.342 365.614 532.854" fill="white"/>
<path d="M365.616 533.339C365.616 551.851 359.256 569.607 347.932 582.709C336.608 595.811 321.245 603.187 305.217 603.219C289.189 603.251 273.804 595.936 262.441 582.88C251.078 569.824 244.664 552.094 244.609 533.581C244.553 515.069 250.86 497.288 262.144 484.141C273.429 470.994 288.769 463.556 304.797 463.46C320.825 463.363 336.232 470.617 347.634 483.627C359.036 496.638 365.503 514.342 365.614 532.854" stroke="black" stroke-width="3.90611" stroke-linecap="round" stroke-linejoin="round"/>
<path d="M360.727 524.063C360.727 536.186 356.551 547.814 349.116 556.393C341.681 564.973 331.594 569.804 321.071 569.825C310.547 569.846 300.446 565.056 292.986 556.506C285.525 547.956 281.314 536.344 281.278 524.221C281.241 512.098 285.382 500.454 292.791 491.844C300.2 483.235 310.272 478.364 320.795 478.301C331.319 478.238 341.434 482.988 348.92 491.508C356.407 500.028 360.653 511.622 360.726 523.745" fill="black"/>
<path d="M360.727 524.063C360.727 536.186 356.551 547.814 349.116 556.393C341.681 564.973 331.594 569.804 321.071 569.825C310.547 569.846 300.446 565.056 292.986 556.506C285.525 547.956 281.314 536.344 281.278 524.221C281.241 512.098 285.382 500.454 292.791 491.844C300.2 483.235 310.272 478.364 320.795 478.301C331.319 478.238 341.434 482.988 348.92 491.508C356.407 500.028 360.653 511.622 360.726 523.745" stroke="black" stroke-width="3.90611" stroke-linecap="round" stroke-linejoin="round"/>
<path d="M549.056 536.237C549.056 554.75 542.696 572.506 531.372 585.607C520.048 598.709 504.686 606.085 488.657 606.117C472.629 606.15 457.245 598.835 445.881 585.778C434.518 572.722 428.105 554.992 428.049 536.48C427.994 517.967 434.3 500.186 445.585 487.039C456.869 473.892 472.21 466.454 488.238 466.358C504.266 466.262 519.672 473.515 531.075 486.526C542.477 499.536 548.943 517.241 549.055 535.753" fill="white"/>
<path d="M549.056 536.237C549.056 554.75 542.696 572.506 531.372 585.607C520.048 598.709 504.686 606.085 488.657 606.117C472.629 606.15 457.245 598.835 445.881 585.778C434.518 572.722 428.105 554.992 428.049 536.48C427.994 517.967 434.3 500.186 445.585 487.039C456.869 473.892 472.21 466.454 488.238 466.358C504.266 466.262 519.672 473.515 531.075 486.526C542.477 499.536 548.943 517.241 549.055 535.753" stroke="black" stroke-width="3.90611" stroke-linecap="round" stroke-linejoin="round"/>
<path d="M544.167 526.961C544.167 539.084 539.991 550.712 532.556 559.292C525.121 567.872 515.035 572.702 504.511 572.723C493.988 572.744 483.887 567.954 476.426 559.404C468.965 550.854 464.755 539.243 464.718 527.12C464.682 514.997 468.822 503.352 476.231 494.743C483.64 486.133 493.712 481.263 504.236 481.199C514.759 481.136 524.875 485.886 532.361 494.407C539.847 502.927 544.093 514.521 544.166 526.644" fill="black"/>
<path d="M544.167 526.961C544.167 539.084 539.991 550.712 532.556 559.292C525.121 567.872 515.035 572.702 504.511 572.723C493.988 572.744 483.887 567.954 476.426 559.404C468.965 550.854 464.755 539.243 464.718 527.12C464.682 514.997 468.822 503.352 476.231 494.743C483.64 486.133 493.712 481.263 504.236 481.199C514.759 481.136 524.875 485.886 532.361 494.407C539.847 502.927 544.093 514.521 544.166 526.644" stroke="black" stroke-width="3.90611" stroke-linecap="round" stroke-linejoin="round"/>
<path d="M369.283 588.377C391.239 580.316 410.658 582.52 429.176 588.377C421.462 600.774 412.07 611.471 398.618 618.061C385.876 612.365 376.265 602.234 369.283 588.377Z" fill="black" stroke="black" stroke-width="3.90611" stroke-linecap="round" stroke-linejoin="round"/>
<path d="M399.491 617.942L399.033 666.017Z" fill="black"/>
<path d="M399.491 617.942L399.033 666.017" stroke="black" stroke-width="3.93228" stroke-linecap="round" stroke-linejoin="round"/>
<path d="M652.244 655.784L679.65 582.198L700.525 535.194C720.889 480.343 805.95 497.051 806.253 546.944C799.196 580.406 793.745 608.409 779.974 644.034L652.244 655.784Z" fill="#FF9955" stroke="black" stroke-width="3.90611" stroke-linecap="round" stroke-linejoin="round"/>
<path d="M702.356 530.557C700.322 509.505 705.741 497.942 726.499 504.896C734.858 492.253 748.962 485.055 768.668 503.659C800.457 500.335 793.93 517.57 800.448 527.777C816.794 537.542 813.524 550.809 802.281 565.5" fill="#FF9955"/>
<path d="M702.356 530.557C700.322 509.505 705.741 497.942 726.499 504.896C734.858 492.253 748.962 485.055 768.668 503.659C800.457 500.335 793.93 517.57 800.448 527.777C816.794 537.542 813.524 550.809 802.281 565.5" stroke="black" stroke-width="3.90611" stroke-linecap="round" stroke-linejoin="round"/>
<path d="M726.194 527.464C726.194 530.495 725.358 533.402 723.871 535.547C722.384 537.692 720.367 538.899 718.262 538.904C716.158 538.91 714.137 537.712 712.645 535.575C711.153 533.437 710.311 530.534 710.304 527.504C710.296 524.473 711.125 521.562 712.606 519.409C714.088 517.257 716.103 516.039 718.207 516.023C720.312 516.008 722.335 517.195 723.832 519.325C725.33 521.455 726.179 524.354 726.193 527.385" fill="#FFB380"/>
<path d="M726.194 527.464C726.194 530.495 725.358 533.402 723.871 535.547C722.384 537.692 720.367 538.899 718.262 538.904C716.158 538.91 714.137 537.712 712.645 535.575C711.153 533.437 710.311 530.534 710.304 527.504C710.296 524.473 711.125 521.562 712.606 519.409C714.088 517.257 716.103 516.039 718.207 516.023C720.312 516.008 722.335 517.195 723.832 519.325C725.33 521.455 726.179 524.354 726.193 527.385" stroke="black" stroke-width="2.05487" stroke-linecap="round" stroke-linejoin="round"/>
<path d="M755.79 514.945C755.79 518.413 754.751 521.74 752.901 524.195C751.051 526.65 748.542 528.032 745.924 528.038C743.306 528.044 740.793 526.673 738.936 524.227C737.08 521.781 736.033 518.459 736.023 514.99C736.014 511.522 737.045 508.19 738.888 505.727C740.731 503.263 743.237 501.87 745.855 501.852C748.474 501.834 750.99 503.193 752.853 505.63C754.715 508.068 755.772 511.385 755.79 514.854" fill="#FFB380"/>
<path d="M755.79 514.945C755.79 518.413 754.751 521.74 752.901 524.195C751.051 526.65 748.542 528.032 745.924 528.038C743.306 528.044 740.793 526.673 738.936 524.227C737.08 521.781 736.033 518.459 736.023 514.99C736.014 511.522 737.045 508.19 738.888 505.727C740.731 503.263 743.237 501.87 745.855 501.852C748.474 501.834 750.99 503.193 752.853 505.63C754.715 508.068 755.772 511.385 755.79 514.854" stroke="black" stroke-width="2.45182" stroke-linecap="round" stroke-linejoin="round"/>
<path d="M784.473 528.883C783.162 532.088 780.944 534.76 778.307 536.312C775.67 537.864 772.829 538.17 770.408 537.162C767.986 536.155 766.183 533.916 765.392 530.937C764.602 527.958 764.889 524.483 766.192 521.275C767.495 518.067 769.706 515.387 772.34 513.824C774.974 512.262 777.816 511.944 780.242 512.941C782.668 513.937 784.48 516.167 785.279 519.14C786.079 522.113 785.801 525.587 784.507 528.799" fill="#FFB380"/>
<path d="M784.473 528.883C783.162 532.088 780.944 534.76 778.307 536.312C775.67 537.864 772.829 538.17 770.408 537.162C767.986 536.155 766.183 533.916 765.392 530.937C764.602 527.958 764.889 524.483 766.192 521.275C767.495 518.067 769.706 515.387 772.34 513.824C774.974 512.262 777.816 511.944 780.242 512.941C782.668 513.937 784.48 516.167 785.279 519.14C786.079 522.113 785.801 525.587 784.507 528.799" stroke="black" stroke-width="2.45177" stroke-linecap="round" stroke-linejoin="round"/>
<path d="M798.185 557.422C795.779 559.228 792.974 560.281 790.386 560.351C787.797 560.42 785.637 559.5 784.379 557.792C783.121 556.085 782.868 553.73 783.675 551.244C784.483 548.758 786.285 546.344 788.687 544.532C791.088 542.721 793.892 541.659 796.483 541.581C799.074 541.503 801.241 542.415 802.507 544.116C803.774 545.817 804.037 548.169 803.238 550.655C802.439 553.141 800.644 555.558 798.247 557.375" fill="#FFB380"/>
<path d="M798.185 557.422C795.779 559.228 792.974 560.281 790.386 560.351C787.797 560.42 785.637 559.5 784.379 557.792C783.121 556.085 782.868 553.73 783.675 551.244C784.483 548.758 786.285 546.344 788.687 544.532C791.088 542.721 793.892 541.659 796.483 541.581C799.074 541.503 801.241 542.415 802.507 544.116C803.774 545.817 804.037 548.169 803.238 550.655C802.439 553.141 800.644 555.558 798.247 557.375" stroke="black" stroke-width="2.0548" stroke-linecap="round" stroke-linejoin="round"/>
<path d="M713.454 587.553C691.881 577.637 714.036 563.579 725.706 556.159C743.931 537.445 759.221 549.129 764.779 567.412C778.791 600.08 757.368 603.578 745.153 596.739C735.306 587.409 732.29 589.548 713.454 587.553Z" fill="#FFB380" stroke="black" stroke-width="2.05487" stroke-linecap="round" stroke-linejoin="round"/>
<path d="M723.15 647.43L874.099 163.565Z" fill="#FFB380"/>
<path d="M723.15 647.43L874.099 163.565" stroke="black" stroke-width="8.6136" stroke-linecap="round" stroke-linejoin="round"/>
<path d="M1120.76 110.522L716.854 4.16382L651.085 259.905L1054.99 366.263L1120.76 110.522Z" fill="black" stroke="black" stroke-width="8.22573" stroke-linecap="round" stroke-linejoin="round"/>
<path d="M700.948 179.588L704.683 165.527L792.69 84.2267L802.875 86.997L797.089 108.777L790.207 106.905L723.711 168.338L723.419 169.441L806.821 192.128L802.793 207.291L700.948 179.588ZM759.594 226.58L768.42 193.359L770.16 186.811L797.094 85.4247L813.335 89.8422L775.834 230.998L759.594 226.58ZM866.345 257.688C855.977 254.868 847.897 249.639 842.104 242.004C836.324 234.322 832.941 224.558 831.956 212.711C830.983 200.819 832.535 187.199 836.613 171.852C840.665 156.597 846.053 144.095 852.775 134.345C859.556 124.562 867.35 117.813 876.158 114.1C885.024 110.353 894.595 109.877 904.871 112.672C915.147 115.468 923.17 120.729 928.938 128.457C934.764 136.151 938.164 145.945 939.137 157.837C940.168 169.696 938.657 183.253 934.604 198.508C930.527 213.855 925.121 226.426 918.386 236.222C911.664 245.972 903.899 252.703 895.091 256.417C886.295 260.084 876.713 260.508 866.345 257.688ZM870.374 242.525C880.65 245.32 889.951 242.529 898.276 234.151C906.602 225.773 913.206 212.395 918.088 194.015C921.336 181.793 922.793 171.03 922.461 161.726C922.174 152.434 920.198 144.876 916.531 139.05C912.911 133.237 907.706 129.407 900.916 127.56C890.731 124.789 881.435 127.656 873.027 136.159C864.632 144.616 857.999 158.011 853.128 176.345C849.881 188.567 848.407 199.301 848.705 208.547C849.004 217.792 850.969 225.298 854.602 231.066C858.281 236.846 863.538 240.665 870.374 242.525ZM946.39 246.352L950.126 232.292L1038.13 150.991L1048.32 153.761L1042.53 175.541L1035.65 173.669L969.154 235.103L968.861 236.205L1052.26 258.892L1048.24 274.056L946.39 246.352ZM1005.04 293.345L1013.86 260.123L1015.6 253.576L1042.54 152.189L1058.78 156.607L1021.28 297.762L1005.04 293.345Z" fill="white"/>
<path d="M244.359 358.086C204.263 335.173 191.793 332.59 161.519 330.145C158.868 350.025 161.88 368.473 168.422 386.028" stroke="black" stroke-width="3.28903" stroke-linecap="round" stroke-linejoin="round"/>
<path d="M558.114 364.372C598.21 341.459 610.681 338.876 640.955 336.431C643.606 356.311 640.593 374.759 634.051 392.314" stroke="black" stroke-width="3.28903" stroke-linecap="round" stroke-linejoin="round"/>
</svg>
