<svg width="202" height="182" viewBox="0 0 202 182" fill="none" xmlns="http://www.w3.org/2000/svg">
<g clip-path="url(#clip0_748_56)">
<path d="M126.866 135.938C146.573 118.666 163.268 98.9953 181.373 80.2004C181.134 78.0756 184.503 76.1062 179.041 73.7566C178.539 68.7329 176.77 67.9471 174.185 69.8908C172.266 62.6569 169.356 65.8226 166.639 66.954C163.068 63.1607 161.738 67.3008 160.136 70.4801C158.713 73.4288 156.039 75.9881 156.98 79.6727C121.819 105.155 112.832 96.9733 116.1 108.606L126.866 135.938Z" fill="#F2F2F2" stroke="black" stroke-width="3.5958" stroke-linecap="round" stroke-linejoin="round"/>
<path d="M134.791 109.718C140.361 105.848 154.061 104.592 149.733 112.937C143.007 120.581 133.591 128.605 132.208 129.716C127.745 129.788 121.055 122.125 134.791 109.718Z" fill="#D45500" fill-opacity="0.76"/>
<path d="M154.371 95.5669C148.859 99.9503 143.817 94.9374 144.077 92.6457C143.782 84.0135 149.469 89.6007 150.225 90.1086C154.478 91.9541 160.129 83.1625 154.371 95.5669Z" fill="#D45500" fill-opacity="0.76"/>
<path d="M170.535 72.5604C170.218 73.1029 169.735 73.506 169.192 73.6813C168.648 73.8567 168.088 73.79 167.636 73.4959C167.183 73.2019 166.873 72.7043 166.775 72.1124C166.677 71.5205 166.798 70.8825 167.112 70.3383C167.426 69.794 167.908 69.3879 168.451 69.209C168.993 69.03 169.554 69.0928 170.009 69.3836C170.464 69.6744 170.776 70.1695 170.877 70.7603C170.979 71.3511 170.861 71.9895 170.549 72.5355" fill="#E9C6AF"/>
<path d="M170.535 72.5604C170.218 73.1029 169.735 73.506 169.192 73.6813C168.648 73.8567 168.088 73.79 167.636 73.4959C167.183 73.2019 166.873 72.7043 166.775 72.1124C166.677 71.5205 166.798 70.8825 167.112 70.3383C167.426 69.794 167.908 69.3879 168.451 69.209C168.993 69.03 169.554 69.0928 170.009 69.3836C170.464 69.6744 170.776 70.1695 170.877 70.7603C170.979 71.3511 170.861 71.9895 170.549 72.5355" stroke="black" stroke-width="0.953071" stroke-linecap="round" stroke-linejoin="round"/>
<path d="M175.672 75.6924C175.314 76.2212 174.787 76.6249 174.206 76.815C173.626 77.0051 173.04 76.9662 172.577 76.7067C172.113 76.4472 171.81 75.9884 171.734 75.4307C171.658 74.8731 171.815 74.2621 172.171 73.7318C172.526 73.2015 173.052 72.795 173.632 72.6015C174.211 72.408 174.799 72.4433 175.264 72.6996C175.73 72.9558 176.036 73.4122 176.115 73.9687C176.195 74.5252 176.042 75.1363 175.689 75.6682" fill="#E9C6AF"/>
<path d="M175.672 75.6924C175.314 76.2212 174.787 76.6249 174.206 76.815C173.626 77.0051 173.04 76.9662 172.577 76.7067C172.113 76.4472 171.81 75.9884 171.734 75.4307C171.658 74.8731 171.815 74.2621 172.171 73.7318C172.526 73.2015 173.052 72.795 173.632 72.6015C174.211 72.408 174.799 72.4433 175.264 72.6996C175.73 72.9558 176.036 73.4122 176.115 73.9687C176.195 74.5252 176.042 75.1363 175.689 75.6682" stroke="black" stroke-width="0.951603" stroke-linecap="round" stroke-linejoin="round"/>
<path d="M169.245 85.4037C168.041 86.2844 166.559 86.6861 165.123 86.5207C163.687 86.3552 162.414 85.6362 161.583 84.5211C160.753 83.4061 160.432 81.986 160.692 80.5721C160.952 79.1583 161.771 77.866 162.97 76.9785C164.169 76.091 165.649 75.6807 167.087 75.8376C168.525 75.9945 169.802 76.7057 170.64 77.8154C171.478 78.9251 171.807 80.3427 171.556 81.7575C171.305 83.1723 170.493 84.4689 169.3 85.3631" fill="#E9C6AF"/>
<path d="M169.245 85.4037C168.041 86.2844 166.559 86.6861 165.123 86.5207C163.687 86.3552 162.414 85.6362 161.583 84.5211C160.753 83.4061 160.432 81.986 160.692 80.5721C160.952 79.1583 161.771 77.866 162.97 76.9785C164.169 76.091 165.649 75.6807 167.087 75.8376C168.525 75.9945 169.802 76.7057 170.64 77.8154C171.478 78.9251 171.807 80.3427 171.556 81.7575C171.305 83.1723 170.493 84.4689 169.3 85.3631" stroke="black" stroke-width="1.15472" stroke-linecap="round" stroke-linejoin="round"/>
<path d="M177.935 80.724C177.425 80.9495 176.849 81.0115 176.334 80.8964C175.819 80.7813 175.406 80.4984 175.186 80.1099C174.966 79.7213 174.957 79.2587 175.161 78.8234C175.365 78.3882 175.765 78.0158 176.273 77.788C176.782 77.5601 177.357 77.4953 177.874 77.6078C178.39 77.7203 178.805 78.0009 179.028 78.3881C179.251 78.7753 179.264 79.2375 179.063 79.6734C178.863 80.1093 178.465 80.4834 177.958 80.7136" fill="#E9C6AF"/>
<path d="M177.935 80.724C177.425 80.9495 176.849 81.0115 176.334 80.8964C175.819 80.7813 175.406 80.4984 175.186 80.1099C174.966 79.7213 174.957 79.2587 175.161 78.8234C175.365 78.3882 175.765 78.0158 176.273 77.788C176.782 77.5601 177.357 77.4953 177.874 77.6078C178.39 77.7203 178.805 78.0009 179.028 78.3881C179.251 78.7753 179.264 79.2375 179.063 79.6734C178.863 80.1093 178.465 80.4834 177.958 80.7136" stroke="black" stroke-width="0.814731" stroke-linecap="round" stroke-linejoin="round"/>
<path d="M162.007 70.7755C161.879 71.2487 161.908 71.759 162.087 72.1944C162.266 72.6297 162.58 72.9548 162.961 73.0982C163.342 73.2416 163.758 73.1917 164.119 72.9594C164.479 72.7271 164.755 72.3314 164.884 71.859C165.014 71.3867 164.988 70.8761 164.811 70.4393C164.635 70.0025 164.322 69.6751 163.942 69.5289C163.562 69.3826 163.145 69.4294 162.784 69.659C162.422 69.8887 162.145 70.2824 162.013 70.7539" fill="#E9C6AF"/>
<path d="M162.007 70.7755C161.879 71.2487 161.908 71.759 162.087 72.1944C162.266 72.6297 162.58 72.9548 162.961 73.0982C163.342 73.2416 163.758 73.1917 164.119 72.9594C164.479 72.7271 164.755 72.3314 164.884 71.859C165.014 71.3867 164.988 70.8761 164.811 70.4393C164.635 70.0025 164.322 69.6751 163.942 69.5289C163.562 69.3826 163.145 69.4294 162.784 69.659C162.422 69.8887 162.145 70.2824 162.013 70.7539" stroke="black" stroke-width="0.730533" stroke-linecap="round" stroke-linejoin="round"/>
<path d="M32.1978 102.843C9.3972 145.481 17.9655 166.827 20.0148 171.899C25.7208 182.957 123.832 186.547 126.704 170.354C128.872 165.618 130.849 122.283 113.845 101.641L32.1978 102.843Z" fill="#F2F2F2" stroke="black" stroke-width="3.59575" stroke-linecap="round" stroke-linejoin="round"/>
<path d="M134.314 62.5284C134.314 76.0001 127.758 88.9223 116.084 98.4626C104.409 108.003 88.5684 113.383 72.0333 113.424C55.4982 113.465 39.6178 108.163 27.8728 98.68C16.1277 89.1974 9.4762 76.3078 9.37615 62.8364C9.27609 49.365 15.7356 36.4107 27.339 26.813C38.9423 17.2153 54.7428 11.7572 71.2773 11.6349C87.8118 11.5126 103.731 16.7362 115.547 26.1607C127.362 35.5852 134.109 48.4418 134.309 61.9125" fill="#F2F2F2"/>
<path d="M134.314 62.5284C134.314 76.0001 127.758 88.9223 116.084 98.4626C104.409 108.003 88.5684 113.383 72.0333 113.424C55.4982 113.465 39.6178 108.163 27.8728 98.68C16.1277 89.1974 9.4762 76.3078 9.37615 62.8364C9.27609 49.365 15.7356 36.4107 27.339 26.813C38.9423 17.2153 54.7428 11.7572 71.2773 11.6349C87.8118 11.5126 103.731 16.7362 115.547 26.1607C127.362 35.5852 134.109 48.4418 134.309 61.9125" stroke="black" stroke-width="3.96365" stroke-linecap="round" stroke-linejoin="round"/>
<path d="M36.0558 57.3152C46.5925 47.386 54.3163 51.2687 56.7441 61.6338" stroke="black" stroke-width="3.96364" stroke-linecap="round" stroke-linejoin="round"/>
<path d="M37.707 55.4592C33.8925 54.1626 34.1282 52.866 33.7077 51.5694" stroke="black" stroke-width="2.87767" stroke-linecap="round" stroke-linejoin="round"/>
<path d="M35.6016 57.3427C31.787 56.0461 32.0227 54.7495 31.6023 53.4529" stroke="black" stroke-width="2.87767" stroke-linecap="round" stroke-linejoin="round"/>
<path d="M19.6551 35.2484C12.7814 30.661 9.65857 15.4239 12.5383 5.93249C22.2161 4.81184 32.2198 6.20864 43.3776 16.5188C63.1914 7.51505 83.8197 8.85578 99.5209 14.0758C108.589 7.88842 117.614 1.87729 131.71 3.8268C134.326 17.9691 128.358 26.2692 122.549 32.6657" fill="#F2F2F2"/>
<path d="M19.6551 35.2484C12.7814 30.661 9.65857 15.4239 12.5383 5.93249C22.2161 4.81184 32.2198 6.20864 43.3776 16.5188C63.1914 7.51505 83.8197 8.85578 99.5209 14.0758C108.589 7.88842 117.614 1.87729 131.71 3.8268C134.326 17.9691 128.358 26.2692 122.549 32.6657" stroke="black" stroke-width="3.96364" stroke-linecap="round" stroke-linejoin="round"/>
<path d="M66.5586 66.1128C70.6856 63.8235 74.5447 64.2932 78.3006 65.8248C77.3431 68.0408 76.5302 69.8796 72.7092 73.0226C67.4379 69.7283 67.4311 68.0346 66.5586 66.1128Z" fill="black" stroke="black" stroke-width="2.37819" stroke-linecap="round" stroke-linejoin="round"/>
<path d="M72.1504 70.4314C75.2133 91.6215 84.0735 87.3239 86.6882 80.7961" stroke="black" stroke-width="2.37819" stroke-linecap="round" stroke-linejoin="round"/>
<path d="M72.9304 70.7924C69.8675 91.9825 61.0072 87.6849 58.3926 81.1571" stroke="black" stroke-width="2.37819" stroke-linecap="round" stroke-linejoin="round"/>
<path d="M33.0117 18.3198C29.4078 16.3721 27.6376 12.2031 16.5169 11.41C16.0581 16.5083 16.743 19.6382 17.9148 23.7901" stroke="black" stroke-width="2.37819" stroke-linecap="round" stroke-linejoin="round"/>
<path d="M110.662 15.7148C114.266 13.767 116.036 9.598 127.157 8.80499C127.616 13.9032 126.931 17.0332 125.759 21.1851" stroke="black" stroke-width="2.37819" stroke-linecap="round" stroke-linejoin="round"/>
<path d="M106.165 57.23C95.6282 47.3008 87.9044 51.1836 85.4766 61.5486" stroke="black" stroke-width="3.96364" stroke-linecap="round" stroke-linejoin="round"/>
<path d="M104.514 55.3741C108.328 54.0775 108.092 52.7808 108.513 51.4842" stroke="black" stroke-width="2.87767" stroke-linecap="round" stroke-linejoin="round"/>
<path d="M106.619 57.2575C110.434 55.9609 110.198 54.6643 110.618 53.3677" stroke="black" stroke-width="2.87767" stroke-linecap="round" stroke-linejoin="round"/>
<path d="M44.9739 16.8388C43.6815 27.9402 49.384 32.6092 57.464 35.0921C62.8786 38.6421 67.7201 44.4221 74.9029 41.0932C77.6951 36.1833 78.8322 27.7609 83.858 27.5907C101.033 26.9088 95.0477 19.8164 99.4116 15.5885C95.7421 11.3743 63.1608 6.81512 44.9739 16.8388Z" fill="#D45500" fill-opacity="0.76"/>
<path d="M18.2589 163.027C23.6943 164.372 26.2344 161.333 27.7906 156.803C29.7658 153.87 32.8202 151.388 31.4668 147.063C29.1532 145.186 25.0359 144.076 25.1563 141.166C25.518 131.217 24.0137 132.085 22.1012 129.338C18.3811 129.185 14.7959 163.911 18.2589 163.027Z" fill="#D45500" fill-opacity="0.76"/>
<path d="M89.4792 132.179C97.014 133.121 96.8612 138.605 99.0185 135.434C101.757 133.381 108.032 130.842 106.156 127.814C102.949 126.5 95.1998 126.524 95.3667 124.486C95.8681 117.521 93.7827 118.129 91.1315 116.206C85.9744 116.098 84.6785 132.798 89.4792 132.179Z" fill="#D45500" fill-opacity="0.76"/>
<path d="M33.2711 120.083C37.6567 120.487 39.7062 119.574 40.9619 118.214C42.5556 117.333 45.02 116.588 43.9281 115.29C42.0613 114.726 38.7392 114.393 38.8363 113.519C39.1282 110.532 37.9144 110.792 36.3713 109.967C33.3696 109.921 30.4769 120.348 33.2711 120.083Z" fill="#D45500" fill-opacity="0.76"/>
<path d="M89.3375 180.947C101.794 179.949 111.679 177.95 116.098 177.194C120.713 175.708 126.216 172.849 123.054 170.658C117.649 169.708 108.029 169.146 108.31 167.672C109.155 162.634 105.641 163.073 101.172 161.682C92.4807 161.605 81.2466 181.394 89.3375 180.947Z" fill="#D45500" fill-opacity="0.76"/>
<path d="M11.9824 75.9718C12.3794 72.6164 13.5316 65.7783 24.9438 76.4719C30.4651 77.0989 30.6609 83.7286 27.7717 89.9744C26.922 94.8759 30.3401 97.7648 32.0136 101.476C25.4078 95.2434 18.8848 91.6448 11.9824 75.9718Z" fill="#D45500" fill-opacity="0.76"/>
<path d="M99.4115 107.728C91.6439 101.804 95.1214 97.4817 106.835 93.225C121.567 86.6687 121.866 89.5973 123.449 90.4744C116.988 97.3228 109.62 103.53 99.4115 107.728Z" fill="#D45500" fill-opacity="0.76"/>
<path d="M12.543 32.4253C13.5556 28.8351 17.5687 20.8701 22.2943 17.2799C57.4396 -6.46856 90.6837 -3.89199 122.882 17.1106L132.096 31.323L124.396 32.8232L119.777 20.2288C92.3629 5.13805 62.1441 0.705811 24.794 21.0964L20.8697 33.7251L12.543 32.4253Z" fill="#333333" stroke="black" stroke-width="2.35989" stroke-linecap="round" stroke-linejoin="round"/>
<path d="M11.601 32.1421C-2.70398 45.564 -2.39455 68.1687 9.93402 84.3245C10.8526 86.4477 16.4569 86.8468 17.3929 79.762C18.8442 69.926 18.319 60.2653 18.4771 35.5742C17.176 32.6284 15.1518 30.9974 11.601 32.1421Z" fill="#333333" stroke="black" stroke-width="4.17138" stroke-linecap="round" stroke-linejoin="round"/>
<path d="M17.7014 32.1872C15.1131 45.0159 14.5596 67.6749 16.0344 84.3696C16.953 86.4929 22.5573 86.8919 23.4932 79.8071C24.9445 69.9712 24.4194 60.3104 24.5775 35.6193C23.2764 32.6736 21.2522 31.0426 17.7014 32.1872Z" fill="#333333" stroke="black" stroke-width="4.17138" stroke-linecap="round" stroke-linejoin="round"/>
<path d="M133.032 28.9453C147.337 42.3672 147.027 64.9719 134.699 81.1277C133.78 83.251 128.176 83.65 127.24 76.5653C125.789 66.7293 126.314 57.0685 126.156 32.3774C127.457 29.4317 129.481 27.8007 133.032 28.9453Z" fill="#333333" stroke="black" stroke-width="4.17138" stroke-linecap="round" stroke-linejoin="round"/>
<path d="M126.932 28.9905C130.405 41.8191 130.01 64.4782 128.599 81.1729C127.68 83.2962 122.076 83.6952 121.14 76.6104C119.689 66.7744 120.214 57.1137 120.056 32.4226C121.357 29.4768 123.381 27.8458 126.932 28.9905Z" fill="#333333" stroke="black" stroke-width="4.17138" stroke-linecap="round" stroke-linejoin="round"/>
<path d="M138.339 53.3616C136.8 59.4837 133.817 70.8531 133.236 71.5915C131.661 73.8343 113.3 77.035 103.639 77.8017L103.843 81.8083C115.412 81.4809 135.393 77.8619 136.093 75.1974C137.148 74.8443 140.131 66.4023 140.176 61.1744C140.781 57.3746 139.6 55.3291 138.339 53.3616Z" fill="#333333" stroke="black" stroke-width="2.39717" stroke-linecap="round" stroke-linejoin="round"/>
<path d="M108.742 80.406C108.742 82.0498 107.821 83.6265 106.18 84.7906C104.54 85.9547 102.314 86.6111 99.9911 86.6161C97.6679 86.6211 95.4367 85.9742 93.7865 84.8171C92.1363 83.6601 91.2017 82.0873 91.1877 80.4435C91.1736 78.7998 92.0812 77.2191 93.7115 76.048C95.3418 74.8769 97.5618 74.2109 99.8849 74.196C102.208 74.1811 104.445 74.8185 106.105 75.9684C107.765 77.1184 108.713 78.6871 108.741 80.3308" fill="#1A1A1A"/>
<path d="M108.742 80.406C108.742 82.0498 107.821 83.6265 106.18 84.7906C104.54 85.9547 102.314 86.6112 99.9911 86.6161C97.6679 86.6211 95.4367 85.9742 93.7865 84.8171C92.1363 83.6601 91.2017 82.0873 91.1877 80.4435C91.1736 78.7998 92.0812 77.2191 93.7115 76.048C95.3418 74.8769 97.5618 74.2109 99.8849 74.196C102.208 74.1811 104.445 74.8185 106.105 75.9684C107.765 77.1184 108.713 78.6871 108.741 80.3308" stroke="black" stroke-width="2.39717" stroke-linecap="round" stroke-linejoin="round"/>
<path d="M68.3416 127.655L59.4707 157.742L71.8899 173.387L88.9219 157.742L78.6317 128.056L68.3416 127.655Z" fill="#008080" stroke="black" stroke-width="2.23629" stroke-linecap="round" stroke-linejoin="round"/>
<path d="M62.3965 119.668L68.2141 130.098L79.0736 129.697L85.2791 120.069L72.0925 112.849L62.3965 119.668Z" fill="#008080" stroke="black" stroke-width="2.33796" stroke-linecap="round" stroke-linejoin="round"/>
<path d="M31.5508 102.207C66.4257 119.005 92.5757 115.109 114.422 101.005L105.033 136.664C95.3135 128.002 85.0735 120.105 73.1907 114.628C64.3043 120.172 55.2888 126.479 47.4719 136.263L31.5508 102.207Z" fill="#FEFEFE" stroke="black" stroke-width="2.39717" stroke-linecap="round" stroke-linejoin="round"/>
<path d="M157.02 59.0129C163.729 53.6351 170.208 54.1304 176.649 55.6132C169.719 54.593 163.134 55.4948 157.02 59.0129Z" fill="black" stroke="black" stroke-width="1.15463" stroke-linecap="round" stroke-linejoin="round"/>
<path d="M153.76 54.4708C161.756 47.1451 169.477 47.8199 177.153 49.8397C168.894 48.45 161.046 49.6784 153.76 54.4708Z" fill="black" stroke="black" stroke-width="1.47114" stroke-linecap="round" stroke-linejoin="round"/>
<path d="M189.748 65.56C195.903 71.5429 196.082 77.9188 195.257 84.3607C195.562 77.4894 193.956 71.1576 189.748 65.56Z" fill="black" stroke="black" stroke-width="1.15463" stroke-linecap="round" stroke-linejoin="round"/>
<path d="M194.008 61.9012C202.271 68.935 202.4 76.5423 201.16 84.2459C201.7 76.0389 199.63 68.5091 194.008 61.9012Z" fill="black" stroke="black" stroke-width="1.47114" stroke-linecap="round" stroke-linejoin="round"/>
</g>
<defs>
<clipPath id="clip0_748_56">
<rect width="202" height="182" fill="white"/>
</clipPath>
</defs>
</svg>
