<svg width="259" height="248" viewBox="0 0 259 248" fill="none" xmlns="http://www.w3.org/2000/svg">
<path d="M30.1726 226.098L119.378 248L230.23 188.806L144.304 179.927L28.8608 222.547V223.139" fill="#1A1A1A"/>
<path d="M30.1725 225.841L145.615 181.445L118.722 112.78L0 151.256L30.1725 225.841Z" fill="#1A1A1A"/>
<path d="M48.5541 223.129L95.5294 230.82L190.203 190L142.505 184.084L48.5541 223.129Z" fill="#090909"/>
<path d="M11.1508 156.583L38.0437 218.737L135.777 181.445L113.475 122.251L11.1508 156.583Z" fill="#090909"/>
<path d="M151.519 224.322L173.164 213.075L152.831 207.748L133.153 217.811L151.519 224.322Z" fill="#090909"/>
<path d="M180.974 160.897C176.191 175.893 176.86 191.288 174.514 205.734C174.598 213.506 184.567 213.395 187.733 209.711C191.302 196.706 192.409 178.891 199.583 167.513L197.241 162.622L180.974 160.897Z" fill="#FF9643" stroke="black" stroke-width="1.04684" stroke-linecap="round" stroke-linejoin="round"/>
<path d="M115.171 151.058C143.545 76.8715 179.049 59.3905 216.183 112.581C208.109 70.6287 221.082 35.46 237.173 1.29602C251.843 25.763 261.235 50.23 251.603 74.697C246.701 94.2882 237.919 112.129 226.022 128.564C230.528 142.269 233.697 155.069 231.27 164.08C233.029 183.615 234.219 203.149 234.741 222.683C231.747 225.53 223.59 227.28 220 221.918L216.183 189.534C212.35 175.018 211.234 186.675 196.506 165.856C172.59 152.357 164.436 175.434 151.903 188.35C148.435 197.872 147.758 209.914 146.655 221.571C143.754 226.968 132.849 226.004 133.537 219.131C133.523 210.272 133.691 201.14 135.505 189.534C130.954 187.461 129.787 179.789 118.451 188.942C112.583 197.586 109.503 207.667 107.956 218.539C102.33 225.006 95.1752 221.588 93.5254 216.763C98.0646 191.964 107.866 172.862 115.171 151.058Z" fill="#FF9643" stroke="black" stroke-width="1.04684" stroke-linecap="round" stroke-linejoin="round"/>
<path d="M231.046 65.0382C229.52 64.7734 229.058 63.8382 226.92 64.0321C225.698 64.1983 223.847 65.5868 223.885 66.1419C222.699 66.3657 221.373 65.2388 219.691 65.3085C217.196 65.5526 216.674 66.844 215.985 67.2848C216.81 66.888 217.879 66.1276 219.795 65.8713C221.349 65.7223 222.76 67.3737 223.867 67.2105C224.454 66.9551 224.748 65.3623 226.975 65.0965C228.35 64.6974 229.492 64.8563 231.046 65.0382Z" fill="#FF7609" fill-opacity="0.542683"/>
<path d="M229.339 139.667C226.528 137.707 225.5 137.879 221.562 139.314C219.313 140.544 216.929 140.574 216.999 144.682C214.815 146.338 211.528 147.456 208.431 147.972C203.837 149.778 202.878 153.031 201.609 156.293C203.127 153.356 205.718 150.881 209.247 148.984C212.107 147.882 215.641 147.493 217.679 146.285C218.76 144.395 217.385 142.854 221.487 140.886C224.019 137.933 226.476 138.321 229.339 139.667Z" fill="#FF7609" fill-opacity="0.542683"/>
<path d="M91.0244 149.071L110.045 148.077C121.147 144.067 129.832 145.12 139.04 148.872L159.684 149.866C155.896 152.08 154.652 155.213 148.086 156.424C155.974 169.579 151.039 173.484 147.622 178.484C131.231 191.676 114.839 192.445 98.4471 178.086C91.2513 167.419 95.5431 161.672 99.143 155.629C95.9407 154.562 92.9995 152.907 91.0244 149.071Z" fill="#FF9643" stroke="black" stroke-width="1.02023" stroke-linecap="round" stroke-linejoin="round"/>
<path d="M104.251 152.197C100.886 152.057 98.2105 151.918 95.4387 151.778L98.9173 153.871" fill="#FF9643"/>
<path d="M104.251 152.197C100.886 152.057 98.2105 151.918 95.4387 151.778L98.9173 153.871" stroke="black" stroke-width="1.04684" stroke-linecap="round" stroke-linejoin="round"/>
<path d="M143.907 151.778C145.066 151.778 152.951 152.197 152.951 152.197L149.009 154.08" fill="#FF9643"/>
<path d="M143.907 151.778C145.066 151.778 152.951 152.197 152.951 152.197L149.009 154.08" stroke="black" stroke-width="1.04684" stroke-linecap="round" stroke-linejoin="round"/>
<path d="M129.065 175.637C129.787 166.617 135.381 166.88 141.588 168.312C141.118 173.703 139.867 178.472 129.065 175.637Z" fill="#F9F9F9" stroke="black" stroke-width="0.523418" stroke-linecap="round" stroke-linejoin="round"/>
<path d="M117.577 175.558C116.855 166.538 111.261 166.801 105.054 168.233C105.524 173.624 106.775 178.393 117.577 175.558Z" fill="#F9F9F9" stroke="black" stroke-width="0.523418" stroke-linecap="round" stroke-linejoin="round"/>
<path d="M132.312 175.009C132.952 175.009 133.471 174.306 133.471 173.439C133.471 172.572 132.952 171.869 132.312 171.869C131.671 171.869 131.152 172.572 131.152 173.439C131.152 174.306 131.671 175.009 132.312 175.009Z" fill="black" stroke="black" stroke-width="0.523418" stroke-linecap="round" stroke-linejoin="round"/>
<path d="M113.089 174.7C113.729 174.7 114.248 173.997 114.248 173.13C114.248 172.263 113.729 171.56 113.089 171.56C112.448 171.56 111.929 172.263 111.929 173.13C111.929 173.997 112.448 174.7 113.089 174.7Z" fill="black" stroke="black" stroke-width="0.523418" stroke-linecap="round" stroke-linejoin="round"/>
<path d="M121.064 176.16C122.576 175.434 124.204 175.394 125.934 175.951C125.47 176.981 124.822 177.92 123.383 178.462C122.373 178.08 121.53 177.426 121.064 176.16Z" fill="black" stroke="black" stroke-width="0.523418" stroke-linecap="round" stroke-linejoin="round"/>
<path d="M128.494 165.98C127.282 167.25 128.133 167.99 128.142 167.99C128.66 168.438 129.378 168.857 130.871 168.229C133.081 166.975 135.031 165.283 137.238 164.18C134.241 164.532 131.058 164.324 128.494 165.98Z" fill="black" stroke="black" stroke-width="0.529584" stroke-linecap="round" stroke-linejoin="round"/>
<path d="M118.312 166.032C119.524 167.302 118.673 168.042 118.664 168.042C118.147 168.491 117.428 168.909 115.935 168.281C113.725 167.027 111.775 165.335 109.568 164.233C112.565 164.584 115.748 164.377 118.312 166.032Z" fill="black" stroke="black" stroke-width="0.529584" stroke-linecap="round" stroke-linejoin="round"/>
<path d="M132.771 113.859C135.009 93.1046 134.479 104.824 136.482 107.999C137.707 98.8788 138.463 82.9795 142.047 100.255C141.968 87.9821 145.145 81.8154 149.004 92.9305C149.895 77.7292 149.807 74.6103 157.817 86.2334C160.078 72.5114 160.288 81.2544 163.151 83.722C167.528 60.4161 170.57 78.9142 172.427 81.4199C174.394 73.396 176.286 71.045 180.08 82.4663C182.328 71.3739 187.405 77.5449 190.051 86.8613C191.898 78.2896 196.698 82.0413 197.009 91.6748C200.721 82.0707 202.596 91.0368 203.27 96.9069" fill="#FF9643"/>
<path d="M132.771 113.859C135.009 93.1046 134.479 104.824 136.482 107.999C137.707 98.8788 138.463 82.9795 142.047 100.255C141.968 87.9821 145.145 81.8154 149.004 92.9305C149.895 77.7292 149.807 74.6103 157.817 86.2334C160.078 72.5114 160.288 81.2544 163.151 83.722C167.528 60.4161 170.57 78.9142 172.427 81.4199C174.394 73.396 176.286 71.045 180.08 82.4663C182.328 71.3739 187.405 77.5449 190.051 86.8613C191.898 78.2896 196.698 82.0413 197.009 91.6748C200.721 82.0707 202.596 91.0368 203.27 96.9069" stroke="black" stroke-width="1.04684" stroke-linecap="round" stroke-linejoin="round"/>
<path d="M162.475 84.5944C165.289 79.8637 177.193 81.7619 182.186 83.8065C185.881 85.9403 189.883 86.4612 189.768 93.5865C190.519 102.23 193.64 96.8962 199.088 97.2211C206.635 100.354 208.998 114.752 211.083 120.409C208.589 115.317 205.84 104.043 200.043 100.753C188.046 98.788 191.792 104.416 187.175 93.8508C185.294 90.5506 182.66 88.8252 179.935 86.2622C175.775 81.1401 167.833 82.7034 162.475 84.5944Z" fill="#FF7609" fill-opacity="0.542683"/>
<path d="M115.146 146.716C115.819 144.519 115.706 139.69 120.248 145.879C133.249 139.661 127.469 143.64 127.669 146.089C136.177 141.919 133.966 145.1 133.467 147.344" fill="#FF9643"/>
<path d="M115.146 146.716C115.819 144.519 115.706 139.69 120.248 145.879C133.249 139.661 127.469 143.64 127.669 146.089C136.177 141.919 133.966 145.1 133.467 147.344" stroke="black" stroke-width="1.04684" stroke-linecap="round" stroke-linejoin="round"/>
<path d="M236.845 1C237.937 2.82514 239.303 3.15588 240.018 5.61284C240.271 6.48081 241.447 6.83704 241.109 8.69527C245.609 5.61624 244.418 12.2406 245.372 15.2067C248.857 10.7131 248.327 19.6787 248.98 24.6777C250.688 19.8151 250.803 25.5014 251.276 28.8214C254.678 26.2462 252.988 32.2865 253.243 35.0368C254.921 34.8235 256.225 35.3304 254.883 40.9562C256.335 41.0874 258.679 39.3171 255.539 49.2434C259.293 47.168 257.68 51.0545 255.867 55.1628C256.906 55.9272 258.684 56.3582 255.539 59.0105C260.953 56.1978 255.838 60.7433 255.211 63.894" fill="#FF9643"/>
<path d="M236.845 1C237.937 2.82514 239.303 3.15588 240.018 5.61284C240.271 6.48081 241.447 6.83704 241.109 8.69527C245.609 5.61624 244.418 12.2406 245.372 15.2067C248.857 10.7131 248.327 19.6787 248.98 24.6777C250.688 19.8151 250.803 25.5014 251.276 28.8214C254.678 26.2462 252.988 32.2865 253.243 35.0368C254.921 34.8235 256.225 35.3304 254.883 40.9562C256.335 41.0874 258.679 39.3171 255.539 49.2434C259.293 47.168 257.68 51.0545 255.867 55.1628C256.906 55.9272 258.684 56.3582 255.539 59.0105C260.953 56.1978 255.838 60.7433 255.211 63.894" stroke="black" stroke-width="1.04684" stroke-linecap="round" stroke-linejoin="round"/>
<path d="M122.335 132.904C127.129 130.473 128.003 123.366 134.718 125.145C138.554 126.671 144.486 130.005 144.366 135.101C147.656 139.722 153.662 138.738 158.976 139.182C166.81 141.423 163.305 147.274 165.47 151.321C162.881 147.678 163.602 142.791 157.585 140.438C152.792 139.456 148 144.645 143.207 137.089C141.255 134.729 139.214 133.261 136.386 131.428C132.068 127.765 127.216 131.234 122.335 132.904Z" fill="#FF7609" fill-opacity="0.542683"/>
<path d="M131.666 116.309C136.459 113.879 137.661 105.587 144.376 107.367C148.212 108.893 156.276 111.931 156.156 117.027C158.448 123.448 162.789 122.51 168.306 122.588C176.14 124.828 178.867 139.855 181.031 143.901C178.442 140.259 172.932 126.197 166.915 123.843C162.122 122.862 157.33 128.051 152.537 120.495C150.585 118.077 147.724 116.912 144.896 115.722C140.578 112.058 136.546 114.639 131.666 116.309Z" fill="#FF7609" fill-opacity="0.542683"/>
<path d="M147.063 94.7244C151.856 92.2937 150.927 85.6303 157.641 87.41C161.477 88.936 167.082 96.4137 166.962 101.509C169.254 107.931 172.611 99.593 178.128 99.671C185.962 101.912 190.328 124.93 192.493 128.976C189.904 125.334 184.394 104.316 178.377 101.963C173.584 100.981 168.791 113.125 163.999 105.569C162.047 103.151 160.662 95.9191 157.833 94.7288C153.516 91.0656 151.943 93.0545 147.063 94.7244Z" fill="#FF7609" fill-opacity="0.542683"/>
<path d="M231.418 148.178C229.387 146.313 228.645 146.477 225.8 147.842C223.44 148.795 221.41 148.732 222.502 152.951C221.091 154.13 218.84 154.501 216.563 155.086C213.244 156.804 212.299 160.895 211.382 163.999C212.479 161.205 214.352 158.85 216.901 157.045C218.968 155.995 221.521 155.626 222.994 154.476C223.775 152.677 222.782 151.211 225.745 149.338C227.574 146.528 229.35 146.897 231.418 148.178Z" fill="#FF7609" fill-opacity="0.542683"/>
<path d="M231.999 161.004C230.416 159.809 229.837 159.914 227.619 160.789C225.779 161.399 224.196 161.358 225.048 164.061C223.948 164.816 222.193 165.054 220.418 165.428C217.83 166.53 217.094 169.15 216.379 171.138C217.234 169.349 218.694 167.84 220.682 166.683C222.293 166.011 224.283 165.774 225.431 165.038C226.04 163.886 225.266 162.946 227.576 161.747C229.002 159.947 230.387 160.183 231.999 161.004Z" fill="#FF7609" fill-opacity="0.542683"/>
<path d="M243.801 51.9502C241.138 51.6882 240.333 50.7625 236.603 50.9544C234.471 51.119 231.242 52.4932 231.309 53.0427C229.24 53.2642 226.927 52.1488 223.993 52.2178C219.641 52.4594 218.732 53.7376 217.529 54.1739C218.968 53.7812 220.832 53.0285 224.176 52.7748C226.885 52.6274 229.347 54.2619 231.278 54.1003C232.303 53.8475 232.814 52.2711 236.7 52.0079C239.098 51.613 241.089 51.7702 243.801 51.9502Z" fill="#FF7609" fill-opacity="0.542683"/>
<path d="M256.718 42.752C253.33 42.4418 252.654 40.0905 247.908 40.3177C245.196 40.5124 240.508 42.8715 240.592 43.5218C237.96 43.784 235.25 42.9871 231.517 43.0687C225.98 43.3546 224.823 44.8676 223.293 45.3839C225.123 44.9191 227.495 44.0283 231.749 43.728C235.196 43.5534 237.401 45.0695 239.857 44.8783C241.161 44.5791 242.855 42.5039 247.799 42.1924C250.851 41.725 253.268 42.5389 256.718 42.752Z" fill="#FF7609" fill-opacity="0.542683"/>
<path d="M248.301 33.6163C245.638 33.3542 244.833 32.4286 241.103 32.6205C238.971 32.785 235.742 34.1593 235.808 34.7087C233.74 34.9302 231.427 33.8148 228.493 33.8838C224.141 34.1254 223.232 35.4036 222.029 35.8399C223.468 35.4472 225.332 34.6945 228.675 34.4408C231.385 34.2934 233.847 35.9279 235.778 35.7663C236.802 35.5136 237.314 33.9371 241.199 33.674C243.598 33.279 245.589 33.4362 248.301 33.6163Z" fill="#FF7609" fill-opacity="0.542683"/>
<path d="M250.329 24.6667C248.006 24.4039 247.304 23.4757 244.049 23.6681C242.19 23.8331 239.373 25.2112 239.431 25.7622C237.626 25.9843 235.609 24.8659 233.049 24.935C229.252 25.1773 228.459 26.4591 227.41 26.8966C228.665 26.5027 230.291 25.748 233.208 25.4936C235.572 25.3457 237.72 26.9848 239.404 26.8228C240.298 26.5693 240.744 24.9884 244.134 24.7246C246.227 24.3285 247.963 24.4862 250.329 24.6667Z" fill="#FF7609" fill-opacity="0.542683"/>
<path d="M245.423 16.6293C243.896 16.3645 243.435 15.4293 241.296 15.6232C240.074 15.7894 238.223 17.1779 238.261 17.733C237.075 17.9568 235.749 16.8299 234.067 16.8996C231.572 17.1436 231.051 18.4351 230.362 18.8759C231.186 18.4791 232.255 17.7187 234.172 17.4623C235.725 17.3134 237.137 18.9648 238.243 18.8015C238.831 18.5462 239.124 16.9534 241.352 16.6875C242.727 16.2885 243.868 16.4474 245.423 16.6293Z" fill="#FF7609" fill-opacity="0.542683"/>
<path d="M132.767 159.397C130.91 159.216 130.349 158.577 127.748 158.709C126.262 158.823 124.01 159.772 124.057 160.152C122.614 160.305 121.002 159.534 118.956 159.582C115.921 159.749 115.287 160.632 114.449 160.933C115.452 160.662 116.752 160.142 119.083 159.967C120.972 159.865 122.689 160.994 124.035 160.882C124.75 160.708 125.106 159.619 127.816 159.437C129.488 159.164 130.877 159.273 132.767 159.397Z" fill="#FF7609" fill-opacity="0.542683"/>
<path d="M133.875 154.821C131.502 154.641 130.785 154.005 127.462 154.137C125.563 154.25 122.686 155.194 122.745 155.571C120.902 155.723 118.841 154.957 116.227 155.004C112.35 155.17 111.54 156.049 110.469 156.348C111.75 156.078 113.411 155.561 116.39 155.387C118.804 155.286 120.998 156.409 122.718 156.298C123.631 156.124 124.086 155.041 127.548 154.86C129.685 154.589 131.459 154.697 133.875 154.821Z" fill="#FF7609" fill-opacity="0.542683"/>
<path d="M246.912 59.1737C244.539 58.9937 243.822 58.3578 240.499 58.4896C238.6 58.6027 235.723 59.5468 235.782 59.9242C233.939 60.0764 231.878 59.3101 229.264 59.3575C225.387 59.5235 224.577 60.4016 223.505 60.7013C224.787 60.4315 226.448 59.9145 229.427 59.7402C231.841 59.6389 234.034 60.7618 235.754 60.6507C236.667 60.4771 237.123 59.3941 240.585 59.2134C242.722 58.9421 244.496 59.05 246.912 59.1737Z" fill="#FF7609" fill-opacity="0.542683"/>
<path d="M21.4573 163.116L95.8851 138.47Z" fill="#FF0000" fill-opacity="0.39"/>
<path d="M21.4573 163.116L95.8851 138.47" stroke="#F40000" stroke-width="0.937323" stroke-linecap="round" stroke-linejoin="round"/>
<path d="M24.1515 168.827L74.3313 152.296Z" fill="#FF0000" fill-opacity="0.39"/>
<path d="M24.1515 168.827L74.3313 152.296" stroke="#F40000" stroke-width="0.937323" stroke-linecap="round" stroke-linejoin="round"/>
<path d="M23.8147 166.122L55.135 155.903Z" fill="#FF0000" fill-opacity="0.39"/>
<path d="M23.8147 166.122L55.135 155.903" stroke="#F40000" stroke-width="0.937323" stroke-linecap="round" stroke-linejoin="round"/>
<path d="M28.8663 171.833L57.1556 162.515Z" fill="#FF0000" fill-opacity="0.39"/>
<path d="M28.8663 171.833L57.1556 162.515" stroke="#F40000" stroke-width="0.937323" stroke-linecap="round" stroke-linejoin="round"/>
<path d="M30.2134 175.74L93.5276 154.099Z" fill="#FF0000" fill-opacity="0.39"/>
<path d="M30.2134 175.74L93.5276 154.099" stroke="#F40000" stroke-width="0.937323" stroke-linecap="round" stroke-linejoin="round"/>
<path d="M30.5503 179.647L88.1392 159.81Z" fill="#FF0000" fill-opacity="0.39"/>
<path d="M30.5503 179.647L88.1392 159.81" stroke="#F40000" stroke-width="0.937323" stroke-linecap="round" stroke-linejoin="round"/>
<path d="M31.8973 183.855L69.6164 170.63Z" fill="#FF0000" fill-opacity="0.39"/>
<path d="M31.8973 183.855L69.6164 170.63" stroke="#F40000" stroke-width="0.937323" stroke-linecap="round" stroke-linejoin="round"/>
<path d="M33.5812 187.162L52.7776 180.249Z" fill="#FF0000" fill-opacity="0.39"/>
<path d="M33.5812 187.162L52.7776 180.249" stroke="#F40000" stroke-width="0.937323" stroke-linecap="round" stroke-linejoin="round"/>
<path d="M35.6019 190.167L44.0213 187.462Z" fill="#FF0000" fill-opacity="0.39"/>
<path d="M35.6019 190.167L44.0213 187.462" stroke="#F40000" stroke-width="0.937323" stroke-linecap="round" stroke-linejoin="round"/>
<path d="M42.3376 191.97L83.0877 176.942Z" fill="#FF0000" fill-opacity="0.39"/>
<path d="M42.3376 191.97L83.0877 176.942" stroke="#F40000" stroke-width="0.937323" stroke-linecap="round" stroke-linejoin="round"/>
<path d="M58.8395 189.265L92.8541 176.942Z" fill="#FF0000" fill-opacity="0.39"/>
<path d="M58.8395 189.265L92.8541 176.942" stroke="#F40000" stroke-width="0.937323" stroke-linecap="round" stroke-linejoin="round"/>
<path d="M41.3272 200.687L87.4657 183.855Z" fill="#FF0000" fill-opacity="0.39"/>
<path d="M41.3272 200.687L87.4657 183.855" stroke="#F40000" stroke-width="0.937323" stroke-linecap="round" stroke-linejoin="round"/>
<path d="M42.3376 203.693C44.695 203.693 60.5236 197.681 60.5236 197.681Z" fill="#FF0000" fill-opacity="0.39"/>
<path d="M42.3376 203.693C44.695 203.693 60.5236 197.681 60.5236 197.681" stroke="#F40000" stroke-width="0.937323" stroke-linecap="round" stroke-linejoin="round"/>
<path d="M44.0213 207.901L39.6432 209.704Z" fill="#FF0000" fill-opacity="0.39"/>
<path d="M44.0213 207.901L39.6432 209.704" stroke="#F40000" stroke-width="0.937323" stroke-linecap="round" stroke-linejoin="round"/>
<path d="M17.416 161.313L21.7941 159.509Z" fill="#FF0000" fill-opacity="0.39"/>
<path d="M17.416 161.313L21.7941 159.509" stroke="#F40000" stroke-width="0.937323" stroke-linecap="round" stroke-linejoin="round"/>
</svg>
