<svg width="282" height="179" viewBox="0 0 282 179" fill="none" xmlns="http://www.w3.org/2000/svg">
<path d="M249.036 2H69.4856V111.53H249.036V2Z" fill="#1A1A1A" stroke="#1A1A1A" stroke-width="3.07819" stroke-linecap="round" stroke-linejoin="round"/>
<path d="M68.7976 110.099L56.4149 147.325L260.042 146.609L249.723 110.815L68.7976 110.099Z" fill="#1A1A1A" stroke="#1A1A1A" stroke-width="3.07819" stroke-linecap="round" stroke-linejoin="round"/>
<path d="M79.1873 108.54L68.1439 129.159L249.745 128.762L240.543 108.936L79.1873 108.54Z" fill="#0C0C0C" stroke="#0C0C0C" stroke-width="2.16344" stroke-linecap="round" stroke-linejoin="round"/>
<path d="M241.615 9.61975H76.0903V100.183H241.615V9.61975Z" fill="white" stroke="white" stroke-width="2.68746" stroke-linecap="round" stroke-linejoin="round"/>
<path d="M194.168 25.9624H166.65V43.5016H194.168V25.9624Z" fill="#F8F8F8" stroke="white" stroke-width="3.07819" stroke-linecap="round" stroke-linejoin="round"/>
<path d="M190.424 29.6536H169.994V32.4377H190.424V29.6536Z" fill="#E2E2E2"/>
<path d="M191.102 39.2707C191.102 39.5576 190.995 39.8332 190.802 40.0385C190.609 40.2438 190.347 40.3627 190.072 40.3697C189.796 40.3766 189.529 40.2712 189.327 40.0759C189.125 39.8805 189.004 39.6107 188.991 39.3242C188.977 39.0376 189.072 38.7569 189.255 38.5421C189.438 38.3272 189.694 38.1952 189.969 38.1743C190.244 38.1534 190.516 38.2452 190.727 38.4301C190.938 38.615 191.071 38.8783 191.097 39.1639" fill="#FF005C"/>
<path d="M191.102 39.2707C191.102 39.5576 190.995 39.8332 190.802 40.0385C190.609 40.2438 190.347 40.3627 190.072 40.3697C189.796 40.3766 189.529 40.2712 189.327 40.0759C189.125 39.8805 189.004 39.6107 188.991 39.3242C188.977 39.0376 189.072 38.7569 189.255 38.5421C189.438 38.3272 189.694 38.1952 189.969 38.1743C190.244 38.1534 190.516 38.2452 190.727 38.4301C190.938 38.615 191.071 38.8783 191.097 39.1639" stroke="#F80760" stroke-width="1.64569" stroke-linecap="round" stroke-linejoin="round"/>
<path d="M194.144 62.4893H166.626V80.0284H194.144V62.4893Z" fill="#F8F8F8" stroke="white" stroke-width="3.07819" stroke-linecap="round" stroke-linejoin="round"/>
<path d="M190.484 65.7295H170.054V68.5136H190.484V65.7295Z" fill="#E2E2E2"/>
<path d="M194.084 44.4966H166.566V62.0358H194.084V44.4966Z" fill="#F8F8F8" stroke="white" stroke-width="3.07819" stroke-linecap="round" stroke-linejoin="round"/>
<path d="M190.333 47.2881H169.902V50.0722H190.333V47.2881Z" fill="#E2E2E2"/>
<path d="M191.11 57.7338C191.11 58.0208 191.003 58.2963 190.81 58.5016C190.617 58.707 190.355 58.8258 190.08 58.8328C189.804 58.8398 189.537 58.7343 189.335 58.539C189.133 58.3437 189.012 58.0739 188.999 57.7873C188.985 57.5007 189.08 57.22 189.263 57.0052C189.446 56.7903 189.702 56.6584 189.977 56.6375C190.252 56.6165 190.524 56.7083 190.735 56.8932C190.946 57.0781 191.079 57.3415 191.105 57.627" fill="#FFFA00"/>
<path d="M191.11 57.7338C191.11 58.0208 191.003 58.2963 190.81 58.5016C190.617 58.707 190.355 58.8258 190.08 58.8328C189.804 58.8398 189.537 58.7343 189.335 58.539C189.133 58.3437 189.012 58.0739 188.999 57.7873C188.985 57.5007 189.08 57.22 189.263 57.0052C189.446 56.7903 189.702 56.6584 189.977 56.6375C190.252 56.6165 190.524 56.7083 190.735 56.8932C190.946 57.0781 191.079 57.3415 191.105 57.627" stroke="#FFFA00" stroke-width="1.64569" stroke-linecap="round" stroke-linejoin="round"/>
<path d="M194.756 80.6235H167.238V98.1627H194.756V80.6235Z" fill="#F8F8F8" stroke="white" stroke-width="3.07819" stroke-linecap="round" stroke-linejoin="round"/>
<path d="M190.728 83.699H170.297V86.4831H190.728V83.699Z" fill="#E2E2E2"/>
<path d="M192.058 93.9365C192.058 94.2234 191.951 94.4989 191.758 94.7043C191.565 94.9096 191.303 95.0285 191.028 95.0354C190.752 95.0424 190.485 94.937 190.283 94.7416C190.081 94.5463 189.96 94.2765 189.947 93.9899C189.933 93.7033 190.028 93.4227 190.211 93.2078C190.394 92.993 190.65 92.861 190.925 92.8401C191.2 92.8192 191.472 92.9109 191.683 93.0958C191.894 93.2807 192.027 93.5441 192.053 93.8296" fill="#00FFFF"/>
<path d="M192.058 93.9365C192.058 94.2234 191.951 94.4989 191.758 94.7043C191.565 94.9096 191.303 95.0285 191.028 95.0354C190.752 95.0424 190.485 94.937 190.283 94.7416C190.081 94.5463 189.96 94.2765 189.947 93.9899C189.933 93.7033 190.028 93.4227 190.211 93.2078C190.394 92.993 190.65 92.861 190.925 92.8401C191.2 92.8192 191.472 92.9109 191.683 93.0958C191.894 93.2807 192.027 93.5441 192.053 93.8296" stroke="#00FFFF" stroke-width="1.64569" stroke-linecap="round" stroke-linejoin="round"/>
<path d="M191.198 75.9433C191.198 76.2302 191.091 76.5058 190.898 76.7111C190.706 76.9165 190.443 77.0353 190.168 77.0423C189.892 77.0493 189.625 76.9438 189.423 76.7485C189.221 76.5531 189.1 76.2834 189.087 75.9968C189.074 75.7102 189.168 75.4295 189.351 75.2147C189.534 74.9998 189.79 74.8678 190.065 74.8469C190.34 74.826 190.612 74.9178 190.823 75.1027C191.034 75.2876 191.167 75.5509 191.194 75.8365" fill="#FF005C"/>
<path d="M191.198 75.9433C191.198 76.2302 191.091 76.5058 190.898 76.7111C190.706 76.9165 190.443 77.0353 190.168 77.0423C189.892 77.0493 189.625 76.9438 189.423 76.7485C189.221 76.5531 189.1 76.2834 189.087 75.9968C189.074 75.7102 189.168 75.4295 189.351 75.2147C189.534 74.9998 189.79 74.8678 190.065 74.8469C190.34 74.826 190.612 74.9178 190.823 75.1027C191.034 75.2876 191.167 75.5509 191.194 75.8365" stroke="#F80760" stroke-width="1.64569" stroke-linecap="round" stroke-linejoin="round"/>
<path d="M133.657 43.4933H106.14V61.0325H133.657V43.4933Z" fill="#F8F8F8" stroke="white" stroke-width="3.07819" stroke-linecap="round" stroke-linejoin="round"/>
<path d="M130.45 47.0039H110.019V49.788H130.45V47.0039Z" fill="#E2E2E2"/>
<path d="M130.224 56.8392C130.224 57.1261 130.116 57.4016 129.924 57.607C129.731 57.8123 129.469 57.9312 129.194 57.9381C128.918 57.9451 128.651 57.8397 128.449 57.6443C128.247 57.449 128.126 57.1792 128.113 56.8926C128.099 56.6061 128.194 56.3254 128.377 56.1105C128.56 55.8957 128.816 55.7637 129.091 55.7428C129.366 55.7219 129.638 55.8137 129.849 55.9986C130.059 56.1834 130.192 56.4468 130.219 56.7324" fill="#00FFFF"/>
<path d="M130.224 56.8392C130.224 57.1261 130.116 57.4016 129.924 57.607C129.731 57.8123 129.469 57.9312 129.194 57.9381C128.918 57.9451 128.651 57.8397 128.449 57.6443C128.247 57.449 128.126 57.1792 128.113 56.8926C128.099 56.6061 128.194 56.3254 128.377 56.1105C128.56 55.8957 128.816 55.7637 129.091 55.7428C129.366 55.7219 129.638 55.8137 129.849 55.9986C130.059 56.1834 130.192 56.4468 130.219 56.7324" stroke="#00FFFF" stroke-width="1.64569" stroke-linecap="round" stroke-linejoin="round"/>
<path d="M133.717 62.019H106.2V79.5582H133.717V62.019Z" fill="#F8F8F8" stroke="white" stroke-width="3.07819" stroke-linecap="round" stroke-linejoin="round"/>
<path d="M130.009 65.3667H109.579V68.1508H130.009V65.3667Z" fill="#E2E2E2"/>
<path d="M130.48 75.6479C130.48 75.9348 130.372 76.2104 130.18 76.4157C129.987 76.621 129.725 76.7399 129.449 76.7469C129.174 76.7539 128.906 76.6484 128.705 76.4531C128.503 76.2577 128.382 75.9879 128.369 75.7014C128.355 75.4148 128.45 75.1341 128.633 74.9193C128.816 74.7044 129.072 74.5724 129.347 74.5515C129.622 74.5306 129.894 74.6224 130.105 74.8073C130.315 74.9922 130.448 75.2555 130.475 75.5411" fill="#00FFFF"/>
<path d="M130.48 75.6479C130.48 75.9348 130.372 76.2104 130.18 76.4157C129.987 76.621 129.725 76.7399 129.449 76.7469C129.174 76.7539 128.906 76.6484 128.705 76.4531C128.503 76.2577 128.382 75.9879 128.369 75.7014C128.355 75.4148 128.45 75.1341 128.633 74.9193C128.816 74.7044 129.072 74.5724 129.347 74.5515C129.622 74.5306 129.894 74.6224 130.105 74.8073C130.315 74.9922 130.448 75.2555 130.475 75.5411" stroke="#00FFFF" stroke-width="1.64569" stroke-linecap="round" stroke-linejoin="round"/>
<path d="M241.124 12.0226H77.3969V23.8347H241.124V12.0226Z" fill="#F8F8F8" stroke="white" stroke-width="3.07819" stroke-linecap="round" stroke-linejoin="round"/>
<path d="M227.845 17.8522C227.845 18.1392 227.737 18.4147 227.544 18.62C227.352 18.8254 227.09 18.9442 226.814 18.9512C226.538 18.9582 226.271 18.8527 226.069 18.6574C225.867 18.4621 225.746 18.1923 225.733 17.9057C225.72 17.6191 225.814 17.3384 225.997 17.1236C226.18 16.9088 226.436 16.7768 226.711 16.7559C226.986 16.7349 227.258 16.8267 227.469 17.0116C227.68 17.1965 227.813 17.4599 227.84 17.7454" fill="#E2E2E2"/>
<path d="M227.845 17.8522C227.845 18.1392 227.737 18.4147 227.544 18.62C227.352 18.8254 227.09 18.9442 226.814 18.9512C226.538 18.9582 226.271 18.8527 226.069 18.6574C225.867 18.4621 225.746 18.1923 225.733 17.9057C225.72 17.6191 225.814 17.3384 225.997 17.1236C226.18 16.9088 226.436 16.7768 226.711 16.7559C226.986 16.7349 227.258 16.8267 227.469 17.0116C227.68 17.1965 227.813 17.4599 227.84 17.7454" stroke="#E2E2E2" stroke-width="1.64569" stroke-linecap="round" stroke-linejoin="round"/>
<path d="M222.132 17.8522C222.132 18.1392 222.024 18.4147 221.831 18.62C221.639 18.8254 221.376 18.9442 221.101 18.9512C220.825 18.9582 220.558 18.8527 220.356 18.6574C220.154 18.4621 220.033 18.1923 220.02 17.9057C220.007 17.6191 220.101 17.3384 220.284 17.1236C220.467 16.9088 220.723 16.7768 220.998 16.7559C221.273 16.7349 221.545 16.8267 221.756 17.0116C221.967 17.1965 222.1 17.4599 222.127 17.7454" fill="#E2E2E2"/>
<path d="M222.132 17.8522C222.132 18.1392 222.024 18.4147 221.831 18.62C221.639 18.8254 221.376 18.9442 221.101 18.9512C220.825 18.9582 220.558 18.8527 220.356 18.6574C220.154 18.4621 220.033 18.1923 220.02 17.9057C220.007 17.6191 220.101 17.3384 220.284 17.1236C220.467 16.9088 220.723 16.7768 220.998 16.7559C221.273 16.7349 221.545 16.8267 221.756 17.0116C221.967 17.1965 222.1 17.4599 222.127 17.7454" stroke="#E2E2E2" stroke-width="1.64569" stroke-linecap="round" stroke-linejoin="round"/>
<path d="M216.629 18.0395C216.629 18.3264 216.521 18.602 216.328 18.8073C216.136 19.0126 215.874 19.1315 215.598 19.1385C215.323 19.1454 215.055 19.04 214.853 18.8447C214.651 18.6493 214.531 18.3795 214.517 18.093C214.504 17.8064 214.599 17.5257 214.781 17.3109C214.964 17.096 215.22 16.964 215.495 16.9431C215.77 16.9222 216.042 17.014 216.253 17.1989C216.464 17.3838 216.597 17.6471 216.624 17.9327" fill="#E2E2E2"/>
<path d="M216.629 18.0395C216.629 18.3264 216.521 18.602 216.328 18.8073C216.136 19.0126 215.874 19.1315 215.598 19.1385C215.323 19.1454 215.055 19.04 214.853 18.8447C214.651 18.6493 214.531 18.3795 214.517 18.093C214.504 17.8064 214.599 17.5257 214.781 17.3109C214.964 17.096 215.22 16.964 215.495 16.9431C215.77 16.9222 216.042 17.014 216.253 17.1989C216.464 17.3838 216.597 17.6471 216.624 17.9327" stroke="#E8E8E8" stroke-width="1.64569" stroke-linecap="round" stroke-linejoin="round"/>
<path d="M162.826 16.1182H108.515V18.9023H162.826V16.1182Z" fill="#E2E2E2"/>
<path d="M104.226 24.5504H77.3969V100.434H104.226V24.5504Z" fill="#F8F8F8" stroke="white" stroke-width="3.07819" stroke-linecap="round" stroke-linejoin="round"/>
<path d="M101.432 46.5039H81.0017V47.5163H101.432V46.5039Z" fill="#E2E2E2"/>
<path d="M101.422 43.6342H80.9917V44.6466H101.422V43.6342Z" fill="#E2E2E2"/>
<path d="M101.436 40.5853H81.0058V41.5977H101.436V40.5853Z" fill="#E2E2E2"/>
<path d="M101.432 37.4554H81.0017V38.4679H101.432V37.4554Z" fill="#E2E2E2"/>
<path d="M101.13 28.3091H80.6992V31.0932H101.13V28.3091Z" fill="#E2E2E2"/>
<path d="M101.389 34.2716H80.9583V35.284H101.389V34.2716Z" fill="#E2E2E2"/>
<path d="M133.463 25.6243H105.946V43.1634H133.463V25.6243Z" fill="#F8F8F8" stroke="white" stroke-width="3.07819" stroke-linecap="round" stroke-linejoin="round"/>
<path d="M130.204 39.2665C130.204 39.5535 130.096 39.829 129.904 40.0344C129.711 40.2397 129.449 40.3585 129.174 40.3655C128.898 40.3725 128.631 40.2671 128.429 40.0717C128.227 39.8764 128.106 39.6066 128.093 39.32C128.079 39.0334 128.174 38.7527 128.357 38.5379C128.54 38.3231 128.796 38.1911 129.071 38.1702C129.346 38.1492 129.618 38.241 129.829 38.4259C130.039 38.6108 130.172 38.8742 130.199 39.1597" fill="#00FFFF"/>
<path d="M130.204 39.2665C130.204 39.5535 130.096 39.829 129.904 40.0344C129.711 40.2397 129.449 40.3585 129.174 40.3655C128.898 40.3725 128.631 40.2671 128.429 40.0717C128.227 39.8764 128.106 39.6066 128.093 39.32C128.079 39.0334 128.174 38.7527 128.357 38.5379C128.54 38.3231 128.796 38.1911 129.071 38.1702C129.346 38.1492 129.618 38.241 129.829 38.4259C130.039 38.6108 130.172 38.8742 130.199 39.1597" stroke="#00FFFF" stroke-width="1.64569" stroke-linecap="round" stroke-linejoin="round"/>
<path d="M163.422 26.0332H135.905V43.5724H163.422V26.0332Z" fill="#F8F8F8" stroke="white" stroke-width="3.07819" stroke-linecap="round" stroke-linejoin="round"/>
<path d="M159.479 29.6536H139.049V32.4377H159.479V29.6536Z" fill="#E2E2E2"/>
<path d="M160.273 39.7203C160.273 40.0072 160.166 40.2827 159.973 40.4881C159.78 40.6934 159.518 40.8123 159.243 40.8193C158.967 40.8262 158.7 40.7208 158.498 40.5254C158.296 40.3301 158.175 40.0603 158.162 39.7737C158.148 39.4872 158.243 39.2065 158.426 38.9916C158.609 38.7768 158.865 38.6448 159.14 38.6239C159.415 38.603 159.687 38.6948 159.898 38.8797C160.109 39.0646 160.242 39.3279 160.268 39.6135" fill="#FFFA00"/>
<path d="M160.273 39.7203C160.273 40.0072 160.166 40.2827 159.973 40.4881C159.78 40.6934 159.518 40.8123 159.243 40.8193C158.967 40.8262 158.7 40.7208 158.498 40.5254C158.296 40.3301 158.175 40.0603 158.162 39.7737C158.148 39.4872 158.243 39.2065 158.426 38.9916C158.609 38.7768 158.865 38.6448 159.14 38.6239C159.415 38.603 159.687 38.6948 159.898 38.8797C160.109 39.0646 160.242 39.3279 160.268 39.6135" stroke="#FFFA00" stroke-width="1.64569" stroke-linecap="round" stroke-linejoin="round"/>
<path d="M163.419 44.2257H135.901V61.7649H163.419V44.2257Z" fill="#F8F8F8" stroke="white" stroke-width="3.07819" stroke-linecap="round" stroke-linejoin="round"/>
<path d="M159.722 47.2422H139.292V50.0263H159.722V47.2422Z" fill="#E2E2E2"/>
<path d="M236.813 17.9283C236.813 18.4421 236.602 18.9356 236.226 19.3033C235.85 19.671 235.338 19.8839 234.799 19.8964C234.261 19.9089 233.738 19.7201 233.344 19.3702C232.949 19.0204 232.714 18.5373 232.688 18.024C232.661 17.5108 232.847 17.0082 233.204 16.6234C233.561 16.2387 234.061 16.0023 234.598 15.9648C235.136 15.9274 235.667 16.0917 236.079 16.4229C236.491 16.754 236.751 17.2256 236.803 17.737" fill="#00FFFF"/>
<path d="M236.813 17.9283C236.813 18.4421 236.602 18.9356 236.226 19.3033C235.85 19.671 235.338 19.8839 234.799 19.8964C234.261 19.9089 233.738 19.7201 233.344 19.3702C232.949 19.0204 232.714 18.5373 232.688 18.024C232.661 17.5108 232.847 17.0082 233.204 16.6234C233.561 16.2387 234.061 16.0023 234.598 15.9648C235.136 15.9274 235.667 16.0917 236.079 16.4229C236.491 16.754 236.751 17.2256 236.803 17.737" stroke="#00FFFF" stroke-width="3.07819" stroke-linecap="round" stroke-linejoin="round"/>
<path d="M160.633 57.2053C160.633 57.4922 160.526 57.7677 160.333 57.9731C160.14 58.1784 159.878 58.2973 159.603 58.3042C159.327 58.3112 159.06 58.2058 158.858 58.0104C158.656 57.8151 158.535 57.5453 158.522 57.2587C158.508 56.9722 158.603 56.6915 158.786 56.4766C158.969 56.2618 159.225 56.1298 159.5 56.1089C159.775 56.088 160.047 56.1798 160.258 56.3647C160.469 56.5495 160.602 56.8129 160.628 57.0985" fill="#00FFFF"/>
<path d="M160.633 57.2053C160.633 57.4922 160.526 57.7677 160.333 57.9731C160.14 58.1784 159.878 58.2973 159.603 58.3042C159.327 58.3112 159.06 58.2058 158.858 58.0104C158.656 57.8151 158.535 57.5453 158.522 57.2587C158.508 56.9722 158.603 56.6915 158.786 56.4766C158.969 56.2618 159.225 56.1298 159.5 56.1089C159.775 56.088 160.047 56.1798 160.258 56.3647C160.469 56.5495 160.602 56.8129 160.628 57.0985" stroke="#00FFFF" stroke-width="1.64569" stroke-linecap="round" stroke-linejoin="round"/>
<path d="M129.87 29.2211H109.44V32.0052H129.87V29.2211Z" fill="#E2E2E2"/>
<path d="M115.549 141.048C126.659 145.348 131.858 150.99 137.195 159.778C144.104 161.838 149.972 160.567 149.113 153.197C145.002 147.471 141.73 139.123 136.466 136.998L128.196 132.443L115.549 141.048Z" fill="white" stroke="black" stroke-width="1.53909" stroke-linecap="round" stroke-linejoin="round"/>
<path d="M201.802 97.7981L157.086 84.9121C127.71 72.3942 104.815 77.8631 83.1338 86.7018C61.9967 96.335 57.9288 93.2127 44.3859 127.437C42.817 133.865 21.607 160.629 7.5589 172.939C28.5417 170.964 55.9768 171.106 64.4725 140.542L82.9572 97.0084C78.9927 110.878 72.9248 115.993 71.2826 139.53L66.9047 174.964C71.4331 178.447 75.348 178.737 78.5792 175.47L86.8487 146.617C105.408 145.39 118.356 141.243 129.169 135.986C150.849 138.647 174.972 136.857 191.92 148.135L191.433 172.433C194.354 177.228 200.276 179.371 204.043 174.729C206.375 164.171 207.261 153.634 207 147.123L200.676 128.393C226.136 133.786 254.158 133.848 277.047 144.592C280.235 140.711 280.653 136.83 279.966 132.949C256.509 115.826 227.859 109.511 201.802 97.7981Z" fill="white" stroke="black" stroke-width="1.53909" stroke-linecap="round" stroke-linejoin="round"/>
<path d="M258.319 118.142C258.319 125.42 255.07 132.399 249.286 137.548C243.501 142.698 235.655 145.595 227.469 145.604C219.284 145.613 211.429 142.734 205.63 137.598C199.831 132.462 196.562 125.489 196.541 118.212C196.52 110.935 199.75 103.948 205.519 98.7855C211.289 93.6235 219.127 90.7085 227.313 90.6809C235.498 90.6532 243.361 93.5153 249.175 98.6382C254.989 103.761 258.277 110.726 258.319 118.003" fill="white"/>
<path d="M258.319 118.142C258.319 125.42 255.07 132.399 249.286 137.548C243.501 142.698 235.655 145.595 227.469 145.604C219.284 145.613 211.429 142.734 205.63 137.598C199.831 132.462 196.562 125.489 196.541 118.212C196.52 110.935 199.75 103.948 205.519 98.7855C211.289 93.6235 219.127 90.7085 227.313 90.6809C235.498 90.6532 243.361 93.5153 249.175 98.6382C254.989 103.761 258.277 110.726 258.319 118.003" stroke="black" stroke-width="1.53909" stroke-linecap="round" stroke-linejoin="round"/>
<path d="M251.509 101.311C255.44 99.0375 256.998 90.3055 252.239 83.5938C247.774 83.7503 241.656 87.4739 239.105 92.9586C234.865 89.2969 215.567 90.8982 216.972 92.7055C214.012 88.5495 209.465 85.21 203.351 83.5938C197.915 90.8439 200.782 96.6293 200.919 104.601C209.934 107.706 217.821 111.986 222.322 119.788C226.833 131.401 236.466 127.143 236.186 119.281C238.102 110.708 243.767 105.169 251.509 101.311Z" fill="black"/>
<path d="M215.277 115.816C211.408 117.555 209.294 116.71 206.291 116.085C208.422 116.323 210.68 116.262 213.041 115.19C217.026 113.759 216.835 114.638 215.277 115.816Z" fill="black" stroke="black" stroke-width="1.53909" stroke-linecap="round" stroke-linejoin="round"/>
<path d="M217.924 121.89C213.702 124.075 210.913 122.978 208.981 119.921" stroke="black" stroke-width="1.53909" stroke-linecap="round" stroke-linejoin="round"/>
<path d="M89.2808 84.3533C91.3759 90.6584 85.4223 96.8256 102.869 100.312C109.69 101.234 114.177 102.028 114.199 105.527C118.08 118.036 131.878 106.285 135.249 119.661C138.263 127.103 164.663 134.687 157.518 116.28C156.311 112.453 156.423 104.3 162.831 106.527C186.148 116.41 178.97 99.3319 185.596 99.0333C191.593 97.3889 198.121 95.7661 188.028 93.465L144.249 80.3036C125.035 75.0822 107.841 78.2534 89.2808 84.3533Z" fill="black" stroke="black" stroke-width="1.53909" stroke-linecap="round" stroke-linejoin="round"/>
<path d="M7.55886 172.433C1.30838 170.049 2.34352 168.297 7.07239 166.865L17.7741 162.815C14.9562 162.9 12.4173 162.598 10.9639 160.79C15.8283 158.014 20.6927 155.71 25.5571 156.234L20.2063 153.197C22.1401 151.617 15.167 152.89 33.3402 146.11C26.081 144.36 38.7418 137.993 42.0961 133.961C45.0316 124.083 44.1369 140.783 45.0148 145.098C46.7684 139.09 47.839 133.931 50.8816 145.425C71.6156 135.196 61.1009 146.598 58.2667 154.025C55.3063 156.69 43.9329 174.872 47.9334 164.334C42.0961 166.696 22.4929 181.593 30.4215 171.421C24.1494 173.512 6.99943 182.641 15.8283 174.964C5.02342 176.663 -6.61944 178.626 7.55886 172.433Z" fill="black" stroke="black" stroke-width="1.53909" stroke-linecap="round" stroke-linejoin="round"/>
<path d="M70.553 146.87C79.4767 133.758 81.2744 138.752 81.9843 143.58C81.559 140.5 77.3355 136.542 87.8216 135.986C89.7783 130.573 102.809 131.362 104.117 136.746C116.736 140.647 115.834 142.514 97.064 144.592L86.3623 146.111C87.4565 147.858 79.8768 166.527 77.6064 175.977C74.0391 178.304 70.4719 176.28 66.9047 175.471L70.553 146.87Z" fill="black" stroke="black" stroke-width="1.53909" stroke-linecap="round" stroke-linejoin="round"/>
<path d="M118.224 141.301C125.43 147.105 135.599 153.365 133.547 142.567C130.761 134.738 135.409 137.454 137.925 138.517C141.654 141.743 145.384 148.176 149.113 153.197C150.782 158.54 147.12 162.281 138.411 161.55L118.224 141.301Z" fill="black" stroke="black" stroke-width="1.53909" stroke-linecap="round" stroke-linejoin="round"/>
<path d="M192.65 151.426C193.21 151.321 186.223 141.857 201.405 149.148C201.723 145.93 201.643 141.954 204.567 142.061C206 143.046 205.932 142.093 206.756 148.136L205.054 174.458C200.035 179.414 195.888 177.574 192.163 172.434L192.65 151.426Z" fill="black" stroke="black" stroke-width="1.53909" stroke-linecap="round" stroke-linejoin="round"/>
<path d="M256.617 137.505C261.917 139.306 265.041 136.956 259.049 125.103C258.478 120.794 261.928 122.763 265.129 124.343L279.966 132.949C282.19 139.217 280.649 142.872 277.047 145.098L256.617 137.505Z" fill="black" stroke="black" stroke-width="1.53909" stroke-linecap="round" stroke-linejoin="round"/>
<path d="M239.426 119.702C243.648 121.887 246.436 120.79 248.369 117.733" stroke="black" stroke-width="1.53909" stroke-linecap="round" stroke-linejoin="round"/>
<path d="M241.185 113.787C245.053 115.525 247.167 114.68 250.171 114.055C248.039 114.293 245.781 114.232 243.42 113.16C239.435 111.73 239.626 112.608 241.185 113.787Z" fill="black" stroke="black" stroke-width="1.53909" stroke-linecap="round" stroke-linejoin="round"/>
<path d="M227.725 129.031C230.565 127.336 232.82 127.77 235.022 128.398C234.486 130.273 233.699 131.27 231.86 132.448C230.598 131.831 228.995 131.685 227.725 129.031Z" fill="black" stroke="black" stroke-width="1.53909" stroke-linecap="round" stroke-linejoin="round"/>
<path d="M237.889 138.011C237.889 138.573 237.771 139.112 237.56 139.514C237.349 139.916 237.063 140.148 236.761 140.162C236.46 140.176 236.168 139.969 235.947 139.587C235.726 139.205 235.594 138.677 235.579 138.116C235.565 137.555 235.668 137.006 235.868 136.585C236.068 136.165 236.348 135.907 236.649 135.866C236.95 135.825 237.247 136.004 237.478 136.366C237.708 136.728 237.854 137.243 237.883 137.802" fill="black"/>
<path d="M237.889 138.011C237.889 138.573 237.771 139.112 237.56 139.514C237.349 139.916 237.063 140.148 236.761 140.162C236.46 140.176 236.168 139.969 235.947 139.587C235.726 139.205 235.594 138.677 235.579 138.116C235.565 137.555 235.668 137.006 235.868 136.585C236.068 136.165 236.348 135.907 236.649 135.866C236.95 135.825 237.247 136.004 237.478 136.366C237.708 136.728 237.854 137.243 237.883 137.802" stroke="black" stroke-width="1.53909" stroke-linecap="round" stroke-linejoin="round"/>
<path d="M55.81 146.765C58.1681 146.169 65.8436 127.16 62.9412 124.454C62.3403 123.894 59.5662 123.674 57.9176 124.819C45.7577 131.213 57.7546 112.402 73.9946 93.8896C85.0533 85.1014 61.0673 93.0066 52.7978 109.664L40.1503 134.974C38.473 149.473 48.4859 149.662 55.81 146.765Z" fill="black" stroke="black" stroke-width="1.53909" stroke-linecap="round" stroke-linejoin="round"/>
<path d="M265.859 71.1917H276.561L266.832 81.822H276.561" stroke="black" stroke-width="3.07819" stroke-linecap="round" stroke-linejoin="round"/>
<path d="M262.848 99.9568H266.99L263.224 104.457H266.99" stroke="black" stroke-width="1.24597" stroke-linecap="round" stroke-linejoin="round"/>
<path d="M270.548 89.1748H275.845L271.029 95.1934H275.845" stroke="black" stroke-width="1.62952" stroke-linecap="round" stroke-linejoin="round"/>
</svg>
