<svg width="234" height="189" viewBox="0 0 234 189" fill="none" xmlns="http://www.w3.org/2000/svg">
<path d="M153.569 59.407H18.0024V147.931H153.569V59.407Z" fill="#1A1A1A"/>
<path d="M18.2658 146.879L1 168.401H167.253L153.886 146.879H18.2658Z" fill="#1A1A1A" stroke="#1A1A1A" stroke-width="0.755906" stroke-linecap="round" stroke-linejoin="round"/>
<path d="M24.3924 148.374H145.532L148.317 155.249L19.3798 154.95L24.3924 148.374Z" fill="#090909" stroke="#090909" stroke-width="0.755906" stroke-linecap="round" stroke-linejoin="round"/>
<path d="M67.9031 156.795H93.5234L93.8018 165.164C93.8018 165.164 67.9031 166.061 67.9031 164.865C67.9031 163.67 67.9031 156.795 67.9031 156.795Z" fill="#090909" stroke="#090909" stroke-width="0.755906" stroke-linecap="round" stroke-linejoin="round"/>
<path d="M144.975 67.0703H24.9494V144.787H144.975V67.0703Z" fill="#090909" stroke="#090909" stroke-width="0.755906" stroke-linecap="round" stroke-linejoin="round"/>
<path d="M62.2464 78.8997H47.0198V79.3911H62.2464V78.8997Z" fill="#828282"/>
<path d="M65.3813 80.6909H50.1547V81.1824H65.3813V80.6909Z" fill="#FF6600"/>
<path d="M44.2392 74.3096H29.0126V74.801H44.2392V74.3096Z" fill="#828282"/>
<path d="M75.2356 76.8718H40.6207V77.2491H75.2356V76.8718Z" fill="#00FFFF"/>
<path d="M78.8843 84.0659H63.6578V84.5574H78.8843V84.0659Z" fill="#828282"/>
<path d="M74.9331 82.3818H59.7065V82.8733H74.9331V82.3818Z" fill="#FFFF00"/>
<path d="M78.6003 85.8225H63.3738V86.314H78.6003V85.8225Z" fill="#828282"/>
<path d="M91.9213 91.259H44.5505V91.7505H91.9213V91.259Z" fill="#800080"/>
<path d="M133.93 94.634H86.5595V95.1255H133.93V94.634Z" fill="#828282"/>
<path d="M121.638 92.95H74.2671V93.4414H121.638V92.95Z" fill="#00FF00"/>
<path d="M133.047 96.3906H85.676V96.8821H133.047V96.3906Z" fill="#828282"/>
<path d="M75.8435 88.5703H41.1223V88.2163H75.8435V88.5703Z" fill="#00FFFF"/>
<path d="M54.1142 118.951H44.7911V118.459H54.1142V118.951Z" fill="#828282"/>
<path d="M49.9989 124.142H40.6758V123.651H49.9989V124.142Z" fill="#828282"/>
<path d="M56.9959 116.861H45.0273V116.369H56.9959V116.861Z" fill="#FF6600"/>
<path d="M40.9345 127.726H28.9658V127.234H40.9345V127.726Z" fill="#828282"/>
<path d="M67.6659 121.726H40.4573V121.349H67.6659V121.726Z" fill="#00FFFF"/>
<path d="M67.6099 113.486H55.6412V112.994H67.6099V113.486Z" fill="#828282"/>
<path d="M61.58 115.17H43.624V114.828H61.58V115.17Z" fill="#FFFF00"/>
<path d="M67.3867 111.729H55.418V111.238H67.3867V111.729Z" fill="#828282"/>
<path d="M81.3384 105.993H44.1032V105.502H81.3384V105.993Z" fill="#800080"/>
<path d="M102.802 103.366H86.0353V102.875H102.802V103.366Z" fill="#828282"/>
<path d="M111.102 99.6697H73.8667V99.1782H111.102V99.6697Z" fill="#00FF00"/>
<path d="M118.399 101.31H85.6193V100.819H118.399V101.31Z" fill="#828282"/>
<path d="M77.1944 107.636H49.9022V107.99H77.1944V107.636Z" fill="#00FFFF"/>
<path d="M72.2194 41.2168C75.3955 41.7436 78.627 42.1235 82.4051 41.0547C82.9238 44.5509 82.5734 48.1112 81.6252 51.7154C78.6581 52.9183 75.6911 52.7102 72.7241 51.756C71.8012 48.0762 71.6743 44.5723 72.2194 41.2168Z" fill="#B3B3B3"/>
<path d="M72.6395 51.7024C72.0895 48.5194 71.6476 45.241 72.1204 41.1545C70.7361 34.1226 63.7113 29.3055 67.9677 20.0588C71.7571 11.9412 84.0231 12.3035 87.1741 19.6001C90.8699 26.4009 86.1067 33.7472 82.5022 41.1545C82.6572 44.388 82.5984 47.7477 81.7236 51.5877C79.5638 52.6998 76.5296 52.7304 72.6395 51.7024Z" fill="white" stroke="black" stroke-width="1.35586" stroke-linecap="round" stroke-linejoin="round"/>
<path d="M72.1204 41.1547C75.4512 41.8462 78.7821 41.8766 82.1129 41.04Z" fill="white"/>
<path d="M72.1204 41.1547C75.4512 41.8462 78.7821 41.8766 82.1129 41.04" stroke="black" stroke-width="0.90391" stroke-linecap="round" stroke-linejoin="round"/>
<path d="M72.1774 42.5394C75.5082 43.2309 78.839 43.2614 82.1699 42.4248Z" fill="white"/>
<path d="M72.1774 42.5394C75.5082 43.2309 78.839 43.2614 82.1699 42.4248" stroke="black" stroke-width="0.90391" stroke-linecap="round" stroke-linejoin="round"/>
<path d="M72.386 43.9865C75.7169 44.678 79.0477 44.7084 82.3786 43.8718Z" fill="white"/>
<path d="M72.386 43.9865C75.7169 44.678 79.0477 44.7084 82.3786 43.8718" stroke="black" stroke-width="0.90391" stroke-linecap="round" stroke-linejoin="round"/>
<path d="M72.3691 45.5561C75.6999 46.2475 79.0308 46.278 82.3616 45.4414Z" fill="white"/>
<path d="M72.3691 45.5561C75.6999 46.2475 79.0308 46.278 82.3616 45.4414" stroke="black" stroke-width="0.90391" stroke-linecap="round" stroke-linejoin="round"/>
<path d="M72.2074 47.0897C75.5382 47.7812 78.8691 47.8116 82.1999 46.9751Z" fill="white"/>
<path d="M72.2074 47.0897C75.5382 47.7812 78.8691 47.8116 82.1999 46.9751" stroke="black" stroke-width="0.90391" stroke-linecap="round" stroke-linejoin="round"/>
<path d="M72.373 48.629C75.7038 49.3205 79.0347 49.351 82.3655 48.5144Z" fill="white"/>
<path d="M72.373 48.629C75.7038 49.3205 79.0347 49.351 82.3655 48.5144" stroke="black" stroke-width="0.90391" stroke-linecap="round" stroke-linejoin="round"/>
<path d="M72.788 50.1874C75.9067 50.891 79.0255 50.922 82.1442 50.0708Z" fill="white"/>
<path d="M72.788 50.1874C75.9067 50.891 79.0255 50.922 82.1442 50.0708" stroke="black" stroke-width="0.882261" stroke-linecap="round" stroke-linejoin="round"/>
<path d="M80.9613 31.9586C80.9613 33.1966 80.5661 34.3847 79.8615 35.2649C79.1569 36.1451 78.1998 36.6462 77.198 36.6595C76.1963 36.6729 75.2307 36.1973 74.5109 35.3361C73.7911 34.475 73.3753 33.2977 73.3537 32.0599C73.3321 30.8221 73.7065 29.6238 74.3956 28.725C75.0847 27.8263 76.0328 27.2998 77.0341 27.2598C78.0354 27.2198 79.0091 27.6695 79.7437 28.5113C80.4783 29.3531 80.9146 30.5191 80.9577 31.756" fill="#FFFF00"/>
<path d="M80.9613 31.9586C80.9613 33.1966 80.5661 34.3847 79.8615 35.2649C79.1569 36.1451 78.1998 36.6462 77.198 36.6595C76.1963 36.6729 75.2307 36.1973 74.5109 35.3361C73.7911 34.475 73.3753 33.2977 73.3537 32.0599C73.3321 30.8221 73.7065 29.6238 74.3956 28.725C75.0847 27.8263 76.0328 27.2998 77.0341 27.2598C78.0354 27.2198 79.0091 27.6695 79.7437 28.5113C80.4783 29.3531 80.9146 30.5191 80.9577 31.756" stroke="black" stroke-width="0.778745" stroke-linecap="round" stroke-linejoin="round"/>
<path d="M75.5198 36.075L75.7561 41.476C77.3572 41.8408 77.9258 41.5214 78.9079 41.476L78.829 36.1318" fill="#FFFF00"/>
<path d="M75.5198 36.075L75.7561 41.476C77.3572 41.8408 77.9258 41.5214 78.9079 41.476L78.829 36.1318" stroke="black" stroke-width="0.90391" stroke-linecap="round" stroke-linejoin="round"/>
<path d="M58.7805 17.4397C57.4358 16.4245 56.1896 15.0008 54.6571 14.7653C52.1869 14.7244 51.935 16.6206 53.9355 17.0118C55.6535 17.2614 57.1892 17.3217 58.7805 17.4397Z" fill="black" stroke="black" stroke-width="1.55639" stroke-linecap="round" stroke-linejoin="round"/>
<path d="M95.3576 19.2181C96.7023 18.2029 97.9485 16.7791 99.481 16.5436C101.951 16.5027 102.203 18.3989 100.203 18.7901C98.4846 19.0397 96.9488 19.1001 95.3576 19.2181Z" fill="black" stroke="black" stroke-width="1.55639" stroke-linecap="round" stroke-linejoin="round"/>
<path d="M69.6854 8.18159C65.9863 3.5491 67.1483 4.67282 66.7232 3.91709C66.6007 2.13197 67.0592 -0.466617 69.4738 2.03278C70.013 3.64304 69.6463 6.10252 69.6854 8.18159Z" fill="black" stroke="black" stroke-width="1.23954" stroke-linecap="round" stroke-linejoin="round"/>
<path d="M85.1848 7.67034C87.5895 4.33726 86.8341 5.14577 87.1104 4.60203C87.1902 3.31763 86.8919 1.44794 85.3224 3.24626C84.9719 4.40484 85.2101 6.17445 85.1848 7.67034Z" fill="black" stroke="black" stroke-width="0.847713" stroke-linecap="round" stroke-linejoin="round"/>
<path d="M59.502 31.3469L53.5231 32.2027C49.4094 33.3198 52.6625 35.8896 53.9355 35.733C56.0263 35.5224 58.5416 32.4421 59.502 31.3469Z" fill="black" stroke="black" stroke-width="1.55639" stroke-linecap="round" stroke-linejoin="round"/>
<path d="M92.8738 33.4368L97.2286 33.9333C100.225 34.5813 97.8553 36.0722 96.9282 35.9813C95.4054 35.8591 93.5734 34.0721 92.8738 33.4368Z" fill="black" stroke="black" stroke-width="1.0117" stroke-linecap="round" stroke-linejoin="round"/>
<path d="M124.374 116.987C103.373 125.373 93.1404 137.289 84.3807 147.153C78.2372 152.724 79.8348 162.541 84.3838 163.333C85.7317 163.567 87.3406 164.181 90.3377 162.12C94.8876 159.971 103.823 143.417 117.436 141.434L124.374 116.987Z" fill="#999999" stroke="black" stroke-width="1.56175" stroke-linecap="round" stroke-linejoin="round"/>
<path d="M183.285 166.1C193.706 160.215 208.291 138.885 208.31 116.124C209.783 101.47 206.769 91.7254 217.537 82.722C220.496 79.6576 226.259 79.4053 229.685 81.0184C236.203 86.292 231.684 93.5699 230.619 93.6735C229.624 93.9416 228.707 94.831 224.429 92.4566C215.588 96.0643 217.186 109.451 216.077 120.687C213.251 165.632 190.908 163.006 183.285 166.1Z" fill="#999999" stroke="black" stroke-width="1.56176" stroke-linecap="round" stroke-linejoin="round"/>
<path d="M175.651 127.016C175.651 139.307 172.517 151.096 166.937 159.795C161.357 168.494 153.788 173.391 145.89 173.413C137.992 173.434 130.412 168.577 124.813 159.909C119.214 151.24 116.054 139.468 116.026 127.177C115.999 114.886 119.106 103.08 124.667 94.3514C130.227 85.6226 137.786 80.6842 145.683 80.6203C153.581 80.5563 161.172 85.3721 166.791 94.0104C172.409 102.649 175.595 114.403 175.65 126.694" fill="#999999"/>
<path d="M175.651 127.016C175.651 139.307 172.517 151.096 166.937 159.795C161.357 168.494 153.788 173.391 145.89 173.413C137.992 173.434 130.412 168.577 124.813 159.909C119.214 151.24 116.054 139.468 116.026 127.177C115.999 114.886 119.106 103.08 124.667 94.3514C130.227 85.6226 137.786 80.6842 145.683 80.6203C153.581 80.5563 161.172 85.3721 166.791 94.0104C172.409 102.649 175.595 114.403 175.65 126.694" stroke="black" stroke-width="1.56176" stroke-linecap="round" stroke-linejoin="round"/>
<path d="M129.706 87.9083C137.317 79.6831 152.371 76.1351 163.46 87.3707C180.155 102.633 192.591 110.769 194.857 147.231C194.35 166.886 185.591 174.325 178.776 180.003C171.909 185.171 165.744 186.409 158 187.345C149.39 187.44 141.197 185.754 130.699 187.896C123.412 186.11 121.215 177.946 130.202 174.725C135.591 173.494 141.873 172.649 150.554 172.844C132.628 167.005 133.333 134.123 158.744 135.752C160.888 136.031 162.088 136.745 162.956 137.462" fill="#999999"/>
<path d="M129.706 87.9083C137.317 79.6831 152.371 76.1351 163.46 87.3707C180.155 102.633 192.591 110.769 194.857 147.231C194.35 166.886 185.591 174.325 178.776 180.003C171.909 185.171 165.744 186.409 158 187.345C149.39 187.44 141.197 185.754 130.699 187.896C123.412 186.11 121.215 177.946 130.202 174.725C135.591 173.494 141.873 172.649 150.554 172.844C132.628 167.005 133.333 134.123 158.744 135.752C160.888 136.031 162.088 136.745 162.956 137.462" stroke="black" stroke-width="1.56176" stroke-linecap="round" stroke-linejoin="round"/>
<path d="M181.211 61.61C181.211 69.6621 177.338 77.3858 170.44 83.0882C163.542 88.7905 154.183 92.0063 144.413 92.0306C134.643 92.055 125.26 88.886 118.32 83.2181C111.381 77.5503 107.451 69.8461 107.392 61.7941C107.333 53.7421 111.149 45.9992 118.005 40.2626C124.861 34.5259 134.197 31.2635 143.966 31.1905C153.736 31.1174 163.142 34.2396 170.123 39.8727C177.104 45.5058 181.09 53.1903 181.209 61.2418" fill="#999999"/>
<path d="M181.211 61.61C181.211 69.6621 177.338 77.3858 170.44 83.0882C163.542 88.7905 154.183 92.0063 144.413 92.0306C134.643 92.055 125.26 88.886 118.32 83.2181C111.381 77.5503 107.451 69.8461 107.392 61.7941C107.333 53.7421 111.149 45.9992 118.005 40.2626C124.861 34.5259 134.197 31.2635 143.966 31.1905C153.736 31.1174 163.142 34.2396 170.123 39.8727C177.104 45.5058 181.09 53.1903 181.209 61.2418" stroke="black" stroke-width="1.56176" stroke-linecap="round" stroke-linejoin="round"/>
<path d="M113.465 45.3044C109.404 42.5626 107.558 33.4552 109.26 27.7821C114.978 27.1123 120.889 27.9471 127.481 34.1096C139.188 28.728 151.377 29.5294 160.654 32.6494C166.012 28.9512 171.344 25.3582 179.673 26.5235C181.219 34.9765 177.692 39.9375 174.26 43.7607" fill="#999999"/>
<path d="M113.465 45.3044C109.404 42.5626 107.558 33.4552 109.26 27.7821C114.978 27.1123 120.889 27.9471 127.481 34.1096C139.188 28.728 151.377 29.5294 160.654 32.6494C166.012 28.9512 171.344 25.3582 179.673 26.5235C181.219 34.9765 177.692 39.9375 174.26 43.7607" stroke="black" stroke-width="1.56175" stroke-linecap="round" stroke-linejoin="round"/>
<path d="M140.739 57.4173C140.739 60.8137 139.342 64.0712 136.853 66.4749C134.364 68.8785 130.988 70.2318 127.465 70.2377C123.942 70.2436 120.561 68.9016 118.064 66.5063C115.566 64.111 114.157 60.8581 114.144 57.4618C114.132 54.0655 115.518 50.8033 117.998 48.3913C120.479 45.9794 123.85 44.6148 127.373 44.5971C130.895 44.5794 134.281 45.9101 136.787 48.2971C139.293 50.6841 140.715 53.9322 140.739 57.3284" fill="#C2C2C2" fill-opacity="0.39"/>
<path d="M140.739 57.4173C140.739 60.8137 139.342 64.0712 136.853 66.4749C134.364 68.8785 130.988 70.2318 127.465 70.2377C123.942 70.2436 120.561 68.9016 118.064 66.5063C115.566 64.111 114.157 60.8581 114.144 57.4618C114.132 54.0655 115.518 50.8033 117.998 48.3913C120.479 45.9794 123.85 44.6148 127.373 44.5971C130.895 44.5794 134.281 45.9101 136.787 48.2971C139.293 50.6841 140.715 53.9322 140.739 57.3284" stroke="#EFEFEF" stroke-width="0.937055" stroke-linecap="round" stroke-linejoin="round"/>
<path d="M122.843 58.9342C129.068 52.9994 133.632 55.3202 135.066 61.5155" stroke="black" stroke-width="1.56175" stroke-linecap="round" stroke-linejoin="round"/>
<path d="M174.909 56.6412C174.909 60.0375 173.511 63.2951 171.023 65.6987C168.534 68.1024 165.158 69.4557 161.635 69.4616C158.112 69.4675 154.731 68.1255 152.234 65.7301C149.736 63.3348 148.327 60.082 148.314 56.6857C148.302 53.2893 149.688 50.0272 152.168 47.6152C154.649 45.2032 158.02 43.8386 161.543 43.821C165.065 43.8033 168.451 45.134 170.957 47.521C173.463 49.9079 174.885 53.1561 174.909 56.5523" fill="#C3C3C3" fill-opacity="0.389685"/>
<path d="M174.909 56.6412C174.909 60.0375 173.511 63.2951 171.023 65.6987C168.534 68.1024 165.158 69.4557 161.635 69.4616C158.112 69.4675 154.731 68.1255 152.234 65.7301C149.736 63.3348 148.327 60.082 148.314 56.6857C148.302 53.2893 149.688 50.0272 152.168 47.6152C154.649 45.2032 158.02 43.8386 161.543 43.821C165.065 43.8033 168.451 45.134 170.957 47.521C173.463 49.9079 174.885 53.1561 174.909 56.5523" stroke="#EFEFEF" stroke-width="0.937323" stroke-linecap="round" stroke-linejoin="round"/>
<path d="M164.579 58.4432C158.354 52.5085 153.79 54.8292 152.355 61.0245" stroke="black" stroke-width="1.56175" stroke-linecap="round" stroke-linejoin="round"/>
<path d="M140.68 58.0813C142.816 56.4904 145.577 56.1113 148.335 58.0813" stroke="#EFEFEF" stroke-width="0.937055" stroke-linecap="round" stroke-linejoin="round"/>
<path d="M141.178 63.7523C143.617 62.384 145.897 62.6647 148.116 63.5802C147.55 64.9047 147.07 66.0037 144.812 67.8823C141.698 65.9133 141.694 64.901 141.178 63.7523Z" fill="black" stroke="black" stroke-width="0.937055" stroke-linecap="round" stroke-linejoin="round"/>
<path d="M144.482 66.3337C146.292 78.9993 151.527 76.4305 153.072 72.5288" stroke="black" stroke-width="0.937055" stroke-linecap="round" stroke-linejoin="round"/>
<path d="M144.942 66.5496C143.133 79.2151 137.897 76.6464 136.353 72.7447" stroke="black" stroke-width="0.937055" stroke-linecap="round" stroke-linejoin="round"/>
<path d="M121.356 35.186C119.226 34.0218 118.181 31.5299 111.61 31.0559C111.339 34.1032 111.743 35.974 112.436 38.4556" stroke="black" stroke-width="0.937055" stroke-linecap="round" stroke-linejoin="round"/>
<path d="M167.236 33.6291C169.366 32.4649 170.412 29.973 176.982 29.499C177.253 32.5463 176.849 34.4171 176.156 36.8987" stroke="black" stroke-width="0.937055" stroke-linecap="round" stroke-linejoin="round"/>
<path d="M119.772 124.885C114.042 168.662 112.696 172.044 111.362 177.452C112.073 183.041 120.81 184.465 123.744 180.86C125.524 178.126 127.289 175.368 130.285 174.532C133.855 165.921 133.617 153.342 134.256 141.678" fill="#999999"/>
<path d="M119.772 124.885C114.042 168.662 112.696 172.044 111.362 177.452C112.073 183.041 120.81 184.465 123.744 180.86C125.524 178.126 127.289 175.368 130.285 174.532C133.855 165.921 133.617 153.342 134.256 141.678" stroke="black" stroke-width="1.56175" stroke-linecap="round" stroke-linejoin="round"/>
<path d="M109.069 54.0293L114.177 56.0528Z" fill="#F9F9F9"/>
<path d="M109.069 54.0293L114.177 56.0528" stroke="#EFEFEF" stroke-width="0.668927" stroke-linecap="round" stroke-linejoin="round"/>
<path d="M174.761 54.4004L178.966 52.7969Z" fill="#F9F9F9"/>
<path d="M174.761 54.4004L178.966 52.7969" stroke="#EFEFEF" stroke-width="0.540317" stroke-linecap="round" stroke-linejoin="round"/>
</svg>
