<?xml version="1.0" encoding="UTF-8" standalone="no"?>
<!-- Created with Inkscape (http://www.inkscape.org/) -->

<svg
   width="297.33646mm"
   height="330.10291mm"
   viewBox="0 0 297.33646 330.10291"
   version="1.1"
   id="svg1"
   sodipodi:docname="iconoAle.svg"
   xmlns:inkscape="http://www.inkscape.org/namespaces/inkscape"
   xmlns:sodipodi="http://sodipodi.sourceforge.net/DTD/sodipodi-0.dtd"
   xmlns="http://www.w3.org/2000/svg"
   xmlns:svg="http://www.w3.org/2000/svg">
  <sodipodi:namedview
     id="namedview1"
     pagecolor="#ffffff"
     bordercolor="#111111"
     borderopacity="1"
     inkscape:showpageshadow="0"
     inkscape:pageopacity="0"
     inkscape:pagecheckerboard="1"
     inkscape:deskcolor="#d1d1d1"
     inkscape:document-units="mm" />
  <defs
     id="defs1" />
  <g
     inkscape:label="Capa 1"
     inkscape:groupmode="layer"
     id="layer1"
     transform="translate(-2.0714913,-10.362904)">
    <g
       id="g18">
      <g
         id="g19"
         transform="matrix(1.0595983,0,0,1.0405958,-69.058977,10.649993)">
        <path
           style="fill:#1a1a1a;fill-opacity:1;stroke:#000000;stroke-width:2.84708;stroke-linecap:round;stroke-linejoin:round;stroke-dasharray:none"
           d="m 68.553195,234.84654 277.765365,1.50005"
           id="path13" />
        <path
           style="fill:#784421;fill-opacity:1;stroke:#000000;stroke-width:1.85404;stroke-linecap:round;stroke-linejoin:round"
           id="path4"
           sodipodi:type="arc"
           sodipodi:cx="145.3651"
           sodipodi:cy="236.30913"
           sodipodi:rx="65.008209"
           sodipodi:ry="71.36834"
           sodipodi:start="0"
           sodipodi:end="6.2710832"
           sodipodi:open="true"
           sodipodi:arc-type="arc"
           d="m 210.37331,236.30913 a 65.008209,71.36834 0 0 1 -64.81153,71.36801 65.008209,71.36834 0 0 1 -65.203702,-70.93616 65.008209,71.36834 0 0 1 64.416972,-71.79725 65.008209,71.36834 0 0 1 65.5935,70.50171"
           transform="matrix(0.97329535,-0.22955644,0.27289224,0.96204461,0,0)" />
        <path
           style="fill:#784421;fill-opacity:1;stroke:#000000;stroke-width:2.80617;stroke-linecap:round;stroke-linejoin:round"
           d="m 137.27781,140.26502 c -22.5481,35.97786 -21.38124,59.14485 -23.83367,82.84904 0.44348,33.94342 2.42813,42.06832 18.44808,49.84604 34.30673,16.13162 61.62298,17.53871 93.24571,23.60078 25.47606,-1.20842 16.4416,-32.03612 9.26688,-32.23063 -33.99036,-12.89421 -72.04258,-25.38919 -75.29566,-31.58549 7.62344,-15.82927 11.9795,-48.41412 19.36683,-70.44897 -9.36451,-10.73073 -12.2675,-26.47171 -41.19817,-22.03077 z"
           id="path9"
           sodipodi:nodetypes="cccccccc" />
        <path
           style="fill:#1a1a1a;fill-opacity:1;stroke:#000000;stroke-width:2.43266;stroke-linecap:round;stroke-linejoin:round"
           d="m 192.77808,172.21994 12.45913,-7.50021 13.19203,8.62523 -7.69535,13.12534 h -11.72624 l -8.06179,-13.12534 z"
           id="path11" />
        <path
           style="fill:#1a1a1a;fill-opacity:1;stroke:#000000;stroke-width:2.66138;stroke-linecap:round;stroke-linejoin:round"
           d="m 199.2487,182.70176 -9.28848,75.85912 c 0,0 13.93271,12.3953 15.25964,11.40366 1.32691,-0.99161 14.92789,-8.42878 14.92789,-8.42878 l -9.6202,-79.8256 z"
           id="path12" />
        <g
           id="g16"
           transform="matrix(1.1486995,0,0,1.4176788,88.980731,130.33806)">
          <path
             style="fill:#000000;fill-opacity:1;stroke:#000000;stroke-width:2.061;stroke-linecap:round;stroke-linejoin:round;stroke-dasharray:none"
             d="m 21.468137,90.97123 c -1.385689,12.66458 0.333085,24.81175 3.220221,36.76419 11.280107,2.3353 22.14302,5.57453 37.56924,-1.07341 2.428741,-11.35513 5.980142,-22.28927 2.951869,-35.690779 z"
             id="path14"
             sodipodi:nodetypes="ccccc" />
          <path
             style="fill:#000000;fill-opacity:1;stroke:#000000;stroke-width:2.21047;stroke-linecap:round;stroke-linejoin:round;stroke-dasharray:none"
             d="m 67.395687,94.535 c 22.069022,4.389788 6.676688,22.71858 -3.453684,25.87973 5.965058,-8.0284 18.724234,-15.48889 3.453684,-25.87973 z"
             id="path15"
             sodipodi:nodetypes="ccc" />
          <path
             style="fill:#ffffff;fill-opacity:1;stroke:#000000;stroke-width:0.6;stroke-linecap:round;stroke-linejoin:round;stroke-dasharray:none"
             id="path16"
             sodipodi:type="arc"
             sodipodi:cx="43.741329"
             sodipodi:cy="90.166168"
             sodipodi:rx="22.004841"
             sodipodi:ry="2.4151654"
             sodipodi:start="0"
             sodipodi:end="6.2710832"
             sodipodi:open="true"
             sodipodi:arc-type="arc"
             d="M 65.74617,90.166168 A 22.004841,2.4151654 0 0 1 43.807905,92.581323 22.004841,2.4151654 0 0 1 21.736891,90.180782 22.004841,2.4151654 0 0 1 43.541603,87.751102 22.004841,2.4151654 0 0 1 65.744559,90.13694" />
        </g>
        <path
           style="fill:#784421;fill-opacity:1;stroke:#000000;stroke-width:2.80617;stroke-linecap:round;stroke-linejoin:round"
           d="m 277.57616,139.1574 c 22.54809,35.97785 21.38123,59.14485 23.83367,82.84904 -0.44348,33.94342 -2.42813,42.06831 -18.44808,49.84604 -34.30673,16.13161 -61.62298,17.53871 -93.24571,23.60078 -25.47605,-1.20843 -16.4416,-32.03612 -9.26687,-32.23063 33.99036,-12.89422 72.04257,-25.38919 75.29566,-31.5855 -7.62345,-15.82926 -11.97951,-48.41412 -19.36683,-70.44896 0.57556,-25.12171 25.17125,-36.71422 41.19816,-22.03077 z"
           id="path9-99"
           sodipodi:nodetypes="cccccccc" />
        <g
           id="g17"
           transform="matrix(1.3655403,0,0,1.3974559,1.1273026,-2.1595729)">
          <path
             style="fill:#784421;fill-opacity:1;stroke:#000000;stroke-width:1.51412;stroke-linecap:round;stroke-linejoin:round;stroke-dasharray:none;stroke-opacity:1"
             id="path1"
             sodipodi:type="arc"
             sodipodi:cx="148.95653"
             sodipodi:cy="65.047577"
             sodipodi:rx="66.294739"
             sodipodi:ry="54.22945"
             sodipodi:start="0"
             sodipodi:end="6.2710832"
             sodipodi:open="true"
             sodipodi:arc-type="arc"
             d="M 215.25127,65.047577 A 66.294739,54.22945 0 0 1 149.1571,119.27678 66.294739,54.22945 0 0 1 82.663003,65.37572 66.294739,54.22945 0 0 1 148.35481,10.82036 a 66.294739,54.22945 0 0 1 66.8916,53.570942" />
          <path
             style="fill:#784421;fill-opacity:1;stroke:#000000;stroke-width:1.5141;stroke-linecap:round;stroke-linejoin:round;stroke-dasharray:none;stroke-opacity:1"
             d="M 93.571068,35.980594 C 86.276424,31.092786 82.962409,14.857574 86.0185,4.7444335 c 10.270427,-1.1940543 20.88675,0.2942384 32.72778,11.2797255 21.02713,-9.5934998 42.91869,-8.1649439 59.58135,-2.603016 9.62354,-6.5926534 19.2008,-12.99753859 34.16034,-10.9203238 2.7766,15.0686678 -3.55783,23.9124818 -9.72249,30.7278928"
             id="path2"
             sodipodi:nodetypes="cccccc" />
          <path
             style="fill:none;fill-opacity:1;stroke:#000000;stroke-width:1.5141;stroke-linecap:round;stroke-linejoin:round;stroke-dasharray:none;stroke-opacity:1"
             d="m 110.41444,60.277207 c 11.18195,-10.579571 19.37874,-6.442524 21.95527,4.601516"
             id="path3"
             sodipodi:nodetypes="cc" />
          <path
             style="fill:none;fill-opacity:1;stroke:#000000;stroke-width:1.5141;stroke-linecap:round;stroke-linejoin:round;stroke-dasharray:none;stroke-opacity:1"
             d="M 185.37828,59.402117 C 174.19632,48.822546 165.99954,52.959593 163.42301,64.003633"
             id="path3-6"
             sodipodi:nodetypes="cc" />
          <path
             style="fill:none;fill-opacity:1;stroke:#efefef;stroke-width:1.00876;stroke-linecap:round;stroke-linejoin:round;stroke-dasharray:none;stroke-opacity:1"
             d="m 139.67243,58.705571 c 4.94483,-2.713339 11.33505,-3.35996 17.71839,0"
             id="path5"
             sodipodi:nodetypes="cc" />
          <path
             style="fill:#000000;fill-opacity:1;stroke:#000000;stroke-width:0.908467;stroke-linecap:round;stroke-linejoin:round;stroke-dasharray:none;stroke-opacity:1"
             d="m 143.34734,68.866716 c 4.37972,-2.439223 8.47513,-1.938779 12.4611,-0.306795 -1.01619,2.361155 -1.8789,4.320338 -5.93386,7.669206 -5.59409,-3.510042 -5.60134,-5.314662 -6.52724,-7.362422 z"
             id="path6"
             sodipodi:nodetypes="cccc" />
          <path
             style="fill:none;fill-opacity:1;stroke:#000000;stroke-width:0.908467;stroke-linecap:round;stroke-linejoin:round;stroke-dasharray:none;stroke-opacity:1"
             d="m 149.28119,73.468232 c 3.25044,22.578104 12.65325,17.999011 15.42803,11.043658"
             id="path7"
             sodipodi:nodetypes="cc" />
          <path
             style="fill:none;fill-opacity:1;stroke:#000000;stroke-width:0.908467;stroke-linecap:round;stroke-linejoin:round;stroke-dasharray:none;stroke-opacity:1"
             d="m 150.10796,73.852901 c -3.25044,22.5781 -12.65324,17.999011 -15.42803,11.043654"
             id="path7-9"
             sodipodi:nodetypes="cc" />
          <path
             style="fill:none;fill-opacity:1;stroke:#000000;stroke-width:0.908467;stroke-linecap:round;stroke-linejoin:round;stroke-dasharray:none;stroke-opacity:1"
             d="m 107.74421,17.943204 c -3.82463,-2.075339 -5.70319,-6.517468 -17.504879,-7.36243 -0.486936,5.432217 0.239918,8.767147 1.483465,13.191029"
             id="path8"
             sodipodi:nodetypes="ccc" />
          <path
             style="fill:none;fill-opacity:1;stroke:#000000;stroke-width:0.908467;stroke-linecap:round;stroke-linejoin:round;stroke-dasharray:none;stroke-opacity:1"
             d="m 190.15073,15.167518 c 3.82463,-2.075339 5.70318,-6.5174682 17.50488,-7.3624304 0.48693,5.4322174 -0.23999,8.7671474 -1.4835,13.1910294"
             id="path8-5"
             sodipodi:nodetypes="ccc" />
          <path
             style="fill:#f9f9f9;fill-opacity:1;stroke:#efefef;stroke-width:0.846919;stroke-linecap:round;stroke-linejoin:round;stroke-dasharray:none;stroke-opacity:1;paint-order:normal"
             d="m 85.771896,50.882913 13.579349,4.15595"
             id="path28-0" />
          <path
             style="fill:#f9f9f9;fill-opacity:1;stroke:#efefef;stroke-width:0.991284;stroke-linecap:round;stroke-linejoin:round;stroke-dasharray:none;stroke-opacity:1;paint-order:normal"
             d="m 198.32298,54.841278 12.84463,-6.019149"
             id="path28" />
          <path
             style="fill:none;fill-opacity:0.673352;stroke:#efefef;stroke-width:0.995807;stroke-linecap:round;stroke-linejoin:round;stroke-opacity:1"
             d="M 133.02459,48.490768 C 92.123025,42.027077 91.051491,66.775174 113.41872,72.990039 134.38149,78.814663 149.8114,52.563825 133.02459,48.490768 Z"
             id="path9-9"
             sodipodi:nodetypes="csc" />
          <path
             style="fill:none;fill-opacity:0.716332;stroke:#efefef;stroke-width:0.995807;stroke-linecap:round;stroke-linejoin:round;stroke-opacity:1"
             d="m 164.49021,47.812537 c 40.90156,-6.463691 41.9731,18.284406 19.60587,24.499271 -20.96277,5.824624 -36.39268,-20.426214 -19.60587,-24.499271 z"
             id="path9-9-5"
             sodipodi:nodetypes="csc" />
        </g>
        <path
           style="fill:#ffffff;fill-opacity:1;stroke:#000000;stroke-width:2.43266;stroke-linecap:round;stroke-linejoin:round"
           d="m 152.83557,150.46937 27.11694,36.37593 c 7.6116,-14.48231 16.38066,-17.1196 24.91825,-22.12557 12.82295,5.65707 17.4617,13.40802 22.7196,21.00055 l 30.78138,-36.00094 c -35.73142,20.61238 -70.77812,15.99834 -105.53617,0.75003 z"
           id="path10"
           sodipodi:nodetypes="cccccc" />
      </g>
    </g>
  </g>
</svg>
