<?xml version="1.0" encoding="UTF-8" standalone="no"?>
<!-- Created with Inkscape (http://www.inkscape.org/) -->

<svg
   width="100mm"
   height="100mm"
   viewBox="0 0 100 100"
   version="1.1"
   id="svg1"
   xmlns:inkscape="http://www.inkscape.org/namespaces/inkscape"
   xmlns:sodipodi="http://sodipodi.sourceforge.net/DTD/sodipodi-0.dtd"
   xmlns="http://www.w3.org/2000/svg"
   xmlns:svg="http://www.w3.org/2000/svg">
  <sodipodi:namedview
     id="namedview1"
     pagecolor="#ffffff"
     bordercolor="#111111"
     borderopacity="1"
     inkscape:showpageshadow="0"
     inkscape:pageopacity="0"
     inkscape:pagecheckerboard="1"
     inkscape:deskcolor="#d1d1d1"
     inkscape:document-units="mm" />
  <defs
     id="defs1" />
  <g
     inkscape:label="Capa 1"
     inkscape:groupmode="layer"
     id="layer1">
    <g
       id="g16"
       transform="matrix(2.5556625,0,0,2.6934138,-16.413617,-15.496848)">
      <path
         style="fill:#424242;fill-opacity:1;stroke:#000000;stroke-width:0.413215;stroke-linecap:round;stroke-linejoin:round;stroke-dasharray:none;stroke-opacity:1"
         id="path1"
         sodipodi:type="arc"
         sodipodi:cx="25.875544"
         sodipodi:cy="25.352505"
         sodipodi:rx="18.673889"
         sodipodi:ry="14.338903"
         sodipodi:start="0"
         sodipodi:end="6.2710832"
         sodipodi:open="true"
         sodipodi:arc-type="arc"
         d="M 44.549433,25.352505 A 18.673889,14.338903 0 0 1 25.932042,39.691343 18.673889,14.338903 0 0 1 7.2019963,25.43927 18.673889,14.338903 0 0 1 25.706051,11.014192 18.673889,14.338903 0 0 1 44.548065,25.178978" />
      <path
         style="fill:#424242;fill-opacity:1;stroke:#000000;stroke-width:0.413214;stroke-linecap:round;stroke-linejoin:round;stroke-dasharray:none;stroke-opacity:1"
         d="M 10.274578,17.666852 C 8.219824,16.374458 7.286333,12.081677 8.147172,9.407644 c 2.892972,-0.315722 5.883377,0.0778 9.218756,2.982492 5.922916,-2.536634 12.089326,-2.158907 16.782861,-0.688268 2.710758,-1.743175 5.408479,-3.436702 9.622279,-2.887462 0.78211,3.984333 -1.00217,6.322741 -2.73863,8.124816"
         id="path2"
         sodipodi:nodetypes="cccccc" />
      <path
         style="fill:none;fill-opacity:1;stroke:#000000;stroke-width:0.413214;stroke-linecap:round;stroke-linejoin:round;stroke-dasharray:none;stroke-opacity:1"
         d="m 15.019015,24.091162 c 3.14973,-2.797363 5.4586,-1.703479 6.184356,1.216695"
         id="path3"
         sodipodi:nodetypes="cc" />
      <path
         style="fill:none;fill-opacity:1;stroke:#000000;stroke-width:0.413214;stroke-linecap:round;stroke-linejoin:round;stroke-dasharray:none;stroke-opacity:1"
         d="m 36.134814,23.859778 c -3.14973,-2.797363 -5.4586,-1.703479 -6.184356,1.216695"
         id="path3-6"
         sodipodi:nodetypes="cc" />
      <path
         style="fill:#666666;fill-opacity:0.670487;stroke:#efefef;stroke-width:0.316734;stroke-linecap:round;stroke-linejoin:round;stroke-opacity:1"
         d="m 30.887075,18.216068 c 12.149614,0.396418 9.954516,8.404057 3.522368,9.514027 -6.432148,1.109968 -8.627247,-9.196892 -3.522368,-9.514027 z"
         id="path9" />
      <path
         style="fill:none;fill-opacity:1;stroke:#efefef;stroke-width:0.275301;stroke-linecap:round;stroke-linejoin:round;stroke-dasharray:none;stroke-opacity:1"
         d="m 23.260401,23.675603 c 1.392858,-0.717439 3.192855,-0.888413 4.990911,0"
         id="path5"
         sodipodi:nodetypes="cc" />
      <path
         style="fill:#000000;fill-opacity:1;stroke:#000000;stroke-width:0.247929;stroke-linecap:round;stroke-linejoin:round;stroke-dasharray:none;stroke-opacity:1"
         d="m 24.295548,26.362329 c 1.233679,-0.644959 2.387273,-0.512636 3.51004,-0.08112 -0.286241,0.624317 -0.529248,1.142348 -1.671449,2.027828 -1.57574,-0.928096 -1.577783,-1.405259 -1.838591,-1.946711 z"
         id="path6"
         sodipodi:nodetypes="cccc" />
      <path
         style="fill:none;fill-opacity:1;stroke:#000000;stroke-width:0.247929;stroke-linecap:round;stroke-linejoin:round;stroke-dasharray:none;stroke-opacity:1"
         d="m 25.966995,27.579024 c 0.915583,5.969916 3.564163,4.75915 4.345764,2.920073"
         id="path7"
         sodipodi:nodetypes="cc" />
      <path
         style="fill:none;fill-opacity:1;stroke:#000000;stroke-width:0.247929;stroke-linecap:round;stroke-linejoin:round;stroke-dasharray:none;stroke-opacity:1"
         d="m 26.199878,27.680735 c -0.915583,5.969915 -3.564163,4.75915 -4.345764,2.920072"
         id="path7-9"
         sodipodi:nodetypes="cc" />
      <path
         style="fill:none;fill-opacity:1;stroke:#000000;stroke-width:0.247929;stroke-linecap:round;stroke-linejoin:round;stroke-dasharray:none;stroke-opacity:1"
         d="m 14.266865,12.897554 c -1.077319,-0.548744 -1.606474,-1.723295 -4.93077,-1.946713 -0.13716,1.436342 0.06758,2.318137 0.417862,3.487863"
         id="path8"
         sodipodi:nodetypes="ccc" />
      <path
         style="fill:none;fill-opacity:1;stroke:#000000;stroke-width:0.247929;stroke-linecap:round;stroke-linejoin:round;stroke-dasharray:none;stroke-opacity:1"
         d="m 37.479118,12.16363 c 1.07732,-0.548744 1.60647,-1.723295 4.93077,-1.946713 0.13716,1.436342 -0.0676,2.318137 -0.41787,3.487863"
         id="path8-5"
         sodipodi:nodetypes="ccc" />
      <path
         style="fill:#f9f9f9;fill-opacity:1;stroke:#efefef;stroke-width:0.231132;stroke-linecap:round;stroke-linejoin:round;stroke-dasharray:none;stroke-opacity:1;paint-order:normal"
         d="m 8.0777087,21.6072 3.8250283,1.098882"
         id="path28-0" />
      <path
         style="fill:#f9f9f9;fill-opacity:1;stroke:#efefef;stroke-width:0.225651;stroke-linecap:round;stroke-linejoin:round;stroke-dasharray:none;stroke-opacity:1;paint-order:normal"
         d="m 39.683792,22.11209 3.738393,-1.071644"
         id="path28" />
      <path
         style="fill:#666666;fill-opacity:0.673352;stroke:#efefef;stroke-width:0.316734;stroke-linecap:round;stroke-linejoin:round;stroke-opacity:1"
         d="M 20.591,18.489713 C 8.4413861,18.886131 10.636484,26.89377 17.068632,28.00374 23.50078,29.113708 25.695879,18.806848 20.591,18.489713 Z"
         id="path9-9" />
    </g>
  </g>
</svg>
