<?xml version="1.0" encoding="UTF-8" standalone="no"?>
<!-- Created with Inkscape (http://www.inkscape.org/) -->

<svg
   width="100mm"
   height="100mm"
   viewBox="0 0 100 100"
   version="1.1"
   id="svg1"
   inkscape:export-filename="iconoDamy.svg"
   inkscape:export-xdpi="96"
   inkscape:export-ydpi="96"
   xmlns:inkscape="http://www.inkscape.org/namespaces/inkscape"
   xmlns:sodipodi="http://sodipodi.sourceforge.net/DTD/sodipodi-0.dtd"
   xmlns="http://www.w3.org/2000/svg"
   xmlns:svg="http://www.w3.org/2000/svg">
  <sodipodi:namedview
     id="namedview1"
     pagecolor="#ffffff"
     bordercolor="#111111"
     borderopacity="1"
     inkscape:showpageshadow="0"
     inkscape:pageopacity="0"
     inkscape:pagecheckerboard="1"
     inkscape:deskcolor="#d1d1d1"
     inkscape:document-units="mm" />
  <defs
     id="defs1" />
  <g
     inkscape:label="Capa 1"
     inkscape:groupmode="layer"
     id="layer1">
    <g
       id="g18"
       transform="matrix(2.5556625,0,0,2.6934138,-260.00204,-14.000496)">
      <path
         style="fill:#f0792f;fill-opacity:1;stroke:#000000;stroke-width:0.413215;stroke-linecap:round;stroke-linejoin:round;stroke-dasharray:none;stroke-opacity:1"
         id="path1-5-7"
         sodipodi:type="arc"
         sodipodi:cx="121.23098"
         sodipodi:cy="24.825945"
         sodipodi:rx="18.673889"
         sodipodi:ry="14.338903"
         sodipodi:start="0"
         sodipodi:end="6.2710832"
         sodipodi:open="true"
         sodipodi:arc-type="arc"
         d="M 139.90487,24.825945 A 18.673889,14.338903 0 0 1 121.28748,39.164783 18.673889,14.338903 0 0 1 102.55743,24.91271 18.673889,14.338903 0 0 1 121.06149,10.487632 18.673889,14.338903 0 0 1 139.9035,24.652418" />
      <path
         style="fill:#aa4400;fill-opacity:0.247748;stroke:none;stroke-width:0.3;stroke-linecap:round;stroke-linejoin:round;stroke-dasharray:none;stroke-opacity:1"
         d="m 116.93518,32.105953 c 3.12039,3.104166 6.7301,2.669918 9.3693,-0.140891 1.15273,-3.156085 0.37163,-5.442757 -1.86681,-7.255929 -1.73075,-0.9269 -3.49287,-1.696979 -5.77657,0.140891 -2.50051,2.476486 -3.02473,4.291013 -1.72592,7.255929 z"
         id="path16-1"
         sodipodi:nodetypes="ccccc" />
      <path
         style="fill:#f0792f;fill-opacity:1;stroke:#000000;stroke-width:0.413214;stroke-linecap:round;stroke-linejoin:round;stroke-dasharray:none;stroke-opacity:1"
         d="m 105.63002,17.140292 c -2.05476,-1.292394 -2.98825,-5.585175 -2.12741,-8.259208 2.89297,-0.315722 5.88338,0.0778 9.21876,2.982492 5.92291,-2.536634 12.08932,-2.158907 16.78286,-0.688268 2.71076,-1.743175 5.40848,-3.436702 9.62228,-2.887462 0.78211,3.984333 -1.00217,6.322741 -2.73863,8.124816"
         id="path2-3-8"
         sodipodi:nodetypes="cccccc" />
      <path
         style="fill:none;fill-opacity:1;stroke:#000000;stroke-width:0.413214;stroke-linecap:round;stroke-linejoin:round;stroke-dasharray:none;stroke-opacity:1"
         d="m 110.37445,23.564602 c 3.14974,-2.797363 5.45861,-1.703479 6.18436,1.216695"
         id="path3-62-7"
         sodipodi:nodetypes="cc" />
      <path
         style="fill:none;fill-opacity:1;stroke:#000000;stroke-width:0.413214;stroke-linecap:round;stroke-linejoin:round;stroke-dasharray:none;stroke-opacity:1"
         d="m 131.49025,23.333218 c -3.14973,-2.797363 -5.4586,-1.703479 -6.18435,1.216695"
         id="path3-6-5-9"
         sodipodi:nodetypes="cc" />
      <path
         style="fill:none;fill-opacity:1;stroke:#000000;stroke-width:0.247929;stroke-linecap:round;stroke-linejoin:round;stroke-dasharray:none;stroke-opacity:1"
         d="m 119.39906,23.162633 c 1.08081,-0.74986 2.47756,-0.92856 3.87279,0"
         id="path5-5-5"
         sodipodi:nodetypes="cc" />
      <path
         style="fill:#000000;fill-opacity:1;stroke:#000000;stroke-width:0.247929;stroke-linecap:round;stroke-linejoin:round;stroke-dasharray:none;stroke-opacity:1"
         d="m 119.65099,25.835769 c 1.23368,-0.644959 2.38727,-0.512636 3.51004,-0.08112 -0.28624,0.624317 -0.52925,1.142348 -1.67145,2.027828 -1.57574,-0.928096 -1.57778,-1.405259 -1.83859,-1.946711 z"
         id="path6-4-7"
         sodipodi:nodetypes="cccc" />
      <path
         style="fill:none;fill-opacity:1;stroke:#000000;stroke-width:0.247929;stroke-linecap:round;stroke-linejoin:round;stroke-dasharray:none;stroke-opacity:1"
         d="m 121.32244,27.052464 c 0.91558,5.969916 3.56416,4.75915 4.34576,2.920073"
         id="path7-8-3"
         sodipodi:nodetypes="cc" />
      <path
         style="fill:none;fill-opacity:1;stroke:#000000;stroke-width:0.247929;stroke-linecap:round;stroke-linejoin:round;stroke-dasharray:none;stroke-opacity:1"
         d="m 121.55532,27.154175 c -0.91558,5.969915 -3.56416,4.75915 -4.34577,2.920072"
         id="path7-9-7-4"
         sodipodi:nodetypes="cc" />
      <path
         style="fill:none;fill-opacity:1;stroke:#000000;stroke-width:0.247929;stroke-linecap:round;stroke-linejoin:round;stroke-dasharray:none;stroke-opacity:1"
         d="m 109.6223,12.370994 c -1.07731,-0.548744 -1.60647,-1.723295 -4.93076,-1.946713 -0.13716,1.436342 0.0676,2.318137 0.41786,3.487863"
         id="path8-59-1"
         sodipodi:nodetypes="ccc" />
      <path
         style="fill:none;fill-opacity:1;stroke:#000000;stroke-width:0.247929;stroke-linecap:round;stroke-linejoin:round;stroke-dasharray:none;stroke-opacity:1"
         d="m 132.83456,11.63707 c 1.07732,-0.548744 1.60647,-1.723295 4.93077,-1.946713 0.13716,1.436342 -0.0676,2.318137 -0.41787,3.487863"
         id="path8-5-4-4"
         sodipodi:nodetypes="ccc" />
      <path
         style="fill:#f9f9f9;fill-opacity:1;stroke:#000000;stroke-width:0.232741;stroke-linecap:round;stroke-linejoin:round;stroke-dasharray:none;stroke-opacity:1;paint-order:normal"
         d="m 103.43396,21.280695 3.40885,1.250253"
         id="path28-0-4-3" />
      <path
         style="fill:#f9f9f9;fill-opacity:1;stroke:#000000;stroke-width:0.231048;stroke-linecap:round;stroke-linejoin:round;stroke-dasharray:none;stroke-opacity:1;paint-order:normal"
         d="m 135.8404,22.299378 3.03415,-1.384292"
         id="path28-4-7" />
      <path
         style="fill:#f59d66;fill-opacity:0.6;stroke:#000000;stroke-width:0.25085;stroke-linecap:round;stroke-linejoin:round;stroke-dasharray:none;stroke-opacity:1"
         d="m 107.10218,19.202526 c 0.63194,-1.032327 12.2943,-0.828388 12.62975,0 0.87078,0.869138 -1.2164,7.78084 -2.59516,7.851609 -0.4351,0.417284 -7.41776,0.461636 -7.95846,0 -1.73813,-0.262246 -3.10072,-7.139389 -2.07613,-7.851609 z"
         id="path11"
         sodipodi:nodetypes="ccccc" />
      <path
         style="fill:#f59d68;fill-opacity:0.595988;stroke:#000000;stroke-width:0.25085;stroke-linecap:round;stroke-linejoin:round;stroke-dasharray:none;stroke-opacity:1"
         d="m 135.51645,19.18391 c -0.63194,-1.032327 -12.2943,-0.828388 -12.62975,0 -0.87078,0.869138 1.2164,7.78084 2.59516,7.851609 0.4351,0.417284 7.41776,0.461636 7.95846,0 1.73813,-0.262246 3.10072,-7.139389 2.07613,-7.851609 z"
         id="path11-3"
         sodipodi:nodetypes="ccccc" />
    </g>
  </g>
</svg>
