<?xml version="1.0" encoding="UTF-8" standalone="no"?>
<!-- Created with Inkscape (http://www.inkscape.org/) -->

<svg
   width="100mm"
   height="100mm"
   viewBox="0 0 100 100"
   version="1.1"
   id="svg1"
   inkscape:export-filename="iconoDamy.svg"
   inkscape:export-xdpi="96"
   inkscape:export-ydpi="96"
   xmlns:inkscape="http://www.inkscape.org/namespaces/inkscape"
   xmlns:sodipodi="http://sodipodi.sourceforge.net/DTD/sodipodi-0.dtd"
   xmlns="http://www.w3.org/2000/svg"
   xmlns:svg="http://www.w3.org/2000/svg">
  <sodipodi:namedview
     id="namedview1"
     pagecolor="#ffffff"
     bordercolor="#111111"
     borderopacity="1"
     inkscape:showpageshadow="0"
     inkscape:pageopacity="0"
     inkscape:pagecheckerboard="1"
     inkscape:deskcolor="#d1d1d1"
     inkscape:document-units="mm" />
  <defs
     id="defs1" />
  <g
     inkscape:label="Capa 1"
     inkscape:groupmode="layer"
     id="layer1">
    <g
       id="g17"
       transform="matrix(2.5556625,0,0,2.6934138,-137.86967,-12.94385)">
      <path
         style="fill:#7f4b2b;fill-opacity:1;stroke:#000000;stroke-width:0.413215;stroke-linecap:round;stroke-linejoin:round;stroke-dasharray:none;stroke-opacity:1"
         id="path1-5-7-02"
         sodipodi:type="arc"
         sodipodi:cx="73.37809"
         sodipodi:cy="24.647022"
         sodipodi:rx="18.673889"
         sodipodi:ry="14.338903"
         sodipodi:start="0"
         sodipodi:end="6.2710832"
         sodipodi:open="true"
         sodipodi:arc-type="arc"
         d="M 92.051979,24.647022 A 18.673889,14.338903 0 0 1 73.434588,38.98586 18.673889,14.338903 0 0 1 54.704543,24.733787 18.673889,14.338903 0 0 1 73.208597,10.308709 18.673889,14.338903 0 0 1 92.050612,24.473496" />
      <path
         style="fill:#7f4b2b;fill-opacity:1;stroke:#000000;stroke-width:0.413214;stroke-linecap:round;stroke-linejoin:round;stroke-dasharray:none;stroke-opacity:1"
         d="m 57.777128,16.961369 c -2.05476,-1.292394 -2.98825,-5.585175 -2.12741,-8.2592076 2.89297,-0.315722 5.88338,0.0778 9.21876,2.9824916 5.92291,-2.5366336 12.08932,-2.1589066 16.78286,-0.688268 2.71076,-1.7431746 5.40848,-3.4367016 9.62228,-2.8874616 0.78211,3.9843326 -1.00217,6.3227406 -2.73863,8.1248156"
         id="path2-3-8-3"
         sodipodi:nodetypes="cccccc" />
      <path
         style="fill:none;fill-opacity:1;stroke:#000000;stroke-width:0.413214;stroke-linecap:round;stroke-linejoin:round;stroke-dasharray:none;stroke-opacity:1"
         d="m 62.521558,23.385679 c 3.14974,-2.797363 5.45861,-1.703479 6.18436,1.216695"
         id="path3-62-7-1"
         sodipodi:nodetypes="cc" />
      <path
         style="fill:none;fill-opacity:1;stroke:#000000;stroke-width:0.413214;stroke-linecap:round;stroke-linejoin:round;stroke-dasharray:none;stroke-opacity:1"
         d="m 83.637358,23.154295 c -3.14973,-2.797363 -5.4586,-1.703479 -6.18435,1.216695"
         id="path3-6-5-9-4"
         sodipodi:nodetypes="cc" />
      <path
         style="fill:none;fill-opacity:1;stroke:#000000;stroke-width:0.247929;stroke-linecap:round;stroke-linejoin:round;stroke-dasharray:none;stroke-opacity:1"
         d="m 71.546168,22.98371 c 1.08081,-0.74986 2.47756,-0.92856 3.87279,0"
         id="path5-5-5-5"
         sodipodi:nodetypes="cc" />
      <path
         style="fill:#552200;fill-opacity:0.423423;stroke:none;stroke-width:0.3;stroke-linecap:round;stroke-linejoin:round;stroke-dasharray:none;stroke-opacity:1"
         d="m 68.860886,32.193784 c 3.120395,3.104166 6.730107,2.669918 9.369306,-0.140891 1.152732,-3.156085 0.371623,-5.442757 -1.866815,-7.255929 -1.730749,-0.9269 -3.492863,-1.696979 -5.776566,0.140891 -2.500507,2.476486 -3.024735,4.291013 -1.725925,7.255929 z"
         id="path16"
         sodipodi:nodetypes="ccccc" />
      <path
         style="fill:#000000;fill-opacity:1;stroke:#000000;stroke-width:0.247929;stroke-linecap:round;stroke-linejoin:round;stroke-dasharray:none;stroke-opacity:1"
         d="m 71.798098,25.656846 c 1.23368,-0.644959 2.38727,-0.512636 3.51004,-0.08112 -0.28624,0.624317 -0.52925,1.142348 -1.67145,2.027828 -1.57574,-0.928096 -1.57778,-1.405259 -1.83859,-1.946711 z"
         id="path6-4-7-1"
         sodipodi:nodetypes="cccc" />
      <path
         style="fill:none;fill-opacity:1;stroke:#000000;stroke-width:0.247929;stroke-linecap:round;stroke-linejoin:round;stroke-dasharray:none;stroke-opacity:1"
         d="m 73.469548,26.873541 c 0.91558,5.969916 3.56416,4.75915 4.34576,2.920073"
         id="path7-8-3-8"
         sodipodi:nodetypes="cc" />
      <path
         style="fill:none;fill-opacity:1;stroke:#000000;stroke-width:0.247929;stroke-linecap:round;stroke-linejoin:round;stroke-dasharray:none;stroke-opacity:1"
         d="m 73.702428,26.975252 c -0.91558,5.969915 -3.56416,4.75915 -4.34577,2.920072"
         id="path7-9-7-4-3"
         sodipodi:nodetypes="cc" />
      <path
         style="fill:none;fill-opacity:1;stroke:#000000;stroke-width:0.247929;stroke-linecap:round;stroke-linejoin:round;stroke-dasharray:none;stroke-opacity:1"
         d="m 61.769408,12.192071 c -1.07731,-0.548744 -1.60647,-1.723295 -4.93076,-1.946713 -0.13716,1.436342 0.0676,2.318137 0.41786,3.487863"
         id="path8-59-1-6"
         sodipodi:nodetypes="ccc" />
      <path
         style="fill:none;fill-opacity:1;stroke:#000000;stroke-width:0.247929;stroke-linecap:round;stroke-linejoin:round;stroke-dasharray:none;stroke-opacity:1"
         d="m 84.981668,11.458147 c 1.07732,-0.548744 1.60647,-1.7232946 4.93077,-1.9467126 0.13716,1.4363416 -0.0676,2.3181366 -0.41787,3.4878626"
         id="path8-5-4-4-7"
         sodipodi:nodetypes="ccc" />
      <path
         style="fill:#f9f9f9;fill-opacity:1;stroke:#000000;stroke-width:0.232741;stroke-linecap:round;stroke-linejoin:round;stroke-dasharray:none;stroke-opacity:1;paint-order:normal"
         d="m 55.581068,21.101772 3.40885,1.250253"
         id="path28-0-4-3-5" />
      <path
         style="fill:#f9f9f9;fill-opacity:1;stroke:#000000;stroke-width:0.231048;stroke-linecap:round;stroke-linejoin:round;stroke-dasharray:none;stroke-opacity:1;paint-order:normal"
         d="m 87.987508,22.120455 3.03415,-1.384292"
         id="path28-4-7-1" />
      <path
         style="fill:#8c5631;fill-opacity:0.67;stroke:#000000;stroke-width:0.236847;stroke-linecap:round;stroke-linejoin:round;stroke-dasharray:none;stroke-opacity:1"
         d="m 59.191378,19.38619 c 0.632611,-0.919317 12.307356,-0.737703 12.643162,0 0.871705,0.773992 -1.217692,6.929062 -2.597916,6.992084 -0.435562,0.371604 -7.425637,0.4111 -7.966911,0 C 59.529737,26.144737 58.1657,20.020442 59.191378,19.38619 Z"
         id="path11-3-3-3"
         sodipodi:nodetypes="ccccc" />
      <path
         style="fill:#8c5631;fill-opacity:0.67;stroke:#000000;stroke-width:0.236847;stroke-linecap:round;stroke-linejoin:round;stroke-dasharray:none;stroke-opacity:1"
         d="m 87.670186,19.414494 c -0.632611,-0.919317 -12.307356,-0.737703 -12.643162,0 -0.871705,0.773992 1.217692,6.929062 2.597916,6.992084 0.435562,0.371604 7.425637,0.4111 7.966911,0 1.739976,-0.233537 3.104013,-6.357832 2.078335,-6.992084 z"
         id="path11-3-3"
         sodipodi:nodetypes="ccccc" />
    </g>
  </g>
</svg>
