<?xml version="1.0" encoding="UTF-8" standalone="no"?>
<!-- Created with Inkscape (http://www.inkscape.org/) -->

<svg
   width="187.43069mm"
   height="162.05017mm"
   viewBox="0 0 187.43069 162.05017"
   version="1.1"
   id="svg1"
   xml:space="preserve"
   xmlns="http://www.w3.org/2000/svg"
   xmlns:svg="http://www.w3.org/2000/svg"><defs
     id="defs1" /><g
     id="layer2"
     style="display:inline"
     transform="translate(-9.1711605,-27.88492)"><g
       id="g10"
       transform="matrix(1.1313578,0,0,1.2275994,-38.131383,-49.665716)"><path
         style="fill:#deaa87;fill-opacity:1;stroke:#000000;stroke-width:1.78022;stroke-linecap:round;stroke-linejoin:round;stroke-dasharray:none;stroke-opacity:1"
         id="path1"
         d="M 205.66647,129.44646 A 80.540543,61.706699 0 0 1 125.3696,191.15287 80.540543,61.706699 0 0 1 44.586855,129.81985 80.540543,61.706699 0 0 1 124.3949,67.742299 80.540543,61.706699 0 0 1 205.66057,128.69969" /><path
         style="fill:#deaa87;fill-opacity:1;stroke:#000000;stroke-width:1.78022;stroke-linecap:round;stroke-linejoin:round;stroke-dasharray:none;stroke-opacity:1"
         d="m 53.89394,100.03485 c -4.120451,0.0602 -13.097232,-24.019841 -10.80957,-33.627217 11.585333,-0.885651 28.061795,-0.58951 48.52757,6.857466 25.54557,-10.91627 48.95329,-8.892238 69.19652,-2.563428 14.43572,-5.855133 27.47825,-7.846602 44.88231,-5.945005 3.37325,17.14636 -3.19522,27.20957 -10.68457,34.9647"
         id="path2" /><g
         id="g1"><path
           style="fill:#ffffff;fill-opacity:1;stroke:#000000;stroke-width:1.03349;stroke-linecap:round;stroke-linejoin:round;stroke-dasharray:none;stroke-opacity:1"
           id="path5"
           d="M 107.80602,130.80006 A 16.008244,18.489153 0 0 1 91.82553,149.28919 16.008244,18.489153 0 0 1 75.789628,130.86418 16.008244,18.489153 0 0 1 91.714511,112.31116 16.008244,18.489153 0 0 1 107.80563,130.67184" /><path
           style="fill:#000000;fill-opacity:1;stroke:#000000;stroke-width:1.03349;stroke-linecap:round;stroke-linejoin:round;stroke-dasharray:none;stroke-opacity:1"
           id="path6-8"
           d="M 102.72664,124.75921 A 10.510464,12.10794 0 0 1 92.234402,136.86713 10.510464,12.10794 0 0 1 81.705778,124.80119 10.510464,12.10794 0 0 1 92.161511,112.65143 10.510464,12.10794 0 0 1 102.72639,124.67524" /><path
           style="fill:#deaa87;fill-opacity:1;stroke:#000000;stroke-width:1.49928;stroke-linecap:round;stroke-linejoin:round;stroke-dasharray:none;stroke-opacity:1"
           d="m 69.281986,118.01382 c 11.7602,2.22875 29.71,-5.74143 33.973164,-12.04672"
           id="path3" /></g><g
         id="g2"
         style="display:inline"
         transform="matrix(-1,0,0,1,246.38453,-1.0641392)"><path
           style="fill:#ffffff;fill-opacity:1;stroke:#000000;stroke-width:1.03349;stroke-linecap:round;stroke-linejoin:round;stroke-dasharray:none;stroke-opacity:1"
           id="path5-7"
           d="M 107.80602,130.80006 A 16.008244,18.489153 0 0 1 91.82553,149.28919 16.008244,18.489153 0 0 1 75.789628,130.86418 16.008244,18.489153 0 0 1 91.714511,112.31116 16.008244,18.489153 0 0 1 107.80563,130.67184" /><path
           style="fill:#000000;fill-opacity:1;stroke:#000000;stroke-width:1.03349;stroke-linecap:round;stroke-linejoin:round;stroke-dasharray:none;stroke-opacity:1"
           id="path6-8-8"
           d="M 102.72664,124.75921 A 10.510464,12.10794 0 0 1 92.234402,136.86713 10.510464,12.10794 0 0 1 81.705778,124.80119 10.510464,12.10794 0 0 1 92.161511,112.65143 10.510464,12.10794 0 0 1 102.72639,124.67524" /></g><path
         style="fill:#000000;fill-opacity:1;stroke:#000000;stroke-width:1.06813;stroke-linecap:round;stroke-linejoin:round;stroke-dasharray:none;stroke-opacity:1"
         d="m 115.12339,143.75473 c 5.32085,-2.77554 10.29631,-2.2061 15.13881,-0.34909 -1.23456,2.68671 -2.28266,4.91603 -7.20896,8.72665 -6.79618,-3.99401 -6.80499,-6.04746 -7.92985,-8.37757 z"
         id="path6" /><path
         style="fill:none;fill-opacity:1;stroke:#000000;stroke-width:1.06813;stroke-linecap:round;stroke-linejoin:round;stroke-dasharray:none;stroke-opacity:1"
         d="m 79.4651,80.671682 c -4.754627,-2.135401 -12.912777,-5.582147 -27.28012,-5.853283 -0.290197,6.214291 2.492269,12.40095 3.648709,15.386018"
         id="path8" /><path
         style="display:inline;fill:none;fill-opacity:1;stroke:#000000;stroke-width:1.06813;stroke-linecap:round;stroke-linejoin:round;stroke-dasharray:none;stroke-opacity:1"
         d="m 169.87495,78.388414 c 4.75463,-2.135401 12.91278,-5.582147 27.28012,-5.853283 0.2902,6.214291 -2.49227,12.40095 -3.64871,15.386018"
         id="path8-5" /><path
         style="fill:#000000;fill-opacity:1;stroke:#000000;stroke-width:1.76916;stroke-linecap:round;stroke-linejoin:round;stroke-opacity:1"
         d="m 122.90029,151.13235 0.0753,9.86222"
         id="path4" /><path
         style="fill:#deaa87;fill-opacity:1;stroke:#000000;stroke-width:2.21177;stroke-linecap:round;stroke-linejoin:round;stroke-opacity:1"
         d="m 82.516021,182.65703 c 1.339173,-4.84011 0.40193,-6.8915 -4.512494,-10.28408 0.246145,-5.24653 -2.92418,-8.85699 -7.289413,-5.95394 -2.224751,-2.55399 -2.805909,-10.11801 -10.93412,-6.13438 -4.002163,-3.98963 -6.160246,-6.818 -11.975467,1.44338 -16.152857,21.93393 23.135746,46.19981 34.711494,20.92902 z"
         id="path9" /><path
         style="display:inline;fill:#deaa87;fill-opacity:1;stroke:#000000;stroke-width:2.21177;stroke-linecap:round;stroke-linejoin:round;stroke-opacity:1"
         d="m 160.16245,183.30038 c -1.33917,-4.84011 -0.40193,-6.8915 4.51249,-10.28408 -0.24614,-5.24653 2.92418,-8.85699 7.28942,-5.95394 2.22475,-2.55399 2.80591,-10.11801 10.93412,-6.13438 4.00216,-3.98963 6.16024,-6.818 11.97546,1.44338 16.15286,21.93393 -23.13574,46.19981 -34.71149,20.92902 z"
         id="path9-5" /><path
         style="fill:#000000;fill-opacity:1;stroke:#000000;stroke-width:1.761;stroke-linecap:round;stroke-linejoin:round;stroke-opacity:1"
         d="m 112.71347,165.12523 c 6.68612,-4.83074 13.69656,-5.12111 21.13378,0.56357 -7.04459,-3.44403 -14.08919,-4.60683 -21.13378,-0.56357 z"
         id="path10" /><path
         style="display:inline;fill:#deaa87;fill-opacity:1;stroke:#000000;stroke-width:1.49928;stroke-linecap:round;stroke-linejoin:round;stroke-dasharray:none;stroke-opacity:1"
         d="m 177.86986,117.483 c -11.7602,2.22875 -29.71,-5.74143 -33.97316,-12.04671"
         id="path3-1" /></g></g></svg>
