<?xml version="1.0" encoding="UTF-8" standalone="no"?>
<!-- Created with Inkscape (http://www.inkscape.org/) -->

<svg
   width="100mm"
   height="100mm"
   viewBox="0 0 100 100"
   version="1.1"
   id="svg1"
   inkscape:export-filename="unirseEquipoHome.svg"
   inkscape:export-xdpi="96"
   inkscape:export-ydpi="96"
   xmlns:inkscape="http://www.inkscape.org/namespaces/inkscape"
   xmlns:sodipodi="http://sodipodi.sourceforge.net/DTD/sodipodi-0.dtd"
   xmlns="http://www.w3.org/2000/svg"
   xmlns:svg="http://www.w3.org/2000/svg">
  <sodipodi:namedview
     id="namedview1"
     pagecolor="#ffffff"
     bordercolor="#111111"
     borderopacity="1"
     inkscape:showpageshadow="0"
     inkscape:pageopacity="0"
     inkscape:pagecheckerboard="1"
     inkscape:deskcolor="#d1d1d1"
     inkscape:document-units="mm" />
  <defs
     id="defs1" />
  <g
     inkscape:label="Capa 1"
     inkscape:groupmode="layer"
     id="layer1">
    <g
       id="g6">
      <path
         style="fill:#ffffff;fill-opacity:1;stroke:#000000;stroke-width:0.5;stroke-linecap:round;stroke-linejoin:round;stroke-dasharray:none;stroke-opacity:1"
         id="path1"
         sodipodi:type="arc"
         sodipodi:cx="50.094826"
         sodipodi:cy="49.921646"
         sodipodi:rx="49.171253"
         sodipodi:ry="48.044117"
         sodipodi:start="0"
         sodipodi:end="6.2762502"
         sodipodi:open="true"
         sodipodi:arc-type="arc"
         d="M 99.266079,49.921646 A 49.171253,48.044117 0 0 1 50.180078,97.965691 49.171253,48.044117 0 0 1 0.92386816,50.088241 49.171253,48.044117 0 0 1 49.839071,1.878179 49.171253,48.044117 0 0 1 99.264896,49.588458" />
      <path
         style="fill:#f9f9f9;fill-opacity:0.997135;stroke:#000000;stroke-width:0.499999;stroke-linecap:round;stroke-linejoin:round;stroke-dasharray:none;stroke-opacity:1"
         d="M 68.973059,94.079422 C 61.288257,87.652296 54.941245,79.484157 41.251226,46.660253 37.059041,43.94181 22.670344,38.265075 32.180439,32.010836 c -3.236291,-1.235619 -4.204708,-7.149913 3.489341,-7.238374 -2.489801,-2.879177 5.980509,-9.187607 8.613325,-0.406474 2.773415,-5.506371 9.656019,-1.015029 8.703996,2.962355 3.328894,5.077702 2.207784,8.37944 2.890347,12.096471 2.04195,2.529667 35.272779,32.164892 39.323474,29.894358 -4.244618,12.929143 -19.468808,23.478896 -26.227863,24.76025 z"
         id="path2-5-2"
         sodipodi:nodetypes="ccccccccc" />
      <path
         style="fill:#efb27a;fill-opacity:1;stroke:#000000;stroke-width:0.170662;stroke-linecap:round;stroke-linejoin:round;stroke-dasharray:none;stroke-opacity:1"
         id="path2"
         sodipodi:type="arc"
         sodipodi:cx="44.547028"
         sodipodi:cy="36.137341"
         sodipodi:rx="6.5364437"
         sodipodi:ry="6.4989262"
         sodipodi:start="0"
         sodipodi:end="6.2762502"
         sodipodi:open="true"
         sodipodi:arc-type="arc"
         d="m 51.083471,36.137341 a 6.5364437,6.4989262 0 0 1 -6.525111,6.498916 6.5364437,6.4989262 0 0 1 -6.547737,-6.476381 6.5364437,6.4989262 0 0 1 6.502407,-6.521374 6.5364437,6.4989262 0 0 1 6.570284,6.453768" />
      <path
         style="fill:#efb27a;fill-opacity:1;stroke:#000000;stroke-width:0.123189;stroke-linecap:round;stroke-linejoin:round;stroke-dasharray:none;stroke-opacity:1"
         id="path2-7"
         sodipodi:type="arc"
         sodipodi:cx="33.749954"
         sodipodi:cy="36.64975"
         sodipodi:rx="2.7184966"
         sodipodi:ry="2.1054456"
         sodipodi:start="0"
         sodipodi:end="6.2762502"
         sodipodi:open="true"
         sodipodi:arc-type="arc"
         d="m 36.468451,36.64975 a 2.7184966,2.1054456 0 0 1 -2.713784,2.105442 2.7184966,2.1054456 0 0 1 -2.723193,-2.098142 2.7184966,2.1054456 0 0 1 2.70434,-2.112717 2.7184966,2.1054456 0 0 1 2.732571,2.090815" />
      <path
         style="fill:#efb27a;fill-opacity:1;stroke:#000000;stroke-width:0.153689;stroke-linecap:round;stroke-linejoin:round;stroke-dasharray:none;stroke-opacity:1"
         id="path2-7-5"
         sodipodi:type="arc"
         sodipodi:cx="45.033524"
         sodipodi:cy="8.6375065"
         sodipodi:rx="3.4547133"
         sodipodi:ry="2.5786903"
         sodipodi:start="0"
         sodipodi:end="6.2762502"
         sodipodi:open="true"
         sodipodi:arc-type="arc"
         d="m 48.488237,8.6375065 a 3.4547133,2.5786903 0 0 1 -3.448724,2.5786865 3.4547133,2.5786903 0 0 1 -3.460682,-2.5697448 3.4547133,2.5786903 0 0 1 3.436724,-2.5875971 3.4547133,2.5786903 0 0 1 3.472599,2.560772"
         transform="matrix(0.87368658,0.48648923,-0.47204077,0.88157672,0,0)"
         inkscape:transform-center-x="-0.59774988"
         inkscape:transform-center-y="0.4981309" />
      <path
         style="fill:#efb27a;fill-opacity:1;stroke:#000000;stroke-width:0.13354;stroke-linecap:round;stroke-linejoin:round;stroke-dasharray:none;stroke-opacity:1"
         id="path2-7-5-0"
         sodipodi:type="arc"
         sodipodi:cx="41.949375"
         sodipodi:cy="-21.094135"
         sodipodi:rx="3.0023036"
         sodipodi:ry="2.2402618"
         sodipodi:start="0"
         sodipodi:end="6.2762502"
         sodipodi:open="true"
         sodipodi:arc-type="arc"
         d="m 44.951679,-21.094135 a 3.0023036,2.2402618 0 0 1 -2.997099,2.240258 3.0023036,2.2402618 0 0 1 -3.00749,-2.23249 3.0023036,2.2402618 0 0 1 2.986669,-2.248 3.0023036,2.2402618 0 0 1 3.017848,2.224695"
         transform="matrix(0.52987592,0.84807518,-0.85849397,0.51282365,0,0)"
         inkscape:transform-center-x="-0.23898782"
         inkscape:transform-center-y="0.62108775" />
      <path
         style="fill:#efb27a;fill-opacity:1;stroke:#000000;stroke-width:0.105335;stroke-linecap:round;stroke-linejoin:round;stroke-dasharray:none;stroke-opacity:1"
         id="path2-7-5-0-0"
         sodipodi:type="arc"
         sodipodi:cx="27.929737"
         sodipodi:cy="-44.149059"
         sodipodi:rx="2.3511736"
         sodipodi:ry="1.7798719"
         sodipodi:start="0"
         sodipodi:end="6.2762502"
         sodipodi:open="true"
         sodipodi:arc-type="arc"
         d="m 30.280911,-44.149059 a 2.3511736,1.7798719 0 0 1 -2.347098,1.779869 2.3511736,1.7798719 0 0 1 -2.355235,-1.773698 2.3511736,1.7798719 0 0 1 2.33893,-1.786019 2.3511736,1.7798719 0 0 1 2.363346,1.767504"
         transform="matrix(0.11956712,0.99282612,-0.99930952,0.03715491,0,0)"
         inkscape:transform-center-x="0.04315427"
         inkscape:transform-center-y="0.51195998" />
      <path
         style="fill:none;fill-opacity:1;stroke:#000000;stroke-width:0.499999;stroke-linecap:round;stroke-linejoin:round;stroke-dasharray:none;stroke-opacity:1"
         d="m 49.015782,15.940092 c 3.525612,-0.473825 5.087951,0.541759 6.213263,1.286705 2.232204,1.477699 2.726385,3.467736 2.75304,5.288583"
         id="path4"
         sodipodi:nodetypes="csc" />
      <path
         style="fill:none;fill-opacity:1;stroke:#000000;stroke-width:0.5;stroke-linecap:round;stroke-linejoin:round;stroke-dasharray:none;stroke-opacity:1"
         d="m 48.999919,11.2765 c 5.901185,-0.721969 8.516235,0.825481 10.399788,1.960558 3.736273,2.251576 4.563435,5.283804 4.60805,8.058236"
         id="path4-0"
         sodipodi:nodetypes="csc" />
      <path
         style="fill:none;fill-opacity:1;stroke:#000000;stroke-width:0.5;stroke-linecap:round;stroke-linejoin:round;stroke-dasharray:none;stroke-opacity:1"
         d="M 29.502384,49.488366 C 26.09284,50.128714 24.581936,48.756209 23.493671,47.749457 21.334954,45.752431 20.857042,43.063008 20.831265,40.602236"
         id="path4-9"
         sodipodi:nodetypes="csc" />
      <path
         style="fill:none;fill-opacity:1;stroke:#000000;stroke-width:0.5;stroke-linecap:round;stroke-linejoin:round;stroke-dasharray:none;stroke-opacity:1"
         d="m 29.517724,55.790947 c -5.706909,0.9757 -8.235867,-1.115591 -10.057411,-2.649583 -3.613269,-3.042878 -4.4132,-7.140763 -4.456346,-10.89025"
         id="path4-0-8"
         sodipodi:nodetypes="csc" />
      <path
         style="fill:#a05a2c;fill-opacity:1;stroke:none;stroke-width:0.499999;stroke-linecap:round;stroke-linejoin:round;stroke-dasharray:none;stroke-opacity:1"
         d="m 45.073301,55.107876 c 3.4057,-0.392744 6.687648,-0.767052 9.592732,2.094212 2.34948,4.274252 2.420997,9.768501 1.972487,10.707777 -0.18859,0.737585 -2.080374,4.195296 -2.078156,6.974146 -3.407784,-6.27617 -6.533447,-13.010575 -9.487063,-19.776135 z"
         id="path5"
         sodipodi:nodetypes="ccccc" />
      <path
         style="fill:#c87137;fill-opacity:1;stroke:none;stroke-width:0.499999;stroke-linecap:round;stroke-linejoin:round;stroke-dasharray:none;stroke-opacity:1"
         d="m 74.390892,56.074952 c -13.60279,2.079907 -8.508803,14.078786 -5.072107,13.8074 4.466861,1.07935 6.663284,4.6724 13.525616,3.099621 4.806737,0.435637 8.849853,0.681773 10.919117,-3.381405 C 87.280647,66.600646 80.67928,61.249494 74.390892,56.074952 Z"
         id="path6"
         sodipodi:nodetypes="ccccc" />
    </g>
  </g>
</svg>
