<?xml version="1.0" encoding="UTF-8" standalone="no"?>
<!-- Created with Inkscape (http://www.inkscape.org/) -->

<svg
   width="100mm"
   height="100mm"
   viewBox="0 0 100 100"
   version="1.1"
   id="svg1"
   xml:space="preserve"
   inkscape:export-filename="miEquipoHome.svg"
   inkscape:export-xdpi="96"
   inkscape:export-ydpi="96"
   xmlns:inkscape="http://www.inkscape.org/namespaces/inkscape"
   xmlns:sodipodi="http://sodipodi.sourceforge.net/DTD/sodipodi-0.dtd"
   xmlns="http://www.w3.org/2000/svg"
   xmlns:svg="http://www.w3.org/2000/svg"><sodipodi:namedview
     id="namedview1"
     pagecolor="#ffffff"
     bordercolor="#111111"
     borderopacity="1"
     inkscape:showpageshadow="0"
     inkscape:pageopacity="0"
     inkscape:pagecheckerboard="1"
     inkscape:deskcolor="#d1d1d1"
     inkscape:document-units="mm" /><defs
     id="defs1" /><g
     inkscape:groupmode="layer"
     id="layer2"
     inkscape:label="Capa 2"><g
       id="g5"><path
         style="fill:#ffffff;fill-opacity:0.997135;stroke:#000000;stroke-width:0.5;stroke-linecap:round;stroke-linejoin:round;stroke-dasharray:none;stroke-opacity:1"
         id="path1"
         sodipodi:type="arc"
         sodipodi:cx="50.016598"
         sodipodi:cy="48.889469"
         sodipodi:rx="49.171253"
         sodipodi:ry="48.044117"
         sodipodi:start="0"
         sodipodi:end="6.2762502"
         sodipodi:open="true"
         sodipodi:arc-type="arc"
         d="M 99.187851,48.889469 A 49.171253,48.044117 0 0 1 50.10185,96.933514 49.171253,48.044117 0 0 1 0.84564016,49.056064 49.171253,48.044117 0 0 1 49.760843,0.84600206 49.171253,48.044117 0 0 1 99.186668,48.556281" /><path
         style="fill:#deaa87;fill-opacity:0.997135;stroke:#000000;stroke-width:0.537312;stroke-linecap:round;stroke-linejoin:round;stroke-dasharray:none;stroke-opacity:1"
         d="m 29.389335,5.4435982 c 0.630878,5.8351638 2.541841,13.1179988 11.288133,31.2890028 0.503972,2.41864 -0.394111,9.051481 5.312532,6.682473 0.590662,1.249252 2.133277,4.314474 4.853243,0.628957 1.478443,1.241207 4.96865,1.379501 3.391395,-4.151639 3.151579,1.004995 3.138438,-3.530806 1.767957,-5.297262 C 54.025648,31.844102 52.775439,29.477013 52.67272,27.71615 52.219848,28.164594 52.498698,1.607366 49.507692,0.96160802 41.173638,0.77001902 33.04007,3.0084042 29.389335,5.4435982 Z"
         id="path2-3"
         sodipodi:nodetypes="ccccccccc" /><g
         id="g4"><path
           style="fill:#ff7f2a;fill-opacity:0.997135;stroke:#000000;stroke-width:0.537312;stroke-linecap:round;stroke-linejoin:round;stroke-dasharray:none;stroke-opacity:1"
           d="M 72.122059,91.691395 C 71.491181,85.856231 69.580218,78.075268 60.833926,59.904264 c -0.503972,-2.41864 0.394111,-9.051481 -5.312532,-6.682473 -0.590662,-1.249252 -2.133277,-4.314474 -4.853243,-0.628957 -1.478443,-1.241207 -4.96865,-1.379501 -3.391395,4.151639 -3.151579,-1.004995 -3.138438,3.530806 -1.767957,5.297262 1.976947,2.751028 3.227156,5.118117 3.329875,6.87898 0.452872,-0.448444 -0.324106,27.10504 2.6669,27.750798 8.334054,0.191589 16.96575,-2.544924 20.616485,-4.980118 z"
           id="path2"
           sodipodi:nodetypes="ccccccccc" /><path
           style="fill:#b3b3b3;fill-opacity:0.997135;stroke:#000000;stroke-width:0.536241;stroke-linecap:round;stroke-linejoin:round;stroke-dasharray:none;stroke-opacity:1"
           d="M 3.4184435,64.060771 C 7.8418916,59.996748 14.953471,56.529755 33.892576,48.039939 c 2.01814,-1.535565 5.716676,-8.342817 8.461455,-3.03015 1.293955,-0.590206 4.539936,-1.981043 4.120749,2.501358 1.964563,-0.03874 4.715802,1.999667 -0.22287,5.25043 3.079037,1.16921 0.004,4.621424 -2.233256,5.127187 -3.364412,0.884347 -5.915976,1.922195 -7.184075,3.202431 C 36.792747,60.470903 17.29216,83.728661 14.57815,82.384027 8.9299618,77.418392 4.6506967,67.896704 3.4184435,64.060771 Z"
           id="path2-5-2"
           sodipodi:nodetypes="ccccccccc" /><path
           style="fill:#ffffff;fill-opacity:0.997135;stroke:#000000;stroke-width:0.536241;stroke-linecap:round;stroke-linejoin:round;stroke-dasharray:none;stroke-opacity:1"
           d="m 11.160791,19.445255 c 5.87587,1.247931 12.026787,4.832985 29.924461,15.342027 2.421206,0.754063 10.111919,-0.179094 7.374611,5.137426 1.231085,0.712103 4.246236,2.550495 0.351036,4.807716 1.170561,1.578226 1.104798,5.001688 -4.407156,2.862458 0.832489,3.18661 -3.763122,2.682628 -5.472303,1.152984 C 36.260303,46.519332 33.935363,45.042084 32.157046,44.751107 32.638194,44.357396 2.3823745,41.952896 1.9044495,38.961997 2.6756905,31.481038 8.7497761,22.673232 11.160791,19.445255 Z"
           id="path2-5-2-1"
           sodipodi:nodetypes="ccccccccc" /><path
           style="fill:#784421;fill-opacity:0.997135;stroke:#000000;stroke-width:0.536241;stroke-linecap:round;stroke-linejoin:round;stroke-dasharray:none;stroke-opacity:1"
           d="m 91.751349,23.20398 c -3.932508,4.540766 -10.060386,10.035524 -27.910971,20.624351 -1.830392,1.755141 -4.965636,7.762466 -8.296857,2.796462 -1.218429,0.733548 -4.285155,2.484551 -4.37851,-2.016439 -1.947408,0.261934 -4.912638,-1.450323 -0.375751,-5.241708 -3.192041,-0.811417 -0.529631,-4.590977 1.635606,-5.347922 3.241996,-1.261271 5.658958,-2.582594 6.773216,-3.998755 C 59.310194,30.631479 74.456496,7.654468 77.30583,8.6816888 83.482149,12.972685 90.0908,19.533093 91.751349,23.20398 Z"
           id="path2-5-2-7"
           sodipodi:nodetypes="ccccccccc" /><path
           style="fill:#c87137;fill-opacity:0.997135;stroke:none;stroke-width:0.499999;stroke-linecap:round;stroke-linejoin:round;stroke-dasharray:none;stroke-opacity:1"
           d="m 3.3374567,33.723255 c 2.4475073,-0.925947 5.5694528,-0.422442 6.2265986,0.348691 1.5240487,1.314673 0.085681,3.254437 1.2951327,4.881655 1.276243,1.036471 2.883636,1.659006 3.686146,3.287644 C 10.427477,41.712902 4.8152361,40.599658 1.9925114,39.15285"
           id="path3"
           sodipodi:nodetypes="ccccc" /><path
           style="fill:#c87137;fill-opacity:0.997135;stroke:none;stroke-width:0.499999;stroke-linecap:round;stroke-linejoin:round;stroke-dasharray:none;stroke-opacity:1"
           d="m 21.718375,23.910138 c -1.453362,2.226533 -2.380903,4.55823 0.09963,7.571542 0.299998,0.897445 6.129498,5.561665 7.073416,7.272668 0.924958,1.132411 6.259566,2.782204 4.981279,-3.885398 -0.37088,-1.846745 -0.743883,-3.692783 -1.892886,-5.280154 z"
           id="path4"
           sodipodi:nodetypes="cccccc" /><path
           style="fill:#1a1a1a;fill-opacity:0.997135;stroke:#000000;stroke-width:0.536241;stroke-linecap:round;stroke-linejoin:round;stroke-dasharray:none;stroke-opacity:1"
           d="m 98.976039,46.307644 c -5.801408,-1.557828 -13.955753,-2.67583 -34.67416,-1.445271 -2.499489,-0.42826 -8.462205,-3.647535 -8.439115,2.332241 -1.420222,0.07506 -4.941453,0.342921 -2.496965,4.123412 -1.759802,0.874132 -3.256569,3.953759 2.625586,4.552251 -2.189358,2.460535 2.133535,4.099464 4.351109,3.513306 3.392021,-0.771712 6.13431,-1.031427 7.8507,-0.482713 -0.249753,-0.569329 25.675266,10.154984 27.459849,7.707709 3.442071,-7.404117 4.213217,-16.140776 3.322996,-20.300935 z"
           id="path2-5"
           sodipodi:nodetypes="ccccccccc" /></g></g></g></svg>
