<?xml version="1.0" encoding="UTF-8" standalone="no"?>
<!-- Created with Inkscape (http://www.inkscape.org/) -->

<svg
   width="100mm"
   height="100mm"
   viewBox="0 0 100 100"
   version="1.1"
   id="svg1"
   xmlns:inkscape="http://www.inkscape.org/namespaces/inkscape"
   xmlns:sodipodi="http://sodipodi.sourceforge.net/DTD/sodipodi-0.dtd"
   xmlns="http://www.w3.org/2000/svg"
   xmlns:svg="http://www.w3.org/2000/svg">
  <sodipodi:namedview
     id="namedview1"
     pagecolor="#ffffff"
     bordercolor="#111111"
     borderopacity="1"
     inkscape:showpageshadow="0"
     inkscape:pageopacity="0"
     inkscape:pagecheckerboard="1"
     inkscape:deskcolor="#d1d1d1"
     inkscape:document-units="mm" />
  <defs
     id="defs1" />
  <g
     inkscape:label="Capa 1"
     inkscape:groupmode="layer"
     id="layer1">
    <g
       id="g4">
      <g
         id="g3">
        <path
           style="fill:#ffffff;fill-opacity:1;stroke:#000000;stroke-width:0.5;stroke-linecap:round;stroke-linejoin:round;stroke-dasharray:none;stroke-opacity:1"
           id="path1"
           sodipodi:type="arc"
           sodipodi:cx="50.094826"
           sodipodi:cy="49.921646"
           sodipodi:rx="49.171253"
           sodipodi:ry="48.044117"
           sodipodi:start="0"
           sodipodi:end="6.2762502"
           sodipodi:open="true"
           sodipodi:arc-type="arc"
           d="M 99.266079,49.921646 A 49.171253,48.044117 0 0 1 50.180078,97.965691 49.171253,48.044117 0 0 1 0.92386816,50.088241 49.171253,48.044117 0 0 1 49.839071,1.878179 49.171253,48.044117 0 0 1 99.264896,49.588458" />
        <g
           id="g2">
          <path
             style="fill:#b3b3b3;fill-opacity:0.997135;stroke:#000000;stroke-width:0.536241;stroke-linecap:round;stroke-linejoin:round;stroke-dasharray:none;stroke-opacity:1"
             d="M 85.122905,68.601757 C 80.68315,64.555556 76.600044,57.778916 66.466517,39.665984 c -1.70824,-1.874237 -8.816257,-4.955461 -3.767511,-8.159895 -0.702467,-1.236609 -2.375273,-4.34668 2.126639,-4.326058 -0.21255,-1.953415 1.574226,-4.874348 5.24954,-0.242932 0.891967,-3.170475 4.602915,-0.413212 5.304801,1.77047 1.178793,3.272886 2.438505,5.722525 3.826002,6.872278 -0.614151,0.09659 21.179402,14.925045 20.080382,17.747461 -0.824138,10.140283 -10.451717,13.707364 -14.163465,15.274449 z"
             id="path2-5-2"
             sodipodi:nodetypes="ccccccccc" />
          <path
             style="fill:#deaa87;fill-opacity:1;stroke:#000000;stroke-width:0.103;stroke-linecap:round;stroke-linejoin:round;stroke-dasharray:none;stroke-opacity:1"
             id="path2"
             sodipodi:type="arc"
             sodipodi:cx="70.236038"
             sodipodi:cy="33.972321"
             sodipodi:rx="3.9837487"
             sodipodi:ry="3.8841228"
             sodipodi:start="0"
             sodipodi:end="6.2762502"
             sodipodi:open="true"
             sodipodi:arc-type="arc"
             d="m 74.219787,33.972321 a 3.9837487,3.8841228 0 0 1 -3.976842,3.884117 3.9837487,3.8841228 0 0 1 -3.990632,-3.870649 3.9837487,3.8841228 0 0 1 3.963005,-3.897539 3.9837487,3.8841228 0 0 1 4.004373,3.857134" />
          <path
             style="fill:#deaa87;fill-opacity:1;stroke:#000000;stroke-width:0.0743486;stroke-linecap:round;stroke-linejoin:round;stroke-dasharray:none;stroke-opacity:1"
             id="path2-7"
             sodipodi:type="arc"
             sodipodi:cx="63.655575"
             sodipodi:cy="34.278564"
             sodipodi:rx="1.6568348"
             sodipodi:ry="1.2583324"
             sodipodi:start="0"
             sodipodi:end="6.2762502"
             sodipodi:open="true"
             sodipodi:arc-type="arc"
             d="m 65.31241,34.278564 a 1.6568348,1.2583324 0 0 1 -1.653963,1.258331 1.6568348,1.2583324 0 0 1 -1.659697,-1.253967 1.6568348,1.2583324 0 0 1 1.648207,-1.262679 1.6568348,1.2583324 0 0 1 1.665413,1.249589" />
          <path
             style="fill:#deaa87;fill-opacity:1;stroke:#000000;stroke-width:0.0927498;stroke-linecap:round;stroke-linejoin:round;stroke-dasharray:none;stroke-opacity:1"
             id="path2-7-5"
             sodipodi:type="arc"
             sodipodi:cx="71.067848"
             sodipodi:cy="-4.6025562"
             sodipodi:rx="2.0959494"
             sodipodi:ry="1.5480084"
             sodipodi:start="0"
             sodipodi:end="6.2762502"
             sodipodi:open="true"
             sodipodi:arc-type="arc"
             d="m 73.163798,-4.6025562 a 2.0959494,1.5480084 0 0 1 -2.092316,1.5480061 2.0959494,1.5480084 0 0 1 -2.099571,-1.5426383 2.0959494,1.5480084 0 0 1 2.085036,-1.5533553 2.0959494,1.5480084 0 0 1 2.1068,1.537252"
             transform="rotate(28.635974)"
             inkscape:transform-center-x="-0.59774988"
             inkscape:transform-center-y="0.4981309" />
          <path
             style="fill:#deaa87;fill-opacity:1;stroke:#000000;stroke-width:0.0806161;stroke-linecap:round;stroke-linejoin:round;stroke-dasharray:none;stroke-opacity:1"
             id="path2-7-5-0"
             sodipodi:type="arc"
             sodipodi:cx="57.987675"
             sodipodi:cy="-42.173038"
             sodipodi:rx="1.8043717"
             sodipodi:ry="1.3584576"
             sodipodi:start="0"
             sodipodi:end="6.2762502"
             sodipodi:open="true"
             sodipodi:arc-type="arc"
             d="m 59.792046,-42.173038 a 1.8043717,1.3584576 0 0 1 -1.801243,1.358455 1.8043717,1.3584576 0 0 1 -1.807489,-1.353745 1.8043717,1.3584576 0 0 1 1.794976,-1.36315 1.8043717,1.3584576 0 0 1 1.813713,1.349019"
             transform="matrix(0.53734499,0.84336253,-0.86286007,0.50544288,0,0)"
             inkscape:transform-center-x="-0.23898782"
             inkscape:transform-center-y="0.62108775" />
          <path
             style="fill:#deaa87;fill-opacity:1;stroke:#000000;stroke-width:0.0635813;stroke-linecap:round;stroke-linejoin:round;stroke-dasharray:none;stroke-opacity:1"
             id="path2-7-5-0-0"
             sodipodi:type="arc"
             sodipodi:cx="30.684818"
             sodipodi:cy="-68.315239"
             sodipodi:rx="1.4055941"
             sodipodi:ry="1.084745"
             sodipodi:start="0"
             sodipodi:end="6.2762502"
             sodipodi:open="true"
             sodipodi:arc-type="arc"
             d="m 32.090412,-68.315239 a 1.4055941,1.084745 0 0 1 -1.403157,1.084743 1.4055941,1.084745 0 0 1 -1.408022,-1.080982 1.4055941,1.084745 0 0 1 1.398274,-1.088491 1.4055941,1.084745 0 0 1 1.412872,1.077207"
             transform="matrix(0.12189531,0.99254296,-0.99933599,0.03643583,0,0)"
             inkscape:transform-center-x="0.04315427"
             inkscape:transform-center-y="0.51195998" />
        </g>
        <path
           style="fill:#ff7f2a;fill-opacity:0.997135;stroke:#000000;stroke-width:0.536241;stroke-linecap:round;stroke-linejoin:round;stroke-dasharray:none;stroke-opacity:1"
           d="M 93.313759,72.961865 C 88.230151,69.754702 88.7087,71.512391 68.193111,68.354363 c -2.262647,-1.14511 -7.131698,-7.170903 -8.870032,-1.449328 -1.379381,-0.346368 -4.823424,-1.127001 -3.600213,3.205595 -1.939153,0.317323 -4.27621,2.819838 1.169084,5.123469 -2.816697,1.706965 0.83216,4.545886 3.123999,4.638546 3.468887,0.261075 6.16611,0.820176 7.6449,1.849865 -0.07108,-0.617623 11.307852,7.543203 13.73381,5.729753 7.476449,-6.875808 10.593742,-11.806899 11.9191,-14.490398 z"
           id="path2-5-2-9"
           sodipodi:nodetypes="ccccccccc" />
        <path
           style="fill:#deaa87;fill-opacity:1;stroke:#000000;stroke-width:0.103;stroke-linecap:round;stroke-linejoin:round;stroke-dasharray:none;stroke-opacity:1"
           id="path2-3"
           sodipodi:type="arc"
           sodipodi:cx="87.864479"
           sodipodi:cy="41.747425"
           sodipodi:rx="3.9837487"
           sodipodi:ry="3.8841228"
           sodipodi:start="0"
           sodipodi:end="6.2762502"
           sodipodi:open="true"
           sodipodi:arc-type="arc"
           d="m 91.848228,41.747425 a 3.9837487,3.8841228 0 0 1 -3.976842,3.884117 3.9837487,3.8841228 0 0 1 -3.990632,-3.870649 3.9837487,3.8841228 0 0 1 3.963004,-3.897538 3.9837487,3.8841228 0 0 1 4.004374,3.857133"
           transform="matrix(0.26729522,0.96361469,0.96361469,-0.26729522,0,0)" />
        <path
           style="fill:#deaa87;fill-opacity:1;stroke:#000000;stroke-width:0.0743486;stroke-linecap:round;stroke-linejoin:round;stroke-dasharray:none;stroke-opacity:1"
           id="path2-7-3"
           sodipodi:type="arc"
           sodipodi:cx="81.284019"
           sodipodi:cy="42.053669"
           sodipodi:rx="1.6568348"
           sodipodi:ry="1.2583324"
           sodipodi:start="0"
           sodipodi:end="6.2762502"
           sodipodi:open="true"
           sodipodi:arc-type="arc"
           d="m 82.940854,42.053669 a 1.6568348,1.2583324 0 0 1 -1.653962,1.25833 1.6568348,1.2583324 0 0 1 -1.659697,-1.253967 1.6568348,1.2583324 0 0 1 1.648207,-1.262678 1.6568348,1.2583324 0 0 1 1.665412,1.249588"
           transform="matrix(0.26729522,0.96361469,0.96361469,-0.26729522,0,0)" />
        <path
           style="fill:#deaa87;fill-opacity:1;stroke:#000000;stroke-width:0.0927498;stroke-linecap:round;stroke-linejoin:round;stroke-dasharray:none;stroke-opacity:1"
           id="path2-7-5-7"
           sodipodi:type="arc"
           sodipodi:cx="90.266182"
           sodipodi:cy="-6.2267933"
           sodipodi:rx="2.0959494"
           sodipodi:ry="1.5480084"
           sodipodi:start="0"
           sodipodi:end="6.2762502"
           sodipodi:open="true"
           sodipodi:arc-type="arc"
           d="m 92.362131,-6.2267933 a 2.0959494,1.5480084 0 0 1 -2.092315,1.5480061 2.0959494,1.5480084 0 0 1 -2.099571,-1.5426383 2.0959494,1.5480084 0 0 1 2.085035,-1.5533553 2.0959494,1.5480084 0 0 1 2.106801,1.537252"
           transform="matrix(0.69640588,0.71764814,0.71764814,-0.69640588,0,0)"
           inkscape:transform-center-x="-0.59774988"
           inkscape:transform-center-y="0.4981309" />
        <path
           style="fill:#deaa87;fill-opacity:1;stroke:#000000;stroke-width:0.0806161;stroke-linecap:round;stroke-linejoin:round;stroke-dasharray:none;stroke-opacity:1"
           id="path2-7-5-0-4"
           sodipodi:type="arc"
           sodipodi:cx="73.617599"
           sodipodi:cy="-52.86977"
           sodipodi:rx="1.8043717"
           sodipodi:ry="1.3584576"
           sodipodi:start="0"
           sodipodi:end="6.2762502"
           sodipodi:open="true"
           sodipodi:arc-type="arc"
           d="m 75.421971,-52.86977 a 1.8043717,1.3584576 0 0 1 -1.801243,1.358455 1.8043717,1.3584576 0 0 1 -1.807489,-1.353745 1.8043717,1.3584576 0 0 1 1.794975,-1.363149 1.8043717,1.3584576 0 0 1 1.813714,1.349018"
           transform="matrix(0.95630627,0.29236675,0.25641381,-0.9665671,0,0)"
           inkscape:transform-center-x="-0.23898782"
           inkscape:transform-center-y="0.62108775" />
        <path
           style="fill:#deaa87;fill-opacity:1;stroke:#000000;stroke-width:0.0635813;stroke-linecap:round;stroke-linejoin:round;stroke-dasharray:none;stroke-opacity:1"
           id="path2-7-5-0-0-2"
           sodipodi:type="arc"
           sodipodi:cx="39.128094"
           sodipodi:cy="-84.925514"
           sodipodi:rx="1.4055941"
           sodipodi:ry="1.084745"
           sodipodi:start="0"
           sodipodi:end="6.2762502"
           sodipodi:open="true"
           sodipodi:arc-type="arc"
           d="m 40.533688,-84.925514 a 1.4055941,1.084745 0 0 1 -1.403157,1.084743 1.4055941,1.084745 0 0 1 -1.408023,-1.080982 1.4055941,1.084745 0 0 1 1.398275,-1.088492 1.4055941,1.084745 0 0 1 1.412871,1.077208"
           transform="matrix(0.98901101,-0.14784188,-0.23200763,-0.97271397,0,0)"
           inkscape:transform-center-x="0.04315427"
           inkscape:transform-center-y="0.51195998" />
        <path
           style="fill:#1a1a1a;fill-opacity:0.997135;stroke:#000000;stroke-width:0.536241;stroke-linecap:round;stroke-linejoin:round;stroke-dasharray:none;stroke-opacity:1"
           d="M 98.075992,58.425459 C 97.940401,54.078493 78.718544,46.477932 65.49397,45.554501 c -2.365801,-1.048715 -11.214279,-0.09813 -11.850559,0.755324 -7.233575,1.81416 -5.503281,11.773853 -1.002581,5.717422 -5.111363,1.509913 -1.116804,11.190676 3.048262,4.834035 -6.251772,5.249201 4.935633,8.742154 4.351109,3.513306 6.181537,-0.871338 6.333561,-2.265457 8.149577,-1.777846 12.717473,4.971908 20.494953,21.512605 22.279319,19.065025 3.442071,-7.404117 8.497115,-15.076149 7.606895,-19.236308 z"
           id="path2-5"
           sodipodi:nodetypes="ccccccccc" />
        <path
           style="fill:#784421;fill-opacity:0.997135;stroke:#000000;stroke-width:0.536241;stroke-linecap:round;stroke-linejoin:round;stroke-dasharray:none;stroke-opacity:1"
           d="m 1.1107018,49.693973 c 0.00195,-4.34908 17.6784972,-12.39531 30.8684492,-13.724693 2.332457,-1.12092 11.205967,-0.442696 11.868173,0.390802 7.285908,1.591018 5.86249,11.599178 1.177803,5.683913 5.155348,1.352129 1.460163,11.151072 -2.898274,4.925425 6.410126,5.054606 -4.664658,8.889696 -4.241091,3.645355 -6.205394,-0.68097 -6.400187,-2.069758 -8.200361,-1.526572 C 17.12672,54.448568 7.3251516,72.770263 5.4664151,70.378672 1.7984429,63.319715 0.34874191,54.374706 1.1107018,49.693973 Z"
           id="path2-5-3"
           sodipodi:nodetypes="ccccccccc" />
      </g>
    </g>
  </g>
</svg>
